<?xml version="1.0" encoding="UTF-8"?>
<svg width="409px" height="238px" viewBox="0 0 409 238" version="1.1" xmlns="http://www.w3.org/2000/svg" xmlns:xlink="http://www.w3.org/1999/xlink">
    <!-- Generator: Sketch 46.2 (44496) - http://www.bohemiancoding.com/sketch -->
    <title>403</title>
    <desc>Created with Sketch.</desc>
    <defs>
        <rect id="path-1" x="0.648362566" y="0.637807525" width="109.547764" height="8.23926359"></rect>
        <rect id="path-3" x="0.648362566" y="0.637807525" width="109.547764" height="8.23926359"></rect>
        <rect id="path-5" x="0.0912184918" y="0" width="198.9225" height="26.5734808"></rect>
        <rect id="path-7" x="0.0912184918" y="0" width="198.9225" height="26.5734808"></rect>
        <path d="M71.3,48.8752069 L71.3,26.6 L71.3,23.4355172 C71.3,10.5138793 59.9495,0 46,0 C32.0505,0 20.7,10.5138793 20.7,23.4355172 L20.7,48.8752069 C8.2432,57.0891034 0,71.1641724 0,87.137931 C0,112.426276 20.6356,133 46,133 C71.3644,133 92,112.426276 92,87.137931 C92,71.1641724 83.7568,57.0891034 71.3,48.8752069 Z M46,128.413793 C23.1725,128.413793 4.6,109.896983 4.6,87.137931 C4.6,72.1479138 12.6845,59.0359483 24.7089,51.8057931 C26.8249,50.5354138 29.0352,49.4645345 31.3168,48.5931552 C31.7216,48.4395172 32.1287,48.2881724 32.5381,48.146 C33.166,47.9281552 33.7962,47.7194828 34.4333,47.5314483 C35.2153,47.304431 36.0088,47.1026379 36.8092,46.9214828 C37.3934,46.7884828 37.9799,46.6715345 38.5687,46.5637586 C39.4174,46.4101207 40.273,46.2725345 41.1401,46.1716379 C41.5311,46.1234828 41.9244,46.0822069 42.3177,46.0478103 C43.5344,45.9400345 44.758,45.862069 46,45.862069 C47.242,45.862069 48.4656,45.9400345 49.6823,46.0478103 C50.0756,46.0845 50.4666,46.1257759 50.8599,46.1716379 C51.727,46.2725345 52.5826,46.4101207 53.4313,46.5637586 C54.0201,46.6715345 54.6066,46.7884828 55.1908,46.9214828 C55.9912,47.1026379 56.7847,47.304431 57.5667,47.5314483 C58.2038,47.7171897 58.834,47.9281552 59.4619,48.146 C59.8736,48.2881724 60.2784,48.4395172 60.6832,48.5931552 C62.9648,49.4645345 65.1751,50.5354138 67.2911,51.8057931 C79.3155,59.0359483 87.4,72.1479138 87.4,87.137931 C87.4,109.896983 68.8275,128.413793 46,128.413793 Z" id="path-9"></path>
        <path d="M46.3770492,133 C21.221061,133 0.754098361,112.43739 0.754098361,87.1638418 C0.754098361,70.517677 9.66324681,55.9570574 22.9141794,47.9280904 C25.2460191,46.5173553 27.6817778,45.3281616 30.1961093,44.3605094 C30.6422004,44.189897 31.090826,44.0218311 31.5419863,43.863951 C32.2339344,43.622038 32.9284171,43.3903107 33.6305036,43.1815016 C34.4922705,42.9294027 35.3667104,42.7053148 36.2487541,42.504145 C36.8925446,42.3564507 37.5388698,42.2265816 38.1877295,42.1068983 C39.123,41.9362859 40.0658743,41.7834987 41.0214217,41.6714548 C41.4523051,41.6179793 41.8857231,41.5721431 42.3191412,41.5339463 C43.659949,41.414263 45.0083607,41.3276836 46.3770492,41.3276836 C47.7457377,41.3276836 49.0941494,41.414263 50.4349572,41.5339463 C50.8683752,41.5746896 51.2992587,41.6205257 51.7326767,41.6714548 C52.688224,41.7834987 53.6310984,41.9362859 54.5663689,42.1068983 C55.2152286,42.2265816 55.8615537,42.3564507 56.5053443,42.504145 C57.387388,42.7053148 58.2618279,42.9294027 59.1235947,43.1815016 C59.8256812,43.3877643 60.5201639,43.622038 61.212112,43.863951 C61.6658069,44.0218311 62.111898,44.189897 62.5579891,44.3605094 C65.0723206,45.3281616 67.5080792,46.5173553 69.8399189,47.9280904 C83.0908515,55.9570574 92,70.517677 92,87.1638418 C92,112.43739 71.5330373,133 46.3770492,133 Z" id="path-10"></path>
        <path d="M51.8107813,86.5847646 L51.8107813,79.7164453 C51.8107813,76.7788172 49.7120413,74.3898305 47.1313164,74.3898305 C44.5505915,74.3898305 42.4518515,76.7788172 42.4518515,79.7164453 L42.4518515,86.5863257 C41.8747668,87.3875472 41.457797,88.2945958 41.2640085,89.2553814 L40.2972195,94.0486345 C39.6390016,97.3120195 41.7943088,99.9378531 45.1063405,99.9378531 L49.1562922,99.9378531 C52.4678715,99.9378531 54.6214408,97.3011601 53.9654132,94.0486345 L52.9986242,89.2553814 C52.8044488,88.2926773 52.387431,87.3854568 51.8107813,86.5847646 Z" id="path-11"></path>
    </defs>
    <g id="Page-1" stroke="none" stroke-width="1" fill="none" fill-rule="evenodd">
        <g id="403">
            <g id="Group-8" transform="translate(207.000000, 10.000000)" stroke="#266CD3" stroke-width="2.77778">
                <path d="M8.23602484,0 L8.23602484,16.4826008" id="Shape"></path>
                <path d="M16.4967006,8.22898551 L0,8.22898551" id="Shape"></path>
            </g>
            <g id="Group-7-Copy-3" transform="translate(14.000000, 193.000000)" stroke="#266CD3" stroke-width="2.77778">
                <path d="M5.5,0 L5.5,10.7173697" id="Shape"></path>
                <path d="M10.7173697,5.5 L0,5.5" id="Shape"></path>
            </g>
            <g id="Group-7-Copy-6" transform="translate(390.000000, 129.000000)" stroke="#266CD3" stroke-width="2.77778">
                <path d="M5.5,0 L5.5,10.7173697" id="Shape"></path>
                <path d="M10.7173697,5.5 L0,5.5" id="Shape"></path>
            </g>
            <g id="Group-3-Copy" transform="translate(0.000000, 14.000000)">
                <g id="Group">
                    <path d="M69.6956939,206.044238 C67.1416572,202.995408 65.5474529,199.080589 65.5474529,194.800131 L65.5474529,56.964976 C65.5474529,47.2631538 73.4384885,39.3977774 83.1719609,39.3977774 L256.901619,39.3977774 L268.398781,39.3977774 L275.184729,39.3977774 L278.32924,39.3977774" id="Shape" stroke="#266CD3" stroke-width="2.77778"></path>
                    <path d="M336.391184,101.694579 L336.391184,107.898855 L336.391184,194.797382 C336.391184,199.099833 334.882482,202.989909 332.309139,206.044238" id="Shape" stroke="#266CD3" stroke-width="2.77778"></path>
                    <path d="M325.696335,115.314024 L326.050921,177.90098 C326.050921,187.602803 318.159886,195.468179 308.426413,195.468179 L93.5094658,195.468179 C83.7759934,195.468179 75.8849578,187.602803 75.8849578,177.90098 L75.8849578,66.0042482 C75.8849578,56.302426 83.7759934,48.4370496 93.5094658,48.4370496 L175.748475,48.4370496 M168.617942,48.4370496 L268.890193,48.4370496" id="Shape" stroke="#266CD3" stroke-width="2.77778"></path>
                    <path d="M356.34632,206.044238 L45.5923173,206.044238 C41.0248392,206.044238 37.3261748,209.733624 37.3261748,214.283501 C37.3261748,218.833378 41.0248392,222.522765 45.5923173,222.522765 L356.34632,222.522765 C360.91104,222.522765 364.612462,218.833378 364.612462,214.283501 C364.612462,209.733624 360.91104,206.044238 356.34632,206.044238 L356.34632,206.044238 Z" id="Shape" stroke="#266CD3" stroke-width="2.77778"></path>
                    <g id="Clipped" transform="translate(145.547074, 205.406430)">
                        <mask id="mask-2" fill="white">
                            <use xlink:href="#path-1"></use>
                        </mask>
                        <g id="Rectangle-path"></g>
                        <g id="Group" opacity="0.300003" mask="url(#mask-2)">
                            <g id="Clipped">
                                <mask id="mask-4" fill="white">
                                    <use xlink:href="#path-3"></use>
                                </mask>
                                <g id="Rectangle-path"></g>
                                <path d="M106.064434,8.87707111 L4.78005476,8.87707111 C2.50734824,8.87707111 0.648362566,7.02413029 0.648362566,4.75606473 C0.648362566,2.49074835 2.50734824,0.637807525 4.78005476,0.637807525 L106.064434,0.637807525 C108.337141,0.637807525 110.198885,2.49074835 110.198885,4.75606473 C110.198885,7.02413029 108.337141,8.87707111 106.064434,8.87707111" id="Shape" fill="#4E8AD1" mask="url(#mask-4)"></path>
                            </g>
                        </g>
                    </g>
                    <path d="M251.611508,214.283501 L150.327129,214.283501 C148.054422,214.283501 146.195437,212.43056 146.195437,210.162495 C146.195437,207.897178 148.054422,206.044238 150.327129,206.044238 L251.611508,206.044238 C253.884215,206.044238 255.745959,207.897178 255.745959,210.162495 C255.745959,212.43056 253.884215,214.283501 251.611508,214.283501 L251.611508,214.283501 Z" id="Shape" stroke="#266CD3" stroke-width="2.77778"></path>
                    <path d="M102.327236,77.5700079 L242.773507,77.5700079" id="Shape" stroke="#266CD3" stroke-width="2.77778"></path>
                    <path d="M102.327236,99.5633709 L253.319385,99.5633709" id="Shape" stroke="#266CD3" stroke-width="2.77778"></path>
                    <path d="M13.2034913,33.0691872 L13.2034913,58.8399102" id="Shape" stroke="#266CD3" stroke-width="2.77778"></path>
                    <path d="M26.1308887,45.9545487 L0.276093904,45.9545487" id="Shape" stroke="#266CD3" stroke-width="2.77778"></path>
                    <g id="Group-2" transform="translate(26.570087, 90.380128)" stroke="#266CD3" stroke-width="2.77778">
                        <path d="M7.83521874,0.0944860376 L7.83521874,15.5228301" id="Shape"></path>
                        <path d="M15.5745567,7.80865809 L0.0958807632,7.80865809" id="Shape"></path>
                    </g>
                    <g id="Group-2-Copy" transform="translate(369.130674, 167.576770)" stroke="#266CD3" stroke-width="2.77778">
                        <path d="M7.83521874,0.0944860376 L7.83521874,15.5228301" id="Shape"></path>
                        <path d="M15.5745567,7.80865809 L0.0958807632,7.80865809" id="Shape"></path>
                    </g>
                    <path d="M382.752668,47.8781967 C375.162842,49.9280896 367.340077,45.4715852 365.278505,37.9247589 C363.216932,30.3791711 367.698828,22.5994869 375.288654,20.5495939 C382.877234,18.5009396 390.701244,22.9562054 392.762817,30.5030317 C394.823144,38.0498581 390.342493,45.8283037 382.752668,47.8781967 M401.876088,32.3832356 L405.760066,31.3341364 L403.273723,22.2303823 L398.805529,23.4367845 C397.5499,21.1701356 396.106177,19.4063606 394.470621,17.9410897 L396.733991,13.7149661 L388.380574,8.87201661 L386.086062,12.838033 C383.547401,12.0366549 380.723482,11.6551643 378.130012,11.75673 L377.051267,7.80681545 L368.506018,10.1143384 L369.584762,14.0642529 C366.074483,15.6100332 364.607092,17.0988376 362.824548,19.065744 L358.578083,16.8127197 L353.710031,25.1188115 L357.819474,27.8387902 C357.153044,29.9246027 356.755677,32.1862973 356.825434,34.7737452 L352.003472,36.0755201 L354.489816,45.1792742 L358.728808,44.0348023 C360.026789,46.9430491 361.851685,49.1997893 364.166127,51.2707385 L361.799367,55.1228031 L370.101712,59.7774845 L372.804802,55.6021437 C375.342217,56.4022831 377.352718,56.9039186 381.168184,56.4716451 L382.430041,61.0941227 L390.97529,58.7865997 L389.712188,54.1641221 C392.001717,52.947811 394.257613,51.247205 396.040157,49.2802987 L400.069877,51.5915374 L404.829556,43.3151722 L400.870838,41.3594133 C401.813805,38.4078152 402.234839,35.5441581 401.876088,32.3832356" id="Shape" stroke="#266CD3" stroke-width="3" fill="#CADCF2" transform="translate(378.881769, 34.450469) rotate(-19.000000) translate(-378.881769, -34.450469) "></path>
                    <path d="M102.327236,124.305904 L278.200383,124.305904" id="Shape" stroke="#266CD3" stroke-width="2.77778"></path>
                    <g id="Clipped" transform="translate(101.416850, 147.673852)">
                        <mask id="mask-6" fill="white">
                            <use xlink:href="#path-5"></use>
                        </mask>
                        <g id="Rectangle-path"></g>
                        <g id="Group" opacity="0.300003" mask="url(#mask-6)">
                            <g id="Clipped">
                                <mask id="mask-8" fill="white">
                                    <use xlink:href="#path-7"></use>
                                </mask>
                                <g id="Rectangle-path"></g>
                                <path d="M192.347296,26.5734808 L6.75764041,26.5734808 C3.0920737,26.5734808 0.0912184918,23.5851326 0.0912184918,19.928736 L0.0912184918,6.64199561 C0.0912184918,2.98834819 3.0920737,-0.00274917037 6.75764041,-0.00274917037 L192.347296,-0.00274917037 C196.012863,-0.00274917037 199.013718,2.98834819 199.013718,6.64199561 L199.013718,19.928736 C199.013718,23.5851326 196.012863,26.5734808 192.347296,26.5734808" id="Shape" fill="#4E8AD1" mask="url(#mask-8)"></path>
                            </g>
                        </g>
                    </g>
                </g>
            </g>
            <g id="Group-11" transform="translate(261.000000, 0.000000)">
                <g id="Shape">
                    <use fill="#FFFFFF" fill-rule="evenodd" xlink:href="#path-9"></use>
                    <path stroke="#3073D5" stroke-width="5" d="M68.8,23.4355172 L68.8,50.2213046 L69.9237806,50.962315 C82.0492961,58.9577657 89.5,72.4308232 89.5,87.137931 C89.5,111.043881 69.9853659,130.5 46,130.5 C22.0146341,130.5 2.5,111.043881 2.5,87.137931 C2.5,72.4308232 9.9507039,58.9577657 22.0762194,50.962315 L23.2,50.2213046 L23.2,23.4355172 C23.2,11.9392085 33.3902168,2.5 46,2.5 C58.6097832,2.5 68.8,11.9392085 68.8,23.4355172 Z M46,130.913793 C21.7934659,130.913793 2.1,111.279378 2.1,87.137931 C2.1,71.6483574 10.3052717,57.5494183 23.4220802,49.6624091 C25.6520364,48.3236141 27.9932357,47.1863562 30.4296945,46.2558397 C30.9264775,46.0672905 31.3250211,45.9208103 31.7186616,45.7841108 C32.4580789,45.5275759 33.0992237,45.318577 33.736317,45.1305704 C34.5467673,44.8952939 35.3853993,44.6805003 36.2542455,44.4838557 C36.8418242,44.3500865 37.452053,44.2266173 38.1233697,44.1037422 C39.1210703,43.9231311 39.9958897,43.7879114 40.8345114,43.6903851 C41.2531843,43.6388218 41.6757072,43.5944141 42.0971125,43.5575611 C43.5564745,43.4282902 44.7884276,43.362069 46,43.362069 C47.2115724,43.362069 48.4435255,43.4282902 49.9145085,43.5586179 C50.3221624,43.5966465 50.7319911,43.6397832 51.1488527,43.6883928 C52.0041103,43.7879114 52.8789297,43.9231311 53.8814295,44.1046158 C54.547947,44.2266173 55.1581758,44.3500865 55.7426686,44.4831553 C56.6146007,44.6805003 57.4532327,44.8952939 58.2664241,45.1313678 C58.8805036,45.3103978 59.4935462,45.5107926 60.277938,45.7829338 C60.666622,45.9171581 61.0413683,46.0550867 61.5751531,46.2576853 C64.0067643,47.1863562 66.3479636,48.3236141 68.5793715,49.6632814 C81.6947283,57.5494183 89.9,71.6483574 89.9,87.137931 C89.9,111.279378 70.2065341,130.913793 46,130.913793 Z"></path>
                </g>
                <g id="Path">
                    <use fill="#CADCF2" fill-rule="evenodd" xlink:href="#path-10"></use>
                    <path stroke="#3073D5" stroke-width="4" d="M46.3770492,131 C70.4263751,131 90,111.334903 90,87.1638418 C90,71.6581785 81.8475499,57.5422112 68.8046582,49.6392991 C66.5874009,48.297885 64.2591086,47.158194 61.8435383,46.2285458 C61.3018071,46.0213549 60.9282626,45.8828107 60.5520645,45.7518963 C59.7528984,45.4724986 59.1466196,45.2727897 58.5620549,45.1010518 C57.7633847,44.867411 56.9311957,44.6526276 56.0581347,44.4535048 C55.4818178,44.3212899 54.8748802,44.1975416 54.2074512,44.0744293 C53.1998184,43.8906166 52.3315974,43.7553841 51.4992713,43.6577886 C51.0751598,43.6079531 50.6599745,43.5639164 50.25714,43.5260259 C48.77792,43.3939876 47.5538448,43.3276836 46.3770492,43.3276836 C45.2002535,43.3276836 43.9761784,43.3939876 42.4947191,43.5262245 C42.0829252,43.5625156 41.6731342,43.6059165 41.2543385,43.6578459 C40.4225009,43.7553841 39.5542799,43.8906166 38.5505132,44.0737201 C37.8792182,44.1975416 37.2722806,44.3212899 36.6934788,44.4540732 C35.8229026,44.6526276 34.9907136,44.867411 34.2006467,45.0985141 C33.5901527,45.2800825 32.9516542,45.4898203 32.2025903,45.7517017 C31.8190691,45.885912 31.4192628,46.033987 30.9144565,46.2270509 C28.4949897,47.158194 26.1666975,48.297885 23.9506034,49.6385948 C10.9065484,57.5422112 2.75409836,71.6581785 2.75409836,87.1638418 C2.75409836,111.334903 22.3277233,131 46.3770492,131 Z"></path>
                </g>
                <g id="Combined-Shape">
                    <use fill="#FFFFFF" fill-rule="evenodd" xlink:href="#path-11"></use>
                    <path stroke="#3073D5" stroke-width="3" d="M50.5935888,87.4613732 L50.3107813,87.0686879 L50.3107813,79.7164453 C50.3107813,77.5671246 48.8372678,75.8898305 47.1313164,75.8898305 C45.4253649,75.8898305 43.9518515,77.5671246 43.9518515,79.7164453 L43.9518515,87.0702856 L43.6690052,87.462988 C43.2005695,88.1133617 42.8808663,88.8257764 42.7343975,89.5519558 L41.7676085,94.3452088 C41.2974501,96.6762118 42.7382897,98.4378531 45.1063405,98.4378531 L49.1562922,98.4378531 C51.5196811,98.4378531 52.9638247,96.6694791 52.4950243,94.3452088 L51.5282353,89.5519558 C51.3814258,88.8240878 51.0617691,88.1114529 50.5935888,87.4613732 Z"></path>
                </g>
            </g>
        </g>
    </g>
</svg>