<?xml version="1.0" encoding="UTF-8"?>
<svg width="354px" height="234px" viewBox="0 0 354 234" version="1.1" xmlns="http://www.w3.org/2000/svg" xmlns:xlink="http://www.w3.org/1999/xlink">
    <!-- Generator: Sketch 46.2 (44496) - http://www.bohemiancoding.com/sketch -->
    <title>500</title>
    <desc>Created with Sketch.</desc>
    <defs></defs>
    <g id="Page-1" stroke="none" stroke-width="1" fill="none" fill-rule="evenodd">
        <g id="500" transform="translate(0.000000, 2.000000)">
            <g id="ufo-copy" transform="translate(52.000000, 0.000000)">
                <g id="Group">
                    <g>
                        <g>
                            <path d="M116,204.933484 C113.68,204.933484 112.133484,206.48 112.133484,208.8 C112.133484,211.12 113.68,212.666516 116,212.666516 C118.32,212.666516 119.866516,211.12 119.866516,208.8 C119.866516,206.48 118.32,204.933484 116,204.933484 Z" id="Shape" fill="#3073D5"></path>
                            <path d="M116,185.6 C113.68,185.6 112.133484,187.146516 112.133484,189.466516 L112.133484,193.333031 C112.133484,195.653031 113.68,197.199547 116,197.199547 C118.32,197.199547 119.866516,195.653031 119.866516,193.333031 L119.866516,189.466516 C119.866516,187.146516 118.32,185.6 116,185.6 Z" id="Shape" fill="#3073D5"></path>
                            <path d="M116,220.4 C113.68,220.4 112.133484,221.946516 112.133484,224.266516 L112.133484,228.133031 C112.133484,230.453031 113.68,231.999547 116,231.999547 C118.32,231.999547 119.866516,230.453031 119.866516,228.133031 L119.866516,224.266516 C119.866516,221.946516 118.32,220.4 116,220.4 Z" id="Shape" fill="#3073D5"></path>
                            <path d="M139.2,181.733484 C136.88,181.733484 135.333484,183.28 135.333484,185.6 L135.333484,193.333484 C135.333484,195.653484 136.88,197.2 139.2,197.2 C141.52,197.2 143.066516,195.653484 143.066516,193.333484 L143.066516,185.6 C143.066516,183.28 141.52,181.733484 139.2,181.733484 Z" id="Shape" fill="#3073D5"></path>
                            <path d="M139.2,204.933484 C136.88,204.933484 135.333484,206.48 135.333484,208.8 L135.333484,220.4 C135.333484,222.72 136.88,224.266516 139.2,224.266516 C141.52,224.266516 143.066516,222.72 143.066516,220.4 L143.066516,208.8 C143.066516,206.48 141.52,204.933484 139.2,204.933484 Z" id="Shape" fill="#3073D5"></path>
                            <path d="M92.8,208.8 C90.48,208.8 88.9334844,210.346516 88.9334844,212.666516 L88.9334844,224.266516 C88.9334844,226.586516 90.48,228.133031 92.8,228.133031 C95.12,228.133031 96.6665156,226.586516 96.6665156,224.266516 L96.6665156,212.666516 C96.6665156,210.346516 95.12,208.8 92.8,208.8 Z" id="Shape" fill="#3073D5"></path>
                            <path d="M92.8,181.733484 C90.48,181.733484 88.9334844,183.28 88.9334844,185.6 L88.9334844,197.2 C88.9334844,199.52 90.48,201.066516 92.8,201.066516 C95.12,201.066516 96.6665156,199.52 96.6665156,197.2 L96.6665156,185.6 C96.6665156,183.28 95.12,181.733484 92.8,181.733484 Z" id="Shape" fill="#3073D5"></path>
                            <path d="M232,112.133484 C232,94.173875 195.524344,85.2486719 176.903172,82.0618438 C172.046578,55.5100781 149.287922,36.44575 119.866516,34.905125 L119.866516,23.2 L123.733031,23.2 L127.599547,19.3334844 L127.599547,3.86651563 L123.733484,0 L108.266969,0 L104.4,3.86651563 L104.4,19.3330313 L108.266516,23.1995469 L112.133031,23.1995469 L112.133031,34.9042188 C82.6907812,36.44575 59.9203437,55.5363594 55.0855,82.1175781 C36.4616094,85.5989375 0,94.1775 0,112.133484 C0,121.684906 10.8754531,129.411141 27.6886562,135.135922 C39.907625,160.686281 75.3388281,177.866516 116,177.866516 C156.430984,177.866516 191.688187,160.879313 204.098828,135.207516 C221.032109,129.475484 232,121.724781 232,112.133484 Z M112.133484,7.73348437 L119.866969,7.73348437 L119.866969,15.4669687 L112.133484,15.4669687 L112.133484,7.73348437 L112.133484,7.73348437 Z" id="Shape" stroke="#3073D5" stroke-width="3" fill="#CADCF2"></path>
                            <path d="M165.229268,144.858537 C165.018315,144.901686 164.770006,144.925096 164.539899,144.957821 C164.031566,145.031036 163.519898,145.102587 163.006325,145.173583 C148.809215,147.116002 131.842891,148.253659 115.999773,148.253659 C106.414342,148.253659 96.5641132,148.406463 88.2731707,147.121951 C7.92195122,134.673171 2.16872809,123.36022 2.16872809,111.569818 C2.16872809,103.52337 13.5804878,90.5365854 54.3219512,83.7463415 C54.3219512,84.6931456 62.2439024,84.5898272 62.2439024,86.0097561 L73.5609756,89.404878 L83.7463415,92.0605962 C100.721951,93.9317073 123.356098,97.3268293 147.121951,92.0605962 L160.702439,89.404878 L169.756098,87.1414634 C169.756098,85.7215345 176.546341,84.2194662 176.546341,83.7463415 C217.287805,89.404878 229.830819,103.523924 229.830819,111.570373 C229.830819,121.847108 215.02439,134.673171 165.229268,144.858537 Z" id="Path" fill="#FFFFFF"></path>
                            <path d="M26.0292683,135.804878 C49.2264141,141.819121 73.5609756,149.385366 116,149.385366 C158.439024,149.385366 181.641879,141.819121 204.839024,135.804878 L201.915523,136.822806" id="Path" stroke="#3073D5" stroke-width="3"></path>
                            <path d="M176.546341,82.3403968 L163.636512,86.4069047 C133.014901,96.1886857 99.3744418,96.1886857 68.7533356,86.4069047 L55.8435063,82.3403968" id="Path" stroke="#3073D5" stroke-width="3"></path>
                            <g id="Group-2" transform="translate(46.400000, 107.512195)" fill="#3073D5">
                                <path d="M69.6,12.3543205 C67.28,12.3543205 65.7334844,13.9008361 65.7334844,16.2208361 C65.7334844,18.5408361 67.28,20.0873518 69.6,20.0873518 C71.92,20.0873518 73.4665156,18.5408361 73.4665156,16.2208361 C73.4665156,13.9012893 71.92,12.3543205 69.6,12.3543205 Z" id="Shape"></path>
                                <path d="M104.4,8.48780488 C102.08,8.48780488 100.533484,10.0343205 100.533484,12.3543205 C100.533484,14.6743205 102.08,16.2208361 104.4,16.2208361 C106.72,16.2208361 108.266516,14.6743205 108.266516,12.3543205 C108.266516,10.0343205 106.72,8.48780488 104.4,8.48780488 Z" id="Shape"></path>
                                <path d="M135.333484,0.754320503 C133.013484,0.754320503 131.466969,2.30083613 131.466969,4.62083613 C131.466969,6.94083613 133.013484,8.48735175 135.333484,8.48735175 C137.653484,8.48735175 139.2,6.94083613 139.2,4.62083613 C139.2,2.30083613 137.653484,0.754320503 135.333484,0.754320503 Z" id="Shape"></path>
                                <path d="M3.86651563,0.754320503 C1.54651562,0.754320503 0,2.30083613 0,4.62083613 C0,6.94083613 1.54651562,8.48735175 3.86651563,8.48735175 C6.18651563,8.48735175 7.73303125,6.94083613 7.73303125,4.62083613 C7.73303125,2.30083613 6.18651562,0.754320503 3.86651563,0.754320503 Z" id="Shape"></path>
                                <path d="M34.8,8.48780488 C32.48,8.48780488 30.9334844,10.0343205 30.9334844,12.3543205 C30.9334844,14.6743205 32.48,16.2208361 34.8,16.2208361 C37.12,16.2208361 38.6665156,14.6743205 38.6665156,12.3543205 C38.6665156,10.0343205 37.12,8.48780488 34.8,8.48780488 Z" id="Shape"></path>
                            </g>
                        </g>
                    </g>
                </g>
            </g>
            <g id="Group-8-Copy-2" transform="translate(0.000000, 31.000000)" stroke="#266CD3" stroke-width="2.77778">
                <path d="M14.4444444,0 L14.4444444,28.9321219" id="Shape"></path>
                <path d="M28.9321219,14.4444444 L0,14.4444444" id="Shape"></path>
            </g>
            <g id="Group-8-Copy-3" transform="translate(260.000000, 166.000000)" stroke="#266CD3" stroke-width="2.77778">
                <path d="M14.4444444,0 L14.4444444,28.9321219" id="Shape"></path>
                <path d="M28.9321219,14.4444444 L0,14.4444444" id="Shape"></path>
            </g>
            <g id="Group-7-Copy" transform="translate(83.000000, 56.000000)" stroke="#266CD3" stroke-width="2.77778">
                <path d="M9,0 L9,17.537514" id="Shape"></path>
                <path d="M17.537514,9 L0,9" id="Shape"></path>
            </g>
            <g id="Group-7-Copy-7" transform="translate(52.000000, 157.000000)" stroke="#266CD3" stroke-width="2.77778">
                <path d="M9,0 L9,17.537514" id="Shape"></path>
                <path d="M17.537514,9 L0,9" id="Shape"></path>
            </g>
            <g id="Group-7-Copy-4" transform="translate(282.000000, 56.000000)" stroke="#266CD3" stroke-width="2.77778">
                <path d="M9,0 L9,17.537514" id="Shape"></path>
                <path d="M17.537514,9 L0,9" id="Shape"></path>
            </g>
            <g id="Group-7-Copy-8" transform="translate(333.000000, 86.000000)" stroke="#266CD3" stroke-width="2.77778">
                <path d="M11,0 L11,21" id="Shape"></path>
                <path d="M21,11 L0,11" id="Shape"></path>
            </g>
        </g>
    </g>
</svg>