<?xml version="1.0" encoding="UTF-8"?>
<svg width="65px" height="58px" viewBox="0 0 65 58" version="1.1" xmlns="http://www.w3.org/2000/svg" xmlns:xlink="http://www.w3.org/1999/xlink">
    <!-- Generator: Sketch 47.1 (45422) - http://www.bohemiancoding.com/sketch -->
    <title>credit-cards-payment</title>
    <desc>Created with Sketch.</desc>
    <defs>
        <polygon id="path-1" points="0.00795918367 0.0763427506 0.00795918367 57.7195084 64.9464084 57.7195084 64.9464084 0.0763427506"></polygon>
    </defs>
    <g id="Page-1" stroke="none" stroke-width="1" fill="none" fill-rule="evenodd" opacity="0.08">
        <g id="仪表盘-核心指标-效果2" transform="translate(-380.000000, -259.000000)">
            <g id="Group-6" transform="translate(226.000000, 159.000000)">
                <g id="card-1-copy-5" transform="translate(0.000000, 100.000000)">
                    <g id="credit-cards-payment" transform="translate(154.000000, 0.000000)">
                        <g id="Group-4">
                            <mask id="mask-2" fill="white">
                                <use xlink:href="#path-1"></use>
                            </mask>
                            <g id="Clip-2"></g>
                            <path d="M62.4665918,8.52532072 L22.6904388,0.143836555 C21.0073367,-0.211198027 19.3393571,0.870283802 18.9833163,2.54547115 L18.2273265,7.38096819 L64.1232959,17.0518302 L64.8787551,12.2163331 C65.2347959,10.5411458 64.1496939,8.87982698 62.4665918,8.52532072 Z" id="Fill-1" fill="#000000" mask="url(#mask-2)"></path>
                            <path d="M45.7399694,18.0769133 C45.2751531,16.4109716 43.5267857,15.4265696 41.8541633,15.8883259 L34.3032857,17.9753428 L16.5017755,14.2243654 L14.5442143,23.4345278 L2.31214286,26.815017 C0.639387755,27.2773016 -0.34927551,29.0180013 0.114479592,30.6835467 L7.00779592,55.4172263 C7.47261224,57.0827718 9.22097959,58.0677021 10.893602,57.6054175 L50.4356224,46.6792547 C52.1082449,46.2164418 53.0970408,44.4761383 52.6331531,42.8101967 L51.4501531,38.5645748 L55.8847449,39.4978614 C57.5678469,39.852896 59.2358265,38.7719425 59.5917347,37.0960947 L62.3977449,23.8946991 L46.423398,20.5292671 L45.7399694,18.0769133 Z M50.3060204,30.6478848 L51.2843367,26.0456433 C51.431051,25.3569713 52.1171327,24.9121215 52.809449,25.0576751 L57.430949,26.0323031 C58.1237959,26.178253 58.5699082,26.8608492 58.4238571,27.55071 L57.4460714,32.1524231 C57.2993571,32.8416234 56.6127449,33.2864733 55.9210918,33.1403913 L51.2994592,32.1668199 C50.6060816,32.0203417 50.1594388,31.3366888 50.3060204,30.6478848 Z M3.00021429,29.2832206 L13.9430306,26.2608038 L39.7622245,19.1264314 L42.5406429,18.3581144 C42.591449,18.3442459 42.6422551,18.3380381 42.6914694,18.3380381 C42.9143265,18.3380381 43.1812245,18.4834596 43.2588265,18.7621512 L44.6072449,23.5991011 L3.94231633,34.8347305 L2.59403061,29.9988372 C2.50953061,29.6954464 2.6955102,29.3673564 3.00021429,29.2832206 Z M50.1537347,43.4949062 C50.205602,43.6827258 50.1510816,43.8373931 50.0957653,43.9350012 C50.0412449,44.0319488 49.936051,44.158879 49.747551,44.2105228 L10.2060612,55.1365535 C10.1561837,55.1500258 10.1049796,55.1572903 10.0552347,55.1572903 C9.83237755,55.1572903 9.5660102,55.01068 9.48827551,54.7321205 L5.46729592,40.3052745 L46.1322245,29.0685885 L48.6121735,37.9665106 L50.1537347,43.4949062 Z" id="Fill-3" fill="#000000" mask="url(#mask-2)"></path>
                        </g>
                        <path d="M16.7455455,44.88999 C16.56644,44.2461808 15.894231,43.8655317 15.2498271,44.0440197 L10.8896742,45.2546065 C10.2462723,45.4330944 9.86514095,46.1063385 10.0442464,46.750273 L11.2541475,51.1102644 C11.4332529,51.7545746 12.105963,52.1347227 12.7497406,51.9557337 L17.1100188,50.7456479 C17.7542974,50.5671599 18.1344268,49.8944169 17.9559476,49.2499813 L16.7455455,44.88999 Z" id="Fill-5" fill="#000000"></path>
                    </g>
                </g>
            </g>
        </g>
    </g>
</svg>