<?xml version="1.0" encoding="UTF-8"?>
<svg width="13px" height="14px" viewBox="0 0 13 14" version="1.1" xmlns="http://www.w3.org/2000/svg" xmlns:xlink="http://www.w3.org/1999/xlink">
    <!-- Generator: Sketch 47.1 (45422) - http://www.bohemiancoding.com/sketch -->
    <title>calendar icon</title>
    <desc>Created with Sketch.</desc>
    <defs></defs>
    <g id="Page-1" stroke="none" stroke-width="1" fill="none" fill-rule="evenodd">
        <g id="仪表盘-核心指标-效果2" transform="translate(-345.000000, -218.000000)" fill="#3BAFDA">
            <g id="Group-6" transform="translate(226.000000, 159.000000)">
                <g id="Group-4" transform="translate(0.000000, 52.000000)">
                    <g id="calendar-input">
                        <path d="M121.557377,14.7540615 L122.409836,14.7540615 L122.409836,13.8925231 L121.557377,13.8925231 L121.557377,14.7540615 Z M120.705131,15.6153846 L123.262508,15.6153846 L123.262508,13.0312 L120.705131,13.0312 L120.705131,15.6153846 Z M121.557377,18.2004308 L122.409836,18.2004308 L122.409836,17.3384615 L121.557377,17.3384615 L121.557377,18.2004308 Z M120.705131,19.0617538 L123.262508,19.0617538 L123.262508,16.4769231 L120.705131,16.4769231 L120.705131,19.0617538 Z M124.967213,14.7540615 L125.819672,14.7540615 L125.819672,13.8925231 L124.967213,13.8925231 L124.967213,14.7540615 Z M124.114754,15.6153846 L126.672131,15.6153846 L126.672131,13.0312 L124.114754,13.0312 L124.114754,15.6153846 Z M124.967213,18.2004308 L125.819672,18.2004308 L125.819672,17.3384615 L124.967213,17.3384615 L124.967213,18.2004308 Z M124.114754,19.0617538 L126.672131,19.0617538 L126.672131,16.4769231 L124.114754,16.4769231 L124.114754,19.0617538 Z M128.377049,14.7540615 L129.229508,14.7540615 L129.229508,13.8925231 L128.377049,13.8925231 L128.377049,14.7540615 Z M127.52459,15.6153846 L130.081967,15.6153846 L130.081967,13.0312 L127.52459,13.0312 L127.52459,15.6153846 Z M128.377049,18.2004308 L129.229508,18.2004308 L129.229508,17.3384615 L128.377049,17.3384615 L128.377049,18.2004308 Z M127.52459,19.0617538 L130.081967,19.0617538 L130.081967,16.4769231 L127.52459,16.4769231 L127.52459,19.0617538 Z M130.934426,11.3081231 L119.852459,11.3081231 L119.852459,19.4925231 C119.852459,19.7305231 120.04341,19.9232923 120.278902,19.9232923 L130.508197,19.9232923 C130.743689,19.9232923 130.934426,19.7305231 130.934426,19.4925231 L130.934426,11.3081231 Z M130.934426,9.15427692 C130.934426,8.91606154 130.743689,8.72329231 130.508197,8.72329231 L128.377049,8.72329231 L128.377049,9.58526154 L127.52459,9.58526154 L127.52459,8.72329231 L123.262295,8.72329231 L123.262295,9.58526154 L122.409836,9.58526154 L122.409836,8.72329231 L120.278902,8.72329231 C120.04341,8.72329231 119.852459,8.91606154 119.852459,9.15427692 L119.852459,10.4465846 L130.934426,10.4465846 L130.934426,9.15427692 Z M130.934426,20.7848308 L119.852459,20.7848308 C119.381689,20.7848308 119,20.3992923 119,19.9232923 L119,11.3081231 L119,10.4465846 L119,8.72329231 C119,8.24750769 119.381689,7.86175385 119.852459,7.86175385 L122.409836,7.86175385 L122.409836,7 L123.262295,7 L123.262295,7.86175385 L127.52459,7.86175385 L127.52459,7 L128.377049,7 L128.377049,7.86175385 L131.360656,7.86175385 C131.831426,7.86175385 131.786885,8.24750769 131.786885,8.72329231 L131.786885,10.4465846 L131.786885,11.3081231 L131.786885,19.9232923 C131.786885,20.3992923 131.405197,20.7848308 130.934426,20.7848308 L130.934426,20.7848308 Z" id="calendar-icon"></path>
                    </g>
                </g>
            </g>
        </g>
    </g>
</svg>