<?xml version="1.0" encoding="UTF-8"?>
<svg width="122px" height="120px" viewBox="0 0 122 120" version="1.1" xmlns="http://www.w3.org/2000/svg" xmlns:xlink="http://www.w3.org/1999/xlink">
    <!-- Generator: Sketch 47.1 (45422) - http://www.bohemiancoding.com/sketch -->
    <title>career copy</title>
    <desc>Created with Sketch.</desc>
    <defs>
        <rect id="path-1" x="0" y="0" width="122" height="120"></rect>
    </defs>
    <g id="Page-1" stroke="none" stroke-width="1" fill="none" fill-rule="evenodd">
        <g id="career-copy">
            <mask id="mask-2" fill="white">
                <use xlink:href="#path-1"></use>
            </mask>
            <use id="Mask" fill="#FFFFFF" xlink:href="#path-1"></use>
            <g opacity="0.05" mask="url(#mask-2)">
                <path d="M111.847222,129.189306 L18.2219444,129.189306 C8.26430556,129.189306 0.166388889,121.087778 0.166388889,111.13375 L0.166388889,39.8720833 C0.166388889,29.91625 8.26430556,21.8165278 18.2219444,21.8165278 L111.847222,21.8165278 C121.803056,21.8165278 129.900972,29.91625 129.900972,39.8720833 L129.900972,111.13375 C129.900972,121.087778 121.803056,129.189306 111.847222,129.189306 L111.847222,129.189306 Z M18.2219444,29.03875 C12.2473611,29.03875 7.38861111,33.8975 7.38861111,39.8720833 L7.38861111,111.13375 C7.38861111,117.106528 12.2473611,121.967083 18.2219444,121.967083 L111.847222,121.967083 C117.82,121.967083 122.680556,117.106528 122.680556,111.13375 L122.680556,39.8720833 C122.680556,33.8975 117.82,29.03875 111.847222,29.03875 L18.2219444,29.03875 L18.2219444,29.03875 Z" id="Fill-2" fill="#231F20"></path>
                <path d="M95.9781944,29.03875 C93.9848611,29.03875 92.3670833,27.4209722 92.3670833,25.4276389 L92.3670833,17.2755556 C92.3670833,12.1947222 88.1709722,8.06180556 83.0106944,8.06180556 L47.0566667,8.06180556 C41.8963889,8.06180556 37.7002778,12.1947222 37.7002778,17.2755556 L37.7002778,25.4276389 C37.7002778,27.4209722 36.0825,29.03875 34.0891667,29.03875 C32.0940278,29.03875 30.4780556,27.4209722 30.4780556,25.4276389 L30.4780556,17.2755556 C30.4780556,8.21347222 37.9151389,0.839583333 47.0566667,0.839583333 L83.0106944,0.839583333 C92.1522222,0.839583333 99.5893056,8.21347222 99.5893056,17.2755556 L99.5893056,25.4276389 C99.5893056,27.4209722 97.9733333,29.03875 95.9781944,29.03875" id="Fill-3" fill="#231F20"></path>
                <path d="M3.77569444,52.14625 L126.291667,52.14625" id="Fill-4" fill="#1C75BC"></path>
                <path d="M126.289861,55.7573611 L3.7775,55.7573611 C1.78236111,55.7573611 0.166388889,54.1395833 0.166388889,52.14625 C0.166388889,50.1511111 1.78236111,48.5351389 3.7775,48.5351389 L126.289861,48.5351389 C128.285,48.5351389 129.900972,50.1511111 129.900972,52.14625 C129.900972,54.1395833 128.285,55.7573611 126.289861,55.7573611" id="Fill-5" fill="#231F20"></path>
                <path d="M34.1758333,83.33 C26.5780556,83.33 20.3976389,77.4420833 20.3976389,70.2018056 L20.3976389,55.8891667 C20.3976389,53.8958333 22.0154167,52.2780556 24.00875,52.2780556 C26.0038889,52.2780556 27.6198611,53.8958333 27.6198611,55.8891667 L27.6198611,70.2018056 C27.6198611,73.4590278 30.5593056,76.1077778 34.1740278,76.1077778 C37.78875,76.1077778 40.73,73.4590278 40.73,70.2018056 L40.73,55.8891667 C40.73,53.8958333 42.3477778,52.2780556 44.3411111,52.2780556 C46.33625,52.2780556 47.9522222,53.8958333 47.9522222,55.8891667 L47.9522222,70.2018056 C47.9522222,77.4420833 41.7718056,83.33 34.1758333,83.33" id="Fill-7" fill="#231F20"></path>
                <path d="M99.5026389,83.33 C91.9066667,83.33 85.72625,77.4420833 85.72625,70.2018056 L85.72625,55.8891667 C85.72625,53.8958333 87.3422222,52.2780556 89.3373611,52.2780556 C91.3306944,52.2780556 92.9484722,53.8958333 92.9484722,55.8891667 L92.9484722,70.2018056 C92.9484722,73.4590278 95.8879167,76.1077778 99.5026389,76.1077778 C103.117361,76.1077778 106.058611,73.4590278 106.058611,70.2018056 L106.058611,55.8891667 C106.058611,53.8958333 107.674583,52.2780556 109.669722,52.2780556 C111.663056,52.2780556 113.280833,53.8958333 113.280833,55.8891667 L113.280833,70.2018056 C113.280833,77.4420833 107.100417,83.33 99.5026389,83.33" id="Fill-9" fill="#231F20"></path>
            </g>
        </g>
    </g>
</svg>