<?xml version="1.0" encoding="UTF-8"?>
<svg width="43px" height="60px" viewBox="0 0 43 60" version="1.1" xmlns="http://www.w3.org/2000/svg" xmlns:xlink="http://www.w3.org/1999/xlink">
    <!-- Generator: Sketch 47.1 (45422) - http://www.bohemiancoding.com/sketch -->
    <title>man</title>
    <desc>Created with Sketch.</desc>
    <defs></defs>
    <g id="Page-1" stroke="none" stroke-width="1" fill="none" fill-rule="evenodd" opacity="0.08">
        <g id="仪表盘-核心指标-效果2" transform="translate(-1363.000000, -259.000000)" fill="#0A0B09">
            <g id="Group-6" transform="translate(226.000000, 159.000000)">
                <g id="card-1-copy-9" transform="translate(960.000000, 100.000000)">
                    <g id="BG">
                        <g id="man" transform="translate(177.000000, 0.000000)">
                            <path d="M41.121362,58.0945312 L35.737104,58.0945312 L35.737104,51.0240234 C35.737104,50.4977344 35.3167531,50.0714062 34.7978428,50.0714062 C34.279048,50.0714062 33.8585816,50.4977344 33.8585816,51.0240234 L33.8585816,58.0945312 L26.4113921,58.0945312 L31.2261313,40.6610156 L35.479902,42.4589062 C35.498158,42.4666406 35.5201115,42.4749609 35.5388297,42.4815234 C35.5451846,42.48375 36.1730534,42.7059375 36.9946903,43.2465234 C36.9948059,43.2466406 36.9949214,43.2466406 36.995037,43.2467578 C38.8776034,44.4861328 41.121362,46.9019531 41.121362,51.3730078 L41.121362,58.0945312 Z M19.1814264,58.0945312 L20.5150409,49.7109375 L22.7203232,49.7109375 L24.0538222,58.0945312 L19.1814264,58.0945312 Z M16.2866901,38.0201953 L16.2866901,38.1643359 C16.2866901,38.2652344 16.3025197,38.3623828 16.3310592,38.4535547 C16.2278779,38.7857812 16.3077192,39.163125 16.5704674,39.4228125 L20.1461074,42.9549609 L16.6094059,45.5949609 L13.7804144,39.6975 L16.2866901,38.0201953 Z M20.6551964,35.2525781 L22.5807455,35.2525781 C23.4408587,35.2525781 24.2749744,35.1389063 25.0704983,34.9271484 L25.0704983,38.0241797 L21.5737752,41.705625 L18.150885,38.3241797 C18.1595508,38.2721484 18.1652125,38.2189453 18.1652125,38.1643359 L18.1652125,36.2602734 C18.1652125,36.2598047 18.1652125,36.2593359 18.1652125,36.2588672 L18.1652125,34.9270313 C18.9606208,35.1389063 19.7949676,35.2525781 20.6551964,35.2525781 Z M12.7182138,25.2979687 L12.7182138,18.5503125 C15.1195751,18.4007812 21.4999422,17.5903125 25.6039672,13.2331641 C26.3119083,14.9224219 27.7779369,17.3889844 30.5170348,18.3473437 L30.5170348,25.2979687 C30.5170348,29.7363281 26.9568777,33.3473437 22.5807455,33.3473437 L20.6551964,33.3473437 C16.2787175,33.3473437 12.7182138,29.7363281 12.7182138,25.2979687 Z M8.70396694,22.1282812 C8.70396694,20.8367578 9.62774519,19.7620312 10.8396914,19.5425391 L10.8396914,24.7135547 C9.62774519,24.4940625 8.70396694,23.4196875 8.70396694,22.1282812 Z M21.1411766,1.90523437 L22.1541552,1.90523437 C28.3342837,1.90523437 33.3619714,7.00453125 33.3619714,13.2723047 L33.3619714,17.8306641 C33.0530054,17.7251953 32.7297119,17.6518359 32.3949795,17.6173828 C32.3949795,17.6133984 32.3944017,17.6094141 32.3942862,17.6055469 C32.393824,17.5845703 32.3930152,17.5635938 32.3911665,17.5428516 C32.390011,17.5303125 32.3880468,17.5180078 32.3864292,17.5055859 C32.3840027,17.4874219 32.3816918,17.4692578 32.3782255,17.4512109 C32.3753369,17.4360938 32.371755,17.4213281 32.3681731,17.4064453 C32.3645913,17.3917969 32.3612405,17.3770313 32.3569653,17.3625 C32.3521124,17.345625 32.3463352,17.3291016 32.340558,17.3125781 C32.3362829,17.3005078 32.3323543,17.2884375 32.3275015,17.2767188 C32.3206843,17.2592578 32.3129429,17.2422656 32.3049703,17.2253906 C32.3000019,17.2147266 32.2952646,17.2040625 32.289834,17.1936328 C32.2813992,17.1771094 32.2721557,17.1610547 32.2627966,17.1451172 C32.2566727,17.1345703 32.2505488,17.1239063 32.2440783,17.1135938 C32.2346037,17.0989453 32.2247824,17.0848828 32.2146145,17.0708203 C32.2067575,17.0596875 32.1987849,17.0486719 32.1904657,17.0380078 C32.1806444,17.0257031 32.1704765,17.0138672 32.160193,17.0019141 C32.1502562,16.9904297 32.1403194,16.9789453 32.1298048,16.9679297 C32.1200991,16.9576172 32.1098156,16.9480078 32.0996477,16.9381641 C32.0877466,16.9267969 32.07573,16.9154297 32.0631357,16.9046484 C32.0529677,16.8958594 32.0422221,16.8875391 32.031592,16.8791016 C32.0183044,16.8686719 32.0052479,16.8582422 31.9913825,16.8486328 C31.9799436,16.8405469 31.9680425,16.8330469 31.9561415,16.8254297 C31.9426228,16.8167578 31.929104,16.8080859 31.9150076,16.8001172 C31.9012578,16.7922656 31.8868148,16.7851172 31.8727183,16.7779688 C31.8598929,16.7716406 31.8474141,16.7650781 31.834242,16.7592188 C31.8173725,16.7516016 31.7999253,16.7451563 31.7823625,16.7384766 C31.7711547,16.734375 31.760178,16.7298047 31.7486235,16.7259375 C31.7292121,16.7194922 31.709454,16.7142188 31.6894648,16.7090625 C31.6811456,16.7069531 31.6729419,16.7037891 31.6643916,16.7019141 C27.9888056,15.8539453 26.8795785,11.1582422 26.8691794,11.1127734 C26.7878361,10.7477344 26.5029034,10.4648438 26.1413647,10.3898438 C25.7798259,10.3146094 25.4084659,10.4614453 25.1920511,10.7648438 C21.0145398,16.6219922 11.9322802,16.6783594 11.7838055,16.6783594 C11.7833433,16.6783594 11.7829967,16.6783594 11.7827656,16.6783594 C11.7813791,16.6783594 11.7799925,16.6783594 11.7787215,16.6783594 C11.7463691,16.6783594 11.7144788,16.68 11.6829352,16.6832813 C11.6729983,16.6843359 11.6635237,16.6864453 11.6535869,16.6878516 C11.6322111,16.6907813 11.6107198,16.6934766 11.5898063,16.6976953 C11.5762876,16.7005078 11.5634621,16.7047266 11.5501745,16.7080078 C11.5334206,16.7123438 11.5164355,16.7158594 11.5000282,16.7211328 C11.4847763,16.7259375 11.4701022,16.7321484 11.4551969,16.7376563 C11.4414472,16.7426953 11.4274663,16.7471484 11.4140631,16.7528906 C11.396847,16.7602734 11.3805552,16.7688281 11.3639168,16.7772656 C11.3534022,16.7825391 11.3424255,16.7871094 11.3320265,16.7928516 C11.3158503,16.8017578 11.3004829,16.8120703 11.2847688,16.8217969 C11.274832,16.8282422 11.264433,16.83375 11.2546117,16.8405469 C11.2397065,16.850625 11.2258411,16.8621094 11.2115136,16.8730078 C11.2019234,16.8805078 11.1917555,16.8874219 11.1823964,16.8951563 C11.1694554,16.9058203 11.1576699,16.9176563 11.1454222,16.9290234 C11.1354853,16.9381641 11.1250863,16.9469531 11.1156117,16.9564453 C11.1042883,16.9679297 11.0940049,16.9803516 11.0832592,16.9924219 C11.0739001,17.0029688 11.0639633,17.0130469 11.0551819,17.0239453 C11.0452451,17.0360156 11.0364637,17.0489063 11.0272201,17.0615625 C11.0184388,17.0733984 11.0091952,17.0848828 11.000876,17.0971875 C10.9927879,17.109375 10.9857397,17.1223828 10.9781137,17.1349219 C10.9699101,17.1485156 10.9612442,17.1616406 10.9537338,17.1755859 C10.9470323,17.1880078 10.9414861,17.2011328 10.9353623,17.2137891 C10.9281985,17.2287891 10.920457,17.2434375 10.9141021,17.2587891 C10.9089026,17.2712109 10.9048585,17.2843359 10.9002367,17.2969922 C10.8942284,17.3133984 10.8876424,17.3293359 10.8824429,17.3460938 C10.8783988,17.3589844 10.8756258,17.3724609 10.872275,17.3854688 C10.8677687,17.4026953 10.8628003,17.4196875 10.8591029,17.4372656 C10.8562143,17.4510938 10.8548277,17.4653906 10.8526324,17.4793359 C10.8498593,17.4966797 10.8466241,17.5137891 10.8447754,17.5314844 C10.8432733,17.54625 10.8430422,17.5613672 10.8423489,17.5761328 C10.8415401,17.5897266 10.8403847,17.6032031 10.840038,17.6170313 C10.5273746,17.649375 10.2245325,17.715 9.93416919,17.8094531 L9.93416919,13.2720703 C9.93416919,7.00453125 14.9616258,1.90523437 21.1411766,1.90523437 Z M32.3955572,24.7135547 L32.3955572,19.5425391 C33.6075034,19.7620312 34.5312817,20.8367578 34.5312817,22.1282812 C34.5311661,23.4196875 33.6073879,24.4940625 32.3955572,24.7135547 Z M29.3143321,39.6975 L26.4852251,45.5949609 L22.9757921,42.9753516 L26.6859259,39.0692578 C26.8919417,38.8524609 26.9757115,38.5624219 26.9403549,38.2853906 C26.9453233,38.2456641 26.9486741,38.2053516 26.9486741,38.1643359 L26.9486741,38.1144141 L29.3143321,39.6975 Z M24.4872296,48.8564062 L25.1798034,46.9858594 L26.2800181,47.8071094 C26.4429358,47.9288672 26.638206,47.9926172 26.8365959,47.9926172 C26.9118154,47.9926172 26.9871504,47.9834766 27.061561,47.9648437 C27.1395536,47.9453906 27.213271,47.9150391 27.2825977,47.8769531 L25.409968,54.6570703 L24.4872296,48.8564062 Z M20.3402221,47.8057031 L19.5098038,45.7953516 L21.547431,44.274375 L23.6077049,45.8122266 L22.8697222,47.8055859 L20.3402221,47.8055859 L20.3402221,47.8057031 Z M17.9530728,46.9573828 L18.7452459,48.8755078 L17.8312889,54.6205078 L15.9892785,47.9511328 C16.0039527,47.9555859 16.0181647,47.9610937 16.0330699,47.9647266 C16.1074806,47.9833594 16.1828156,47.9925 16.258035,47.9925 C16.4564249,47.9925 16.6519262,47.92875 16.8146129,47.8069922 L17.9530728,46.9573828 Z M38.0178368,41.6486719 C38.0176058,41.6485547 38.0173747,41.6483203 38.0171436,41.6482031 C37.0956762,41.041875 36.3541116,40.7542969 36.1785995,40.6901953 L30.8312002,38.4301172 L27.0609833,35.9069531 C27.0247023,35.8825781 26.9870348,35.8621875 26.9486741,35.8436719 L26.9486741,34.2087891 C29.7954594,32.7672656 31.8578131,29.9644922 32.3028905,26.6458594 C34.5981819,26.4574219 36.4094575,24.5041406 36.4094575,22.1283984 C36.4094575,20.9528906 35.9659977,19.8807422 35.2401471,19.0742578 L35.2401471,13.2725391 C35.2404938,5.95394531 29.369909,0 22.1540396,0 L21.141061,0 C13.9257694,0 8.05564677,5.95394531 8.05564677,13.2723047 L8.05564677,19.0092187 C7.29432408,19.8226172 6.82556005,20.9206641 6.82556005,22.1281641 C6.82556005,24.5037891 8.63672004,26.4571875 10.932127,26.645625 C11.37732,29.9642578 13.4397892,32.7670312 16.2866901,34.2085547 L16.2866901,35.7375 L12.3569062,38.3674219 C12.3036402,38.379375 12.2506053,38.3953125 12.1984947,38.4173437 L6.82174709,40.6898437 C6.55287504,40.7875781 4.97280405,41.4032812 3.40405642,42.9058594 C1.85113838,44.3932031 0,47.0692969 0,51.3726562 L0,59.0466797 C0,59.5728516 0.420350879,59.9995312 0.939261214,59.9995312 L12.034306,59.9995312 C12.5531008,59.9995312 12.9735672,59.5730859 12.9735672,59.0469141 C12.9735672,58.520625 12.5531008,58.0942969 12.034306,58.0942969 L9.14095622,58.0942969 L9.14095622,51.0237891 C9.14095622,50.4975 8.7204898,50.0711719 8.20169501,50.0711719 C7.68290022,50.0711719 7.2624338,50.4975 7.2624338,51.0237891 L7.2624338,58.0942969 L1.87863797,58.0942969 L1.87863797,51.3728906 C1.87863797,44.5101562 7.23320104,42.5610937 7.45781954,42.4826953 C7.47884864,42.4754297 7.4995311,42.4676953 7.51998248,42.4590234 L11.9987183,40.5659766 L16.8400327,58.0945312 L14.973758,58.0945312 C14.4549632,58.0945312 14.0344967,58.5209766 14.0344967,59.0471484 C14.0344967,59.5733203 14.4549632,59.9997656 14.973758,59.9997656 L18.0749723,59.9997656 C18.0760122,59.9997656 18.0770521,60 18.078092,60 C18.0793629,60 18.0806339,59.9997656 18.0817894,59.9997656 L25.169751,59.9997656 C25.171022,59.9997656 25.172293,60 25.1734484,60 C25.1743728,60 25.1754127,59.9997656 25.1765681,59.9997656 L42.0607388,59.9997656 C42.5795336,59.9997656 43,59.5713281 43,59.0452734 L43,51.3728906 C42.9998845,45.7658203 39.8787965,42.87375 38.0178368,41.6486719 L38.0178368,41.6486719 Z" id="Fill-1"></path>
                            <path d="M23.9299371,26 C24.5209794,26 25,25.5790229 25,25.0593395 C25,24.5397718 24.5209794,24.1187947 23.9299371,24.1187947 L23.1401257,24.1187947 L23.1401257,21.9405448 C23.1401257,21.4210928 22.6611051,21 22.0700629,21 C21.478889,21 21,21.4210928 21,21.9405448 L21,25.0593395 C21,25.5790229 21.478889,26 22.0700629,26 L23.9299371,26" id="Fill-2"></path>
                        </g>
                    </g>
                </g>
            </g>
        </g>
    </g>
</svg>