<?xml version="1.0" encoding="utf-8"?>
<!-- Generator: Adobe Illustrator 19.0.0, SVG Export Plug-In . SVG Version: 6.00 Build 0)  -->
<svg version="1.1" id="图层_1" xmlns="http://www.w3.org/2000/svg" xmlns:xlink="http://www.w3.org/1999/xlink" x="0px" y="0px"
	 viewBox="0 0 44 46.1" style="enable-background:new 0 0 44 46.1;" xml:space="preserve">
<style type="text/css">
	.st0{fill:#51B95A;}
	.st1{fill:none;}
</style>
<path id="XMLID_179_" class="st0" d="M0,13.2v24.1h24.2V13.2H0z M15.5,32.7l-3.4-4.5l-3.4,4.5H5.2l5.2-6.8L5.2,19h3.5l3.4,4.5
	l3.4-4.5H19l-5.2,6.8l0,0l5.2,6.8H15.5z"/>
<path id="XMLID_175_" class="st0" d="M20.4,21.6"/>
<path id="XMLID_169_" class="st0" d="M41.5,13.2H31.1V3.1c-0.5-0.2-0.7-0.3-1-0.3H11.6c-1.2,0-1.6,0.5-1.6,1.6c0.1,1.8,0,3.7,0,5.6
	H7.4c0-2.3-0.1-4.7,0-7c0.1-1.7,1.5-2.8,3.3-2.9c6.6,0,13.2-0.2,19.8,0.1c1.7,0.1,3.8,1.2,5.2,2.4c2,1.6,3.8,3.6,5.6,5.5
	c1.9,2,2.6,4.6,2.6,7.3c0.1,8.9,0,17.9,0,26.8c0,2.8-1.2,3.9-3.9,3.9H11.3c-3.2,0-4.2-1.4-4-5.4h2.5c0,0.4,0.2,0.7,0.1,1.2
	c-0.1,1.3,0.6,1.6,1.7,1.6h27.9c0.8,0,1.7,0.1,1.7-1.2C41.5,32.7,41.5,23,41.5,13.2L41.5,13.2z M39.6,10.5l-5.9-5.9v5.9H39.6z
	 M39.6,10.5"/>
<rect id="XMLID_168_" x="0" y="0" class="st1" width="44" height="46.1"/>
<path id="XMLID_160_" class="st0" d="M27.5,21.5v-2.9h10.3v2.9H27.5z M37.9,24.8v2.8H27.3v-2.8H37.9z M27.2,33.7v-2.8h10.6v2.8H27.2
	z M27.2,33.7"/>
</svg>
