<?xml version="1.0" encoding="UTF-8"?>
<svg width="47px" height="46px" viewBox="0 0 47 46" version="1.1" xmlns="http://www.w3.org/2000/svg" xmlns:xlink="http://www.w3.org/1999/xlink">
    <!-- Generator: Sketch 43.1 (39012) - http://www.bohemiancoding.com/sketch -->
    <title>icon-submitted-s</title>
    <desc>Created with Sketch.</desc>
    <defs></defs>
    <g id="Page-1" stroke="none" stroke-width="1" fill="none" fill-rule="evenodd">
        <g id="Artboard" transform="translate(-327.000000, -226.000000)" fill-rule="nonzero">
            <g id="icon-submitted-s" transform="translate(327.000000, 226.000000)">
                <polygon id="Shape" fill="#34B3DC" points="33.0574913 45.8595958 31.554878 23.3203972 36.0627178 23.3203972 27.0470383 12.8021045 18.0313589 23.3203972 22.5391986 23.3203972 21.0365854 45.8595958"></polygon>
                <path d="M39.0679443,6.79165157 L39.0679443,0.0299721254 L0,0.0299721254 L0,34.5900767 C0,37.0761603 2.0217561,39.0979164 4.50783972,39.0979164 L20.7338188,39.0979164 L20.286,45.8100697 L21.7855679,45.9099233 L23.3421951,22.5690105 L19.6637979,22.5690105 L27.046878,13.9567526 L34.4291568,22.5690105 L30.7507596,22.5690105 L32.3067456,45.909122 L33.8063136,45.8092683 L33.3600976,39.0979164 L42.0731707,39.0979164 C44.5592544,39.0979164 46.5810105,37.0761603 46.5810105,34.5900767 L46.5810105,6.79165157 L39.0679443,6.79165157 Z M1.50261324,34.5900767 L1.50261324,1.53258537 L37.565331,1.53258537 L37.565331,6.79181185 L20.7495261,6.79181185 L19.2469129,3.78658537 L7.5130662,3.78658537 L7.5130662,34.5902369 C7.5130662,36.2476794 6.16528223,37.5954634 4.50783972,37.5954634 C2.85039721,37.5954634 1.50261324,36.2473589 1.50261324,34.5900767 Z M45.0783972,34.5900767 C45.0783972,36.2475192 43.7306132,37.5953031 42.0731707,37.5953031 L33.2596028,37.5953031 L32.3580348,24.071784 L37.6953171,24.071784 L27.0470383,11.6472962 L16.3979582,24.0716237 L21.7352404,24.0716237 L20.8336725,37.5951429 L7.85862718,37.5951429 C8.57539373,36.7964739 9.01567944,35.7453659 9.01567944,34.5899164 L9.01567944,5.28903833 L18.3184181,5.28903833 L19.8210314,8.29426481 L45.0783972,8.29426481 L45.0783972,34.5900767 Z" id="Shape" fill="#333333"></path>
            </g>
        </g>
    </g>
</svg>