<?xml version="1.0" encoding="UTF-8"?>
<svg width="46px" height="50px" viewBox="0 0 46 50" version="1.1" xmlns="http://www.w3.org/2000/svg" xmlns:xlink="http://www.w3.org/1999/xlink">
    <!-- Generator: Sketch 43.1 (39012) - http://www.bohemiancoding.com/sketch -->
    <title>icon-draft</title>
    <desc>Created with Sketch.</desc>
    <defs></defs>
    <g id="Page-1" stroke="none" stroke-width="1" fill="none" fill-rule="evenodd">
        <g id="Artboard" transform="translate(-172.000000, -405.000000)" fill-rule="nonzero" fill="#BDBDBD">
            <g id="icon-draft" transform="translate(172.000000, 405.000000)">
                <rect id="Rectangle-path" x="15.4639175" y="12.371134" width="6.0137457" height="5.10085911"></rect>
                <rect id="Rectangle-path-Copy" x="7.56013746" y="22.8522337" width="6.0137457" height="5.10085911"></rect>
                <rect id="Rectangle-path-Copy-2" x="23.7113402" y="22.8522337" width="6.0137457" height="5.10085911"></rect>
                <path d="M34.6436426,4.83247423 L28.0520619,4.83247423 C27.7185567,3.89742268 26.832646,3.22164948 25.7840206,3.22164948 L23.3678694,3.22164948 L23.3678694,2.4161512 C23.3678694,1.08402062 22.2838488,0 20.9515464,0 L16.1190722,0 C14.7869416,0 13.702921,1.08402062 13.702921,2.41632302 L13.702921,3.22182131 L11.2865979,3.22182131 C10.2379725,3.22182131 9.35206186,3.8975945 9.0185567,4.83264605 L2.42714777,4.83264605 C1.09501718,4.83264605 0.0108247423,5.91666667 0.0108247423,7.24896907 L0.0108247423,47.5195876 C0.0108247423,48.8517182 1.09484536,49.9359107 2.42714777,49.9359107 L34.6436426,49.9359107 C35.9757732,49.9359107 37.0599656,48.85189 37.0599656,47.5195876 L37.0599656,7.24879725 C37.0599656,5.91649485 35.9757732,4.83247423 34.6436426,4.83247423 Z M10.4812715,5.63797251 C10.4812715,5.19415808 10.8429553,4.83247423 11.2867698,4.83247423 L15.3139175,4.83247423 L15.3139175,2.41632302 C15.3139175,1.97250859 15.6756014,1.61082474 16.1194158,1.61082474 L20.95189,1.61082474 C21.3957045,1.61082474 21.7573883,1.97250859 21.7573883,2.41632302 L21.7573883,4.83264605 L25.7845361,4.83264605 C26.2283505,4.83264605 26.5900344,5.1943299 26.5900344,5.63814433 L26.5900344,8.05446735 C26.5900344,8.49828179 26.2283505,8.85996564 25.7845361,8.85996564 L11.2865979,8.85996564 C10.8427835,8.85996564 10.4810997,8.49828179 10.4810997,8.05446735 L10.4810997,5.63797251 L10.4812715,5.63797251 Z M35.4491409,47.5194158 C35.4491409,47.9639175 35.087457,48.3249141 34.6436426,48.3249141 L2.42714777,48.3249141 C1.98333333,48.3249141 1.62164948,47.9640893 1.62164948,47.5194158 L1.62164948,7.24879725 C1.62164948,6.80498282 1.98333333,6.44329897 2.42714777,6.44329897 L8.87044674,6.44329897 L8.87044674,8.05412371 C8.87044674,9.3862543 9.95446735,10.4704467 11.2867698,10.4704467 L25.7841924,10.4704467 C27.116323,10.4704467 28.2005155,9.38642612 28.2005155,8.05412371 L28.2005155,6.44329897 L34.6438144,6.44329897 C35.0876289,6.44329897 35.4493127,6.80498282 35.4493127,7.24879725 L35.4493127,47.5194158 L35.4491409,47.5194158 Z" id="Shape"></path>
                <path d="M27.3950172,19.3298969 L19.3408935,19.3298969 L19.3408935,17.7190722 L21.7572165,17.7190722 L21.7572165,12.0812715 L15.3139175,12.0812715 L15.3139175,17.719244 L17.7302405,17.719244 L17.7302405,19.3300687 L9.6757732,19.3300687 L9.6757732,22.5517182 L7.25962199,22.5517182 L7.25962199,28.1896907 L13.702921,28.1896907 L13.702921,22.5515464 L11.2865979,22.5515464 L11.2865979,20.9407216 L17.7298969,20.9407216 L17.7298969,22.5515464 L15.3135739,22.5515464 L15.3135739,28.1895189 L21.7568729,28.1895189 L21.7568729,22.5515464 L19.3405498,22.5515464 L19.3405498,20.9407216 L25.7838488,20.9407216 L25.7838488,22.5515464 L23.3678694,22.5515464 L23.3678694,28.1895189 L25.7841924,28.1895189 L25.7841924,29.8003436 L17.7300687,29.8003436 L17.7300687,33.0219931 L15.3137457,33.0219931 L15.3137457,38.6597938 L21.7570447,38.6597938 L21.7570447,33.0218213 L19.3407216,33.0218213 L19.3407216,31.4109966 L27.3948454,31.4109966 L27.3948454,28.1893471 L29.8111684,28.1893471 L29.8111684,22.5515464 L27.3948454,22.5515464 L27.3948454,19.3298969 L27.3950172,19.3298969 Z M16.9245704,13.6920962 L20.1462199,13.6920962 L20.1462199,16.1082474 L16.9245704,16.1082474 L16.9245704,13.6920962 Z M12.0920962,26.5786942 L8.87044674,26.5786942 L8.87044674,24.1623711 L12.0920962,24.1623711 L12.0920962,26.5786942 Z M20.1462199,26.5786942 L16.9245704,26.5786942 L16.9245704,24.1623711 L20.1462199,24.1623711 L20.1462199,26.5786942 Z M20.1462199,37.0489691 L16.9245704,37.0489691 L16.9245704,34.632646 L20.1462199,34.632646 L20.1462199,37.0489691 Z M28.2003436,26.5786942 L24.9786942,26.5786942 L24.9786942,24.1623711 L28.2003436,24.1623711 L28.2003436,26.5786942 Z" id="Shape"></path>
                <path d="M42.6977663,5.63797251 C41.3656357,5.63797251 40.2814433,6.72199313 40.2814433,8.05429553 L40.2814433,9.66512027 L40.2814433,11.275945 L40.2814433,12.8865979 L40.2814433,14.4974227 L40.2814433,42.0118557 L42.6977663,49.2606529 L45.1140893,42.0118557 L45.1140893,14.4974227 L45.1140893,12.8865979 L45.1140893,11.2757732 L45.1140893,9.66494845 L45.1140893,8.05412371 C45.1140893,6.72199313 44.0298969,5.63797251 42.6977663,5.63797251 Z M42.2041237,42.6869416 L43.1907216,42.6869416 L42.6977663,44.167354 L42.2041237,42.6869416 Z M43.5032646,41.0761168 L41.8924399,41.0761168 L41.8924399,14.4974227 L43.5032646,14.4974227 L43.5032646,41.0761168 Z M43.5032646,12.8865979 L41.8924399,12.8865979 L41.8924399,11.2757732 L43.5032646,11.2757732 L43.5032646,12.8865979 Z M41.8924399,9.66494845 L41.8924399,8.05412371 C41.8924399,7.61030928 42.2541237,7.24862543 42.6979381,7.24862543 C43.1417526,7.24862543 43.5034364,7.61030928 43.5034364,8.05412371 L43.5034364,9.66494845 L41.8924399,9.66494845 Z" id="Shape"></path>
            </g>
        </g>
    </g>
</svg>