<?xml version="1.0" encoding="UTF-8"?>
<svg width="50px" height="50px" viewBox="0 0 50 50" version="1.1" xmlns="http://www.w3.org/2000/svg" xmlns:xlink="http://www.w3.org/1999/xlink">
    <!-- Generator: Sketch 43.1 (39012) - http://www.bohemiancoding.com/sketch -->
    <title>icon-close</title>
    <desc>Created with Sketch.</desc>
    <defs></defs>
    <g id="Page-1" stroke="none" stroke-width="1" fill="none" fill-rule="evenodd">
        <g id="新建项目-项目详情-审核信息-copy" transform="translate(-997.000000, -322.000000)" fill-rule="nonzero">
            <g id="Group-19" transform="translate(346.000000, 322.000000)">
                <g id="Group-9" transform="translate(650.000000, 0.000000)">
                    <g id="icon-close" transform="translate(1.000000, 0.000000)">
                        <rect id="Rectangle-path" fill="#FFFFFF" x="0.783585859" y="0.783585859" width="48.3950758" height="48.3950758"></rect>
                        <path d="M49.9540404,49.9540404 L0,49.9540404 L0,0 L49.9540404,0 L49.9540404,49.9540404 Z M1.55896465,48.3950758 L48.3949495,48.3950758 L48.3949495,1.55896465 L1.55896465,1.55896465 L1.55896465,48.3950758 Z" id="Shape" fill="#193651"></path>
                        <rect id="Rectangle-path" fill="#2EA2DB" x="4.68522727" y="4.68522727" width="40.5917929" height="40.5917929"></rect>
                        <path d="M39.5714646,34.1108586 L30.5193182,24.9771465 L39.6530303,15.8434343 C41.2119949,14.2844697 41.2119949,11.8602273 39.6530303,10.3011364 L39.6530303,10.3011364 C38.0940657,8.74217172 35.6698232,8.74217172 34.1107323,10.3011364 L24.9770202,19.4348485 L15.8433081,10.3825758 C14.2843434,8.82361111 11.860101,8.82361111 10.3010101,10.3825758 C8.74191919,11.9415404 8.74204545,14.3657828 10.3010101,15.9248737 L19.4347222,24.9770202 L10.3825758,34.1108586 C8.82361111,35.6698232 8.82361111,38.0940657 10.3825758,39.6531566 L10.3825758,39.6531566 C11.9415404,41.2121212 14.3657828,41.2121212 15.9248737,39.6531566 L24.9770202,30.5194444 L34.1107323,39.6531566 C35.669697,41.2121212 38.0939394,41.2121212 39.6530303,39.6531566 C41.1305556,38.0858586 41.1305556,35.5882576 39.5714646,34.1108586 Z" id="Shape" fill="#FFFFFF"></path>
                        <g id="Group" transform="translate(8.080808, 8.080808)" fill="#193651">
                            <path d="M32.0375,25.4830808 L23.4506313,16.8962121 L32.0375,8.30934343 C33.8332071,6.51363636 33.8332071,3.55063131 32.0375,1.67323232 C31.1804293,0.816161616 30.0050505,0.269318182 28.7561869,0.269318182 C27.5073232,0.269318182 26.3401515,0.73459596 25.4748737,1.67323232 L16.8962121,10.260101 L8.30934343,1.67335859 C7.45227273,0.816287879 6.27689394,0.269444444 5.0280303,0.269444444 C3.77916667,0.269444444 2.61199495,0.734722222 1.74671717,1.67335859 C0.889646465,2.53042929 0.34280303,3.70580808 0.34280303,4.95467172 C0.34280303,6.20353535 0.808080808,7.37070707 1.74671717,8.23598485 L10.3417929,16.8146465 L1.75492424,25.4015152 C0.897853535,26.2585859 0.351010101,27.4339646 0.351010101,28.6828283 C0.351010101,29.9316919 0.816287879,31.0988636 1.75492424,31.9641414 C2.61199495,32.8212121 3.78737374,33.3680556 5.03623737,33.3680556 C6.28510101,33.3680556 7.45227273,32.9027778 8.31755051,31.9641414 L16.8962121,23.3772727 L25.4830808,31.9641414 C26.3401515,32.8212121 27.5155303,33.3680556 28.7643939,33.3680556 C30.0132576,33.3680556 31.1804293,32.9027778 32.0457071,31.9641414 C33.914899,30.2417929 33.914899,27.2787879 32.0375,25.4830808 Z M30.9438131,30.9438131 C29.7766414,32.1109848 27.7441919,32.1109848 26.4953283,30.9438131 L16.8963384,21.3448232 L7.21565657,30.9438131 C6.04848485,32.1109848 4.01603535,32.1109848 2.76717172,30.9438131 C2.13863636,30.3234848 1.82853535,29.539899 1.82853535,28.7563131 C1.82853535,27.8992424 2.13876263,27.1156566 2.76717172,26.5688131 L12.4478535,16.8963384 L2.84886364,7.21565657 C1.68169192,6.66881313 1.83674242,3.70580808 2.84886364,2.76717172 C3.7875,1.98358586 5.42815657,1.20820707 7.29734848,2.76717172 L16.8963384,12.4478535 L26.5770202,2.84886364 C27.7441919,1.68169192 29.7766414,1.68169192 31.0255051,2.84886364 C32.2743687,4.09772727 32.2743687,6.04848485 31.0255051,7.29734848 L21.3448232,16.8963384 L30.9438131,26.5770202 C32.1926768,27.7440657 32.1926768,29.7765152 30.9438131,30.9438131 Z" id="Shape"></path>
                            <rect id="Rectangle-path" x="16.1126263" y="16.1126263" width="1.55896465" height="1.55896465"></rect>
                            <rect id="Rectangle-path" x="16.1126263" y="32.1191919" width="1.55896465" height="1.55896465"></rect>
                            <rect id="Rectangle-path" x="16.1126263" y="0.114267677" width="1.55896465" height="1.55896465"></rect>
                            <rect id="Rectangle-path" x="0.114267677" y="16.1126263" width="1.55896465" height="1.55896465"></rect>
                            <rect id="Rectangle-path" x="32.1191919" y="16.1126263" width="1.55896465" height="1.55896465"></rect>
                        </g>
                    </g>
                </g>
            </g>
        </g>
    </g>
</svg>