<?xml version="1.0" encoding="UTF-8"?>
<svg width="50px" height="47px" viewBox="0 0 50 47" version="1.1" xmlns="http://www.w3.org/2000/svg" xmlns:xlink="http://www.w3.org/1999/xlink">
    <!-- Generator: Sketch 43.1 (39012) - http://www.bohemiancoding.com/sketch -->
    <title>icon-project</title>
    <desc>Created with Sketch.</desc>
    <defs></defs>
    <g id="Page-1" stroke="none" stroke-width="1" fill="none" fill-rule="evenodd">
        <g id="新建项目-项目详情-审核信息" transform="translate(-1003.000000, -325.000000)" fill-rule="nonzero">
            <g id="Group-19" transform="translate(346.000000, 322.000000)">
                <g id="Group-9" transform="translate(650.000000, 3.000000)">
                    <g id="icon-project" transform="translate(7.000000, 0.000000)">
                        <rect id="Rectangle-path" fill="#FFFFFF" x="0.777341772" y="0.858481013" width="37.9531646" height="44.916962"></rect>
                        <path d="M39.5162025,46.5529114 L0,46.5529114 L0,0.0729113924 L39.5162025,0.0729113924 L39.5162025,46.5529114 Z M1.56291139,44.9898734 L37.9531646,44.9898734 L37.9531646,1.63582278 L1.56291139,1.63582278 L1.56291139,44.9898734 Z" id="Shape" fill="#BDBDBD"></path>
                        <rect id="Rectangle-path" fill="#BDBDBD" x="3.91151899" y="3.98443038" width="31.6931646" height="38.656962"></rect>
                        <polygon id="Shape" fill="#FFFFFF" points="31.6686076 21.4307595 7.82303797 21.4307595 7.82303797 28.4764557 31.6686076 28.4764557 31.7668354 28.4764557 31.7668354 21.4307595"></polygon>
                        <path d="M7.03746835,20.6534177 L7.03746835,29.2620253 L32.5441772,29.2620253 L32.5441772,20.6534177 L7.03746835,20.6534177 L7.03746835,20.6534177 Z M15.0241772,27.6908861 L8.60860759,27.6908861 L8.60860759,22.2164557 L15.0241772,22.2164557 L15.0241772,27.6908861 Z M23.0026582,27.6908861 L16.5870886,27.6908861 L16.5870886,22.2164557 L23.0026582,22.2164557 L23.0026582,27.6908861 Z M30.9812658,27.6908861 L24.5656962,27.6908861 L24.5656962,22.2164557 L30.9812658,22.2164557 L30.9812658,27.6908861 Z" id="Shape" fill="#BDBDBD"></path>
                        <g id="Group" transform="translate(6.962025, 6.708861)" fill="#FFFFFF">
                            <rect id="Rectangle-path" x="0.075443038" y="0.016835443" width="8.76405063" height="1.56291139"></rect>
                            <rect id="Rectangle-path" x="0.075443038" y="4.39481013" width="25.433038" height="1.56291139"></rect>
                            <rect id="Rectangle-path" x="0.075443038" y="8.69911392" width="25.433038" height="1.56291139"></rect>
                        </g>
                        <g id="Group" transform="translate(13.797468, 38.227848)" fill="#FFFFFF">
                            <rect id="Rectangle-path" x="0.0483544304" y="0.109240506" width="1.56291139" height="1.56291139"></rect>
                            <rect id="Rectangle-path" x="5.21189873" y="0.109240506" width="1.56291139" height="1.56291139"></rect>
                            <rect id="Rectangle-path" x="10.375443" y="0.109240506" width="1.56291139" height="1.56291139"></rect>
                        </g>
                        <circle id="Oval" fill="#D3D7DA" cx="40.1381013" cy="37.3222785" r="7.66759494"></circle>
                        <polygon id="Shape" fill="#BDBDBD" points="40.4489873 40.2927848 36.6193671 35.6775949 37.8713924 34.6627848 40.5308861 37.9443038 48.7467089 29.0246835 49.9168354 30.0393671"></polygon>
                    </g>
                </g>
            </g>
        </g>
    </g>
</svg>