<?xml version="1.0" encoding="UTF-8"?>
<svg width="41px" height="50px" viewBox="0 0 41 50" version="1.1" xmlns="http://www.w3.org/2000/svg" xmlns:xlink="http://www.w3.org/1999/xlink">
    <!-- Generator: Sketch 43.1 (39012) - http://www.bohemiancoding.com/sketch -->
    <title>icon-receive</title>
    <desc>Created with Sketch.</desc>
    <defs></defs>
    <g id="Page-1" stroke="none" stroke-width="1" fill="none" fill-rule="evenodd">
        <g id="Artboard" transform="translate(-1130.000000, -405.000000)" fill-rule="nonzero" fill="#BDBDBD">
            <g id="icon-receive" transform="translate(1130.000000, 405.000000)">
                <path d="M20.1570447,0 C9.05429553,0 0.0216494845,9.03264605 0.0216494845,20.1353952 L1.63247423,20.1353952 C1.63247423,17.0273196 4.16151203,14.4974227 7.27027491,14.4974227 C10.3790378,14.4974227 12.9080756,17.0271478 12.9080756,20.1353952 L14.5189003,20.1353952 C14.5189003,17.3012027 16.6233677,14.9549828 19.3513746,14.5618557 L19.3513746,24.9678694 L4.85412371,24.9678694 L4.85412371,49.9357388 L35.4597938,49.9357388 L35.4597938,24.9678694 L20.9623711,24.9678694 L20.9623711,14.5618557 C23.690378,14.9549828 25.7948454,17.3010309 25.7948454,20.1353952 L27.4056701,20.1353952 C27.4056701,17.0273196 29.9347079,14.4974227 33.0434708,14.4974227 C36.1522337,14.4974227 38.6812715,17.0271478 38.6812715,20.1353952 L40.2920962,20.1353952 C40.292268,9.03264605 31.259622,0 20.1570447,0 Z M33.8489691,48.3247423 L6.46494845,48.3247423 L6.46494845,26.5786942 L33.8489691,26.5786942 L33.8489691,48.3247423 Z M7.27044674,12.8865979 C5.41323024,12.8865979 3.71701031,13.5881443 2.43316151,14.7414089 C4.56752577,7.74158076 10.7465636,2.49914089 18.2329897,1.72199313 C15.2723368,5.27955326 13.4955326,9.69226804 13.1853952,14.3460481 L13.0862543,15.8304124 C11.7646048,14.0487973 9.65360825,12.8865979 7.27044674,12.8865979 Z M20.1570447,12.8865979 C17.9969072,12.8865979 16.061512,13.8417526 14.732646,15.3455326 L14.792268,14.4524055 C15.1030928,9.79948454 17.0103093,5.41735395 20.1570447,1.99828179 C23.3037801,5.41718213 25.2109966,9.79862543 25.5218213,14.4524055 L25.5814433,15.3455326 C24.2524055,13.8417526 22.3170103,12.8865979 20.1570447,12.8865979 Z M33.0434708,12.8865979 C30.6603093,12.8865979 28.5493127,14.0487973 27.2276632,15.8304124 L27.1285223,14.3460481 C26.8183849,9.69243986 25.0417526,5.27955326 22.0810997,1.72199313 C29.567354,2.49914089 35.7457045,7.74158076 37.8809278,14.7414089 C36.597079,13.5881443 34.9008591,12.8865979 33.0434708,12.8865979 Z" id="Shape"></path>
                <rect id="Rectangle-path" x="16.9353952" y="24.9678694" width="6.44329897" height="12.0812715"></rect>
            </g>
        </g>
    </g>
</svg>