<?xml version="1.0" encoding="UTF-8"?>
<svg width="50px" height="50px" viewBox="0 0 50 50" version="1.1" xmlns="http://www.w3.org/2000/svg" xmlns:xlink="http://www.w3.org/1999/xlink">
    <!-- Generator: Sketch 43.1 (39012) - http://www.bohemiancoding.com/sketch -->
    <title>icon-delivery</title>
    <desc>Created with Sketch.</desc>
    <defs></defs>
    <g id="Page-1" stroke="none" stroke-width="1" fill="none" fill-rule="evenodd">
        <g id="Artboard" transform="translate(-965.000000, -405.000000)" fill-rule="nonzero" fill="#BDBDBD">
            <g id="icon-delivery" transform="translate(965.000000, 405.000000)">
                <path d="M26.578866,23.3570447 L26.2905498,23.3570447 C24.3728522,24.8654639 21.9599656,25.7731959 19.3302405,25.7731959 C16.7005155,25.7731959 14.2876289,24.8654639 12.3699313,23.3568729 L12.0816151,23.3568729 L4.02749141,23.3568729 L4.02749141,36.2434708 L34.6331615,36.2434708 L34.6331615,23.3568729 L26.578866,23.3568729 L26.578866,23.3570447 Z" id="Shape"></path>
                <path d="M47.5197595,39.4652921 L46.7142612,39.4652921 L46.7142612,30.6056701 L43.416323,30.6056701 L42.6108247,22.5515464 L35.4386598,22.5515464 L35.4386598,15.302921 L31.3704467,15.302921 C31.3881443,15.035567 31.411512,14.7697595 31.411512,14.4974227 C31.411512,11.2515464 30.1180412,8.30618557 28.0280069,6.13316151 L28.5926117,5.5685567 L30.0367698,7.01271478 L31.1756014,5.87388316 L27.1486254,1.8467354 L26.0097938,2.98556701 L27.4539519,4.42972509 L26.8362543,5.04742268 C24.9701031,3.56219931 22.6585911,2.62474227 20.1360825,2.45721649 L20.1360825,1.61082474 L22.5522337,1.61082474 L22.5522337,0 L16.1089347,0 L16.1089347,1.61082474 L18.5250859,1.61082474 L18.5250859,2.45738832 C16.0025773,2.62491409 13.6910653,3.56323024 11.8249141,5.0475945 L11.2072165,4.42989691 L12.6513746,2.98573883 L11.512543,1.84690722 L7.48505155,5.87388316 L8.62388316,7.01271478 L10.0680412,5.5685567 L10.632646,6.13316151 C8.54261168,8.30618557 7.24914089,11.2515464 7.24914089,14.4974227 C7.24914089,14.7695876 7.27250859,15.0353952 7.29020619,15.302921 L3.22199313,15.302921 L3.22199313,39.4652921 L2.41666667,39.4652921 C1.08453608,39.4652921 0.000343642612,40.5493127 0.000343642612,41.8814433 C0.000343642612,43.2135739 1.08436426,44.2977663 2.41649485,44.2977663 L3.22182131,44.2977663 L4.83264605,44.2977663 L7.24879725,44.2977663 C7.24879725,47.4058419 9.77783505,49.9357388 12.8865979,49.9357388 C15.9953608,49.9357388 18.5243986,47.4060137 18.5243986,44.2977663 L33.8271478,44.2977663 C33.8271478,47.4058419 36.3561856,49.9357388 39.4649485,49.9357388 C42.5737113,49.9357388 45.1027491,47.4060137 45.1027491,44.2977663 L46.7135739,44.2977663 L47.5190722,44.2977663 C48.8512027,44.2977663 49.9352234,43.2137457 49.9352234,41.8814433 C49.9352234,40.5491409 48.85189,39.4652921 47.5197595,39.4652921 Z M41.152921,24.1623711 L41.7972509,30.6056701 L35.438488,30.6056701 L35.438488,24.1623711 L41.152921,24.1623711 Z M19.3302405,4.02714777 C25.1034364,4.02714777 29.8005155,8.7242268 29.8005155,14.4975945 C29.8005155,20.2709622 25.1034364,24.9678694 19.3302405,24.9678694 C13.5570447,24.9678694 8.85996564,20.2706186 8.85996564,14.4974227 C8.85996564,8.7242268 13.5570447,4.02714777 19.3302405,4.02714777 Z M3.22199313,42.6869416 L2.41666667,42.6869416 C1.97285223,42.6869416 1.61134021,42.3261168 1.61134021,41.8814433 C1.61134021,41.4367698 1.97302405,41.075945 2.41666667,41.075945 L3.22199313,41.075945 L3.22199313,42.6869416 Z M12.8869416,48.3247423 C10.6664948,48.3247423 8.85996564,46.5182131 8.85996564,44.2975945 C8.85996564,42.0769759 10.6664948,40.2706186 12.8869416,40.2706186 C15.1073883,40.2706186 16.9139175,42.0771478 16.9139175,44.2977663 C16.9139175,46.5183849 15.1075601,48.3247423 12.8869416,48.3247423 Z M18.2872852,42.6869416 C17.5920962,40.3608247 15.4352234,38.6597938 12.8869416,38.6597938 C10.3386598,38.6597938 8.18178694,40.3608247 7.48659794,42.6869416 L4.83281787,42.6869416 L4.83281787,39.4652921 L4.83281787,16.9137457 L7.49226804,16.9137457 C8.61494845,22.421134 13.4958763,26.5786942 19.3302405,26.5786942 C25.1646048,26.5786942 30.0453608,22.421134 31.1682131,16.9137457 L33.8276632,16.9137457 L33.8276632,22.5517182 L33.8276632,30.6058419 L33.8276632,32.2166667 L33.8276632,42.6871134 L18.2872852,42.6871134 L18.2872852,42.6869416 L18.2872852,42.6869416 Z M39.4654639,48.3247423 C37.2450172,48.3247423 35.438488,46.5182131 35.438488,44.2975945 C35.438488,42.0769759 37.2450172,40.2704467 39.4654639,40.2704467 C41.6859107,40.2704467 43.4924399,42.0769759 43.4924399,44.2975945 C43.4924399,46.5182131 41.6860825,48.3247423 39.4654639,48.3247423 Z M45.1036082,42.6869416 L44.8659794,42.6869416 C44.1707904,40.3608247 42.0139175,38.6597938 39.4654639,38.6597938 C37.888488,38.6597938 36.4628866,39.3121993 35.438488,40.3599656 L35.438488,32.2164948 L43.5771478,32.2164948 L45.1034364,32.2164948 L45.1034364,39.4652921 L45.1034364,42.6869416 L45.1036082,42.6869416 Z M47.5197595,42.6869416 L46.7142612,42.6869416 L46.7142612,41.0761168 L47.5197595,41.0761168 C47.9635739,41.0761168 48.3250859,41.4369416 48.3250859,41.8816151 C48.3250859,42.3262887 47.9634021,42.6869416 47.5197595,42.6869416 Z" id="Shape"></path>
                <path d="M12.8869416,41.8814433 C11.554811,41.8814433 10.4707904,42.9654639 10.4707904,44.2977663 C10.4707904,45.6298969 11.554811,46.7140893 12.8869416,46.7140893 C14.2190722,46.7140893 15.3030928,45.6300687 15.3030928,44.2977663 C15.3032646,42.9654639 14.2190722,41.8814433 12.8869416,41.8814433 Z M12.8869416,45.1030928 C12.4431271,45.1030928 12.0816151,44.742268 12.0816151,44.2975945 C12.0816151,43.852921 12.443299,43.4920962 12.8869416,43.4920962 C13.3305842,43.4920962 13.692268,43.852921 13.692268,44.2975945 C13.692268,44.742268 13.330756,45.1030928 12.8869416,45.1030928 Z" id="Shape"></path>
                <path d="M39.4654639,41.8814433 C38.1333333,41.8814433 37.0493127,42.9654639 37.0493127,44.2977663 C37.0493127,45.6298969 38.1333333,46.7140893 39.4654639,46.7140893 C40.7975945,46.7140893 41.8816151,45.6300687 41.8816151,44.2977663 C41.8817869,42.9654639 40.7975945,41.8814433 39.4654639,41.8814433 Z M39.4654639,45.1030928 C39.0216495,45.1030928 38.6599656,44.742268 38.6599656,44.2975945 C38.6599656,43.852921 39.0216495,43.4920962 39.4654639,43.4920962 C39.9092784,43.4920962 40.2707904,43.852921 40.2707904,44.2975945 C40.2707904,44.742268 39.9092784,45.1030928 39.4654639,45.1030928 Z" id="Shape"></path>
                <path d="M16.9140893,14.4974227 C16.9140893,15.8295533 17.99811,16.9137457 19.3302405,16.9137457 C20.6623711,16.9137457 21.7463918,15.8297251 21.7463918,14.4974227 C21.7463918,13.1651203 20.6623711,12.0810997 19.3302405,12.0810997 C19.193299,12.0810997 19.0611684,12.0996564 18.9298969,12.1213058 L14.3036082,6.72439863 L13.0802405,7.77302405 L17.5036082,12.9333333 C17.1410653,13.3561856 16.9140893,13.8982818 16.9140893,14.4974227 Z M20.1357388,14.4974227 C20.1357388,14.9412371 19.774055,15.302921 19.3304124,15.302921 C18.8865979,15.302921 18.5250859,14.9412371 18.5250859,14.4974227 C18.5250859,14.0536082 18.8867698,13.6919244 19.3304124,13.6919244 C19.774055,13.6920962 20.1357388,14.0536082 20.1357388,14.4974227 Z" id="Shape"></path>
                <path d="M18.5957045,23.3207904 L18.7278351,21.7156357 C15.0012027,21.4079038 12.0816151,18.2378007 12.0816151,14.4975945 C12.0816151,12.7273196 12.7340206,11.0197595 13.9187285,9.68762887 L12.7154639,8.61718213 C11.2682131,10.2441581 10.4707904,12.3324742 10.4707904,14.4974227 C10.4707904,19.0697595 14.0395189,22.9453608 18.5957045,23.3207904 Z" id="Shape"></path>
            </g>
        </g>
    </g>
</svg>