<?xml version="1.0" encoding="UTF-8"?>
<svg width="50px" height="50px" viewBox="0 0 50 50" version="1.1" xmlns="http://www.w3.org/2000/svg" xmlns:xlink="http://www.w3.org/1999/xlink">
    <!-- Generator: Sketch 43.1 (39012) - http://www.bohemiancoding.com/sketch -->
    <title>icon-transport</title>
    <desc>Created with Sketch.</desc>
    <defs></defs>
    <g id="Page-1" stroke="none" stroke-width="1" fill="none" fill-rule="evenodd">
        <g id="Artboard" transform="translate(-805.000000, -405.000000)" fill-rule="nonzero" fill="#BDBDBD">
            <g id="icon-transport" transform="translate(805.000000, 405.000000)">
                <path d="M44.2407095,16.1518581 L30.5663851,16.1518581 C27.4623311,16.1518581 24.9358108,13.6253378 24.9358108,10.5212838 C24.9358108,7.41722973 27.4623311,4.89070946 30.5663851,4.89070946 C30.8744932,4.89070946 31.1809122,4.91570946 31.4834459,4.96554054 C32.6047297,2.04493243 35.4329392,0.064527027 38.6101351,0.064527027 C41.8219595,0.064527027 44.710473,2.11655405 45.7940878,5.10962838 C48.1831081,5.79341216 49.8714527,7.9964527 49.8714527,10.5214527 C49.8712838,13.6253378 47.3447635,16.1518581 44.2407095,16.1518581 Z" id="Shape"></path>
                <path d="M48.7307432,26.345777 C45.9179054,24.9388514 42.7679054,24.1956081 39.6228041,24.1956081 L29.4804054,24.1956081 L20.3643581,17.7606419 L12.5369932,17.7606419 L18.9719595,24.1956081 L12.3712838,24.1956081 L5.13192568,17.7606419 L0.370777027,17.7606419 L3.55777027,24.9324324 L2.41317568,25.1231419 L2.41317568,27.8266892 L2.92719595,28.1942568 C6.63209459,30.8407095 10.9974662,32.239527 15.5503378,32.239527 L17.3633446,32.239527 L11.4777027,38.125 L12.2998311,38.6679054 C12.5564189,38.8376689 12.7984797,39.0331081 13.0189189,39.2486486 L13.2537162,39.4787162 L17.952027,39.4787162 L28.2077703,32.2393581 L39.420777,32.2393581 C42.1951014,32.2393581 44.8945946,31.6851351 47.4435811,30.5927365 L48.6211149,30.0883446 C49.3804054,29.7618243 49.8711149,29.0177365 49.8711149,28.1915541 C49.8712838,27.4050676 49.4344595,26.697973 48.7307432,26.345777 Z M16.4204392,19.3694257 L19.8543919,19.3694257 L26.6915541,24.1956081 L21.2467905,24.1956081 L16.4204392,19.3694257 Z M2.84662162,19.3694257 L4.52060811,19.3694257 L9.95016892,24.1956081 L8.84256757,24.1956081 C8.26824324,24.1956081 7.68986486,24.2439189 7.12364865,24.3380068 L5.19712838,24.6589527 L2.84662162,19.3694257 Z M47.9875,28.6092905 L46.8099662,29.1136824 C44.4611486,30.120777 41.9765203,30.6307432 39.4209459,30.6307432 L30.4868243,30.6307432 L31.8349662,29.679223 L30.9067568,28.3648649 L17.4415541,37.8701014 L14.0074324,37.8701014 L22.2868243,29.5907095 L21.1494932,28.4533784 L18.9721284,30.6307432 L15.5501689,30.6307432 C11.4003378,30.6307432 7.41875,29.3751689 4.02179054,26.9981419 L4.02179054,26.4858108 L7.38817568,25.9243243 C7.86756757,25.8447635 8.35743243,25.8043919 8.84256757,25.8043919 L39.6228041,25.8043919 C42.5201014,25.8043919 45.420777,26.4888514 48.0108108,27.7839527 C48.1660473,27.8619932 48.2625,28.0180743 48.2625,28.191723 C48.2625,28.3734797 48.1538851,28.5376689 47.9875,28.6092905 Z" id="Shape"></path>
                <path d="M14.4787162,49.13125 L4.82618243,49.13125 C2.16452703,49.13125 0,46.966723 0,44.3050676 C0,41.9418919 1.73986486,39.9405405 4.03885135,39.5616554 C5.16976351,37.5427365 7.32466216,36.2613176 9.65253378,36.2613176 C12.7108108,36.2613176 15.3298986,38.4243243 15.9459459,41.3722973 C17.4743243,41.9684122 18.5006757,43.435473 18.5006757,45.1094595 C18.5006757,47.327027 16.6964527,49.13125 14.4787162,49.13125 Z" id="Shape"></path>
                <rect id="Rectangle-path" x="27.3488176" y="41.0875" width="16.0875" height="1.60878378"></rect>
                <rect id="Rectangle-path" x="24.13125" y="41.0875" width="1.60878378" height="1.60878378"></rect>
                <rect id="Rectangle-path" x="7.23935811" y="5.69493243" width="12.8699324" height="1.60878378"></rect>
                <rect id="Rectangle-path" x="4.02195946" y="5.69493243" width="1.60878378" height="1.60878378"></rect>
                <rect id="Rectangle-path" x="4.02195946" y="9.71689189" width="12.0657095" height="1.60878378"></rect>
                <rect id="Rectangle-path" x="0.804391892" y="9.71689189" width="1.60878378" height="1.60878378"></rect>
            </g>
        </g>
    </g>
</svg>