<?xml version="1.0" encoding="UTF-8"?>
<svg width="48px" height="48px" viewBox="0 0 48 48" version="1.1" xmlns="http://www.w3.org/2000/svg" xmlns:xlink="http://www.w3.org/1999/xlink">
    <!-- Generator: Sketch 43.1 (39012) - http://www.bohemiancoding.com/sketch -->
    <title>icon-examine-s</title>
    <desc>Created with Sketch.</desc>
    <defs></defs>
    <g id="Page-1" stroke="none" stroke-width="1" fill="none" fill-rule="evenodd">
        <g id="Artboard" transform="translate(-486.000000, -225.000000)" fill-rule="nonzero">
            <g id="icon-examine-s" transform="translate(486.000000, 225.000000)">
                <ellipse id="Oval" fill="#34B3DC" cx="10.8249072" cy="13.1444124" rx="3.86606186" ry="3.86606186"></ellipse>
                <polygon id="Shape" fill="#333333" points="14.4133608 11.4185567 13.4220206 10.2309278 9.32651546 13.6445361 8.27876289 12.5976082 7.18548454 13.6910515 9.23068041 15.7369072"></polygon>
                <rect id="Rectangle-path" fill="#333333" x="17.0104742" y="10.8247423" width="11.5978557" height="1.54639175"></rect>
                <rect id="Rectangle-path" fill="#333333" x="17.0104742" y="13.9175258" width="13.1442474" height="1.54639175"></rect>
                <polygon id="Shape" fill="#333333" points="14.4133608 19.1505155 13.4220206 17.9628866 9.32651546 21.3764948 8.27876289 20.329567 7.18548454 21.4230103 9.23068041 23.468866"></polygon>
                <rect id="Rectangle-path" fill="#333333" x="17.0104742" y="18.556701" width="16.2370309" height="1.54639175"></rect>
                <rect id="Rectangle-path" fill="#333333" x="17.0104742" y="21.6494845" width="3.09278351" height="1.54639175"></rect>
                <rect id="Rectangle-path" fill="#333333" x="21.6496495" y="21.6494845" width="11.5978557" height="1.54639175"></rect>
                <polygon id="Shape" fill="#333333" points="14.4133608 26.8824742 13.4220206 25.6948454 9.32651546 29.1084536 8.27876289 28.0615258 7.18548454 29.1549691 9.23068041 31.2008247"></polygon>
                <rect id="Rectangle-path" fill="#333333" x="17.0104742" y="26.2886598" width="16.2370309" height="1.54639175"></rect>
                <rect id="Rectangle-path" fill="#333333" x="17.0104742" y="29.3814433" width="11.5978557" height="1.54639175"></rect>
                <rect id="Rectangle-path" fill="#333333" x="30.1547216" y="29.3814433" width="3.09278351" height="1.54639175"></rect>
                <rect id="Rectangle-path" fill="#333333" x="30.1547216" y="10.8247423" width="3.09278351" height="1.54639175"></rect>
                <path d="M45.6186392,35.5670103 L44.0722474,35.5670103 L42.5258557,35.5670103 L40.9794639,35.5670103 L39.4330722,35.5670103 L39.4330722,3.86606186 C39.4330722,1.73426804 37.6988041,0 35.5671753,0 L3.8662268,0 C1.73443299,0 0.000164948454,1.73426804 0.000164948454,3.86606186 C0.000164948454,5.99785567 1.73443299,7.73212371 3.86606186,7.73212371 L3.86606186,47.9383093 L36.3402887,47.9383093 L36.3402887,43.2989691 L39.4330722,43.2989691 L39.4330722,40.2061856 L40.9794639,40.2061856 L42.5258557,40.2061856 L44.0722474,40.2061856 L45.6186392,40.2061856 C46.8974845,40.2061856 47.9381443,39.1655258 47.9381443,37.8865155 C47.9381443,36.6075052 46.8974845,35.5670103 45.6186392,35.5670103 Z M37.8866804,3.86606186 L37.8866804,35.5671753 L36.3402887,35.5671753 L36.3402887,6.18556701 L35.5670103,6.18556701 C34.2881649,6.18556701 33.2475052,5.14490722 33.2475052,3.86589691 C33.2475052,2.5868866 34.2881649,1.5462268 35.5670103,1.5462268 C36.8458557,1.5462268 37.8866804,2.58705155 37.8866804,3.86606186 Z M1.5465567,3.86606186 C1.5465567,2.58721649 2.58721649,1.54639175 3.86606186,1.54639175 L32.4943505,1.54639175 C32.003299,2.19430928 31.7011134,2.9923299 31.7011134,3.86606186 C31.7011134,4.73979381 32.0034639,5.53764948 32.4943505,6.18573196 L3.8662268,6.18573196 C2.58738144,6.18556701 1.5465567,5.14490722 1.5465567,3.86606186 Z M5.41261856,46.3917526 L5.41261856,7.73195876 L34.7940619,7.73195876 L34.7940619,35.5670103 L13.0192165,35.5670103 L6.06053608,37.8866804 L13.0192165,40.2063505 L34.7938969,40.2063505 L34.7938969,46.3919175 L5.41261856,46.3919175 L5.41261856,46.3917526 Z M10.950268,37.8866804 L12.371299,37.4126186 L12.371299,38.3597526 L10.950268,37.8866804 Z M37.8866804,41.7525773 L36.3402887,41.7525773 L36.3402887,40.2061856 L37.8866804,40.2061856 L37.8866804,41.7525773 Z M39.4330722,38.6597938 L13.9176907,38.6597938 L13.9176907,37.1134021 L39.4330722,37.1134021 L39.4330722,38.6597938 L39.4330722,38.6597938 Z M42.5258557,38.6597938 L40.9794639,38.6597938 L40.9794639,37.1134021 L42.5258557,37.1134021 L42.5258557,38.6597938 Z M45.6186392,38.6597938 L44.0722474,38.6597938 L44.0722474,37.1134021 L45.6186392,37.1134021 C46.0453608,37.1134021 46.3917526,37.4606186 46.3917526,37.8866804 C46.3917526,38.3127423 46.0455258,38.6597938 45.6186392,38.6597938 Z" id="Shape" fill="#333333"></path>
            </g>
        </g>
    </g>
</svg>