<?xml version="1.0" encoding="UTF-8"?>
<svg width="50px" height="50px" viewBox="0 0 50 50" version="1.1" xmlns="http://www.w3.org/2000/svg" xmlns:xlink="http://www.w3.org/1999/xlink">
    <!-- Generator: Sketch 43.1 (39012) - http://www.bohemiancoding.com/sketch -->
    <title>icon-done-s</title>
    <desc>Created with Sketch.</desc>
    <defs></defs>
    <g id="Page-1" stroke="none" stroke-width="1" fill="none" fill-rule="evenodd">
        <g id="新建项目-项目详情-审核信息" transform="translate(-1219.000000, -324.000000)" fill-rule="nonzero">
            <g id="icon-done-s" transform="translate(1219.000000, 324.000000)">
                <path d="M14.4974227,35.4381443 L14.4974227,33.0218213 L15.302921,33.0218213 C17.5233677,33.0218213 19.3300687,31.2152921 19.3300687,28.9946735 C19.3300687,26.7742268 17.5235395,24.9675258 15.302921,24.9675258 L12.0812715,24.9675258 C10.7491409,24.9675258 9.66494845,23.8835052 9.66494845,22.5512027 C9.66494845,21.2189003 10.7489691,20.1350515 12.0812715,20.1350515 L15.302921,20.1350515 C16.6350515,20.1350515 17.719244,21.2190722 17.719244,22.5512027 L17.719244,23.356701 L19.3300687,23.356701 L19.3300687,22.5512027 C19.3300687,20.330756 17.5235395,18.5242268 15.302921,18.5242268 L14.4974227,18.5242268 L14.4974227,16.1082474 L12.8865979,16.1082474 L12.8865979,18.5245704 L12.0810997,18.5245704 C9.86065292,18.5245704 8.05395189,20.3310997 8.05395189,22.5515464 C8.05395189,24.7719931 9.8604811,26.5786942 12.0810997,26.5786942 L15.3027491,26.5786942 C16.6348797,26.5786942 17.7190722,27.6627148 17.7190722,28.9950172 C17.7190722,30.3273196 16.6350515,31.4113402 15.3027491,31.4113402 L12.0810997,31.4113402 C10.7489691,31.4113402 9.66477663,30.3273196 9.66477663,28.9950172 L9.66477663,28.1895189 L8.05395189,28.1895189 L8.05395189,28.9950172 C8.05395189,31.2154639 9.8604811,33.0221649 12.0810997,33.0221649 L12.8865979,33.0221649 L12.8865979,35.438488 L14.4974227,35.438488 L14.4974227,35.4381443 Z" id="Shape" fill="#333333"></path>
                <path d="M49.935567,23.3570447 L49.935567,17.719244 L47.519244,17.719244 L47.519244,15.302921 L49.1300687,15.302921 L49.1300687,9.66494845 L31.4111684,9.66494845 L31.4111684,13.6920962 L29.8003436,13.6920962 L29.8003436,19.3298969 L32.2164948,19.3298969 L32.2164948,21.7462199 L30.6056701,21.7462199 L30.6056701,27.3840206 L32.2164948,27.3840206 L32.2164948,29.8003436 L28.9948454,29.8003436 L28.9948454,35.4383162 L30.6056701,35.4383162 L30.6056701,37.8546392 L18.274055,37.8546392 C23.5737113,35.9635739 27.3840206,30.9087629 27.3840206,24.9680412 C27.3840206,20.5544674 25.2487973,16.4467354 21.7226804,13.8888316 C22.2268041,13.4458763 22.5513746,12.8039519 22.5513746,12.0814433 C22.5513746,10.8709622 21.6541237,9.87457045 20.4910653,9.70137457 C21.8168385,8.12594502 22.5513746,6.14140893 22.5513746,4.02731959 L22.5513746,2.41649485 C22.5515464,1.08419244 21.4675258,0 20.1353952,0 C18.8032646,0 17.7190722,1.08402062 17.7190722,2.41632302 C17.7190722,2.86099656 17.3582474,3.22182131 16.9135739,3.22182131 C16.4689003,3.22182131 16.1080756,2.86099656 16.1080756,2.41632302 C16.1082474,1.08419244 15.0242268,0 13.6920962,0 C12.3599656,0 11.2757732,1.08419244 11.2757732,2.41632302 C11.2757732,2.86099656 10.9149485,3.22182131 10.4702749,3.22182131 C10.0256014,3.22182131 9.66477663,2.86099656 9.66477663,2.41632302 C9.66494845,1.08419244 8.58092784,0 7.24879725,0 C5.91666667,0 4.83247423,1.08419244 4.83247423,2.41632302 L4.83247423,4.02714777 C4.83247423,6.14054983 5.56701031,8.12594502 6.89278351,9.70120275 C5.72972509,9.87439863 4.83247423,10.8706186 4.83247423,12.0812715 C4.83247423,12.8037801 5.15704467,13.4457045 5.66116838,13.8886598 C2.13522337,16.4465636 0,20.5541237 0,24.9678694 C0,30.9085911 3.8104811,35.9634021 9.10996564,37.8544674 L0,37.8544674 L0,44.0286942 C0,47.2857388 2.64982818,49.935567 5.90687285,49.935567 L44.0286942,49.935567 C47.2857388,49.935567 49.935567,47.2857388 49.935567,44.0286942 L49.935567,37.8544674 L48.3247423,37.8544674 L48.3247423,33.8273196 L46.7139175,33.8273196 L46.7139175,31.4109966 L49.935567,31.4109966 L49.935567,25.7731959 L48.3247423,25.7731959 L48.3247423,23.3568729 L49.935567,23.3568729 L49.935567,23.3570447 Z M6.44329897,2.41632302 C6.44329897,1.97164948 6.80412371,1.61082474 7.24879725,1.61082474 C7.69347079,1.61082474 8.05429553,1.97164948 8.05429553,2.41632302 C8.05429553,3.74845361 9.13831615,4.83264605 10.4706186,4.83264605 C11.802921,4.83264605 12.8865979,3.74845361 12.8865979,2.41632302 C12.8865979,1.97164948 13.2474227,1.61082474 13.6920962,1.61082474 C14.1367698,1.61082474 14.4975945,1.97164948 14.4975945,2.41632302 C14.4975945,3.74845361 15.5816151,4.83264605 16.9139175,4.83264605 C18.2462199,4.83264605 19.3298969,3.74845361 19.3298969,2.41632302 C19.3298969,1.97164948 19.6907216,1.61082474 20.1353952,1.61082474 C20.5800687,1.61082474 20.9408935,1.97164948 20.9408935,2.41632302 L20.9408935,4.02714777 C20.9408935,6.23797251 19.9575601,8.27817869 18.2338488,9.66512027 L9.15103093,9.66512027 C7.4266323,8.27817869 6.44398625,6.23814433 6.44398625,4.02714777 L6.44398625,2.41632302 L6.44329897,2.41632302 L6.44329897,2.41632302 Z M7.24879725,11.2757732 L8.60670103,11.2757732 L18.7783505,11.2757732 L20.1353952,11.2757732 C20.5800687,11.2757732 20.9408935,11.6365979 20.9408935,12.0812715 C20.9408935,12.525945 20.5798969,12.8865979 20.1353952,12.8865979 L20.1345361,12.8865979 L7.24948454,12.8865979 L7.24862543,12.8865979 C6.80412371,12.8865979 6.44329897,12.5257732 6.44329897,12.0812715 C6.44329897,11.6367698 6.80412371,11.2757732 7.24879725,11.2757732 Z M1.61082474,24.9678694 C1.61082474,20.6475945 3.92714777,16.6551546 7.66907216,14.4975945 L19.7140893,14.4975945 C23.4560137,16.6553265 25.7723368,20.6477663 25.7723368,24.9678694 C25.7723368,31.6293814 20.3527491,37.0491409 13.6910653,37.0491409 C7.02938144,37.0491409 1.61082474,31.6293814 1.61082474,24.9678694 Z M48.3247423,19.3298969 L48.3247423,21.7462199 L45.9084192,21.7462199 L45.9084192,19.3298969 L47.519244,19.3298969 L48.3247423,19.3298969 Z M41.8814433,29.8003436 L41.8814433,27.3840206 L44.2977663,27.3840206 L44.2977663,29.8003436 L41.8814433,29.8003436 Z M40.2706186,37.8544674 L40.2706186,35.4381443 L42.6869416,35.4381443 L42.6869416,37.8544674 L40.2706186,37.8544674 Z M37.0489691,31.4111684 L37.0489691,33.8274914 L34.632646,33.8274914 L34.632646,31.4111684 L37.0489691,31.4111684 Z M44.2977663,19.3298969 L44.2977663,21.7462199 L41.8814433,21.7462199 L41.8814433,19.3298969 L44.2977663,19.3298969 Z M39.4652921,17.7190722 L39.4652921,15.302921 L41.8816151,15.302921 L41.8816151,17.719244 L39.4652921,17.719244 L39.4652921,17.7190722 Z M41.0761168,13.6920962 L41.0761168,11.2757732 L43.4924399,11.2757732 L43.4924399,13.6920962 L41.0761168,13.6920962 Z M39.4652921,13.6920962 L37.0489691,13.6920962 L37.0489691,11.2757732 L39.4652921,11.2757732 L39.4652921,13.6920962 Z M37.8544674,15.302921 L37.8544674,17.719244 L35.4381443,17.719244 L35.4381443,15.302921 L37.8544674,15.302921 Z M40.2706186,19.3298969 L40.2706186,21.7462199 L37.8542955,21.7462199 L37.8542955,19.3298969 L40.2706186,19.3298969 Z M38.6597938,23.3570447 L38.6597938,25.7731959 L36.2434708,25.7731959 L36.2434708,23.3568729 L38.6597938,23.3568729 L38.6597938,23.3570447 Z M40.2706186,27.3840206 L40.2706186,29.8003436 L37.8542955,29.8003436 L37.8542955,27.3840206 L40.2706186,27.3840206 Z M38.6597938,35.4381443 L38.6597938,37.8544674 L36.2434708,37.8544674 L36.2434708,35.4381443 L38.6597938,35.4381443 Z M38.6597938,33.8273196 L38.6597938,31.4109966 L41.0761168,31.4109966 L41.0761168,33.8273196 L38.6597938,33.8273196 Z M40.2706186,25.7731959 L40.2706186,23.3568729 L42.6869416,23.3568729 L42.6869416,25.7731959 L40.2706186,25.7731959 Z M45.9085911,17.7190722 L43.492268,17.7190722 L43.492268,15.302921 L45.9085911,15.302921 L45.9085911,17.7190722 Z M47.5194158,13.6920962 L45.1030928,13.6920962 L45.1030928,11.2757732 L47.5194158,11.2757732 L47.5194158,13.6920962 Z M33.0219931,11.2757732 L35.4383162,11.2757732 L35.4383162,13.6920962 L33.0219931,13.6920962 L33.0219931,11.2757732 Z M31.4111684,17.7190722 L31.4111684,15.302921 L33.8274914,15.302921 L33.8274914,17.719244 L32.2164948,17.719244 L31.4111684,17.719244 L31.4111684,17.7190722 Z M33.8273196,19.3298969 L36.2436426,19.3298969 L36.2436426,21.7462199 L33.8273196,21.7462199 L33.8273196,19.3298969 Z M32.2164948,23.3570447 L34.6328179,23.3570447 L34.6328179,25.7731959 L32.2164948,25.7731959 L32.2164948,23.3570447 Z M33.8273196,27.3840206 L36.2436426,27.3840206 L36.2436426,29.8003436 L33.8273196,29.8003436 L33.8273196,27.3840206 Z M30.6056701,31.4111684 L32.2164948,31.4111684 L33.0219931,31.4111684 L33.0219931,33.8274914 L30.6056701,33.8274914 L30.6056701,31.4111684 Z M32.2164948,35.4381443 L34.6328179,35.4381443 L34.6328179,37.8544674 L32.2164948,37.8544674 L32.2164948,35.4381443 Z M48.3247423,41.8814433 L37.8542955,41.8814433 L37.8542955,43.492268 L48.3247423,43.492268 L48.3247423,44.0286942 C48.3247423,46.3974227 46.3974227,48.3247423 44.0286942,48.3247423 L5.90687285,48.3247423 C3.53814433,48.3247423 1.61082474,46.3974227 1.61082474,44.0286942 L1.61082474,43.492268 L35.4381443,43.492268 L35.4381443,41.8814433 L1.61082474,41.8814433 L1.61082474,39.4651203 L30.6056701,39.4651203 L48.3247423,39.4651203 L48.3247423,41.8814433 Z M46.7139175,37.8544674 L44.2975945,37.8544674 L44.2975945,35.4381443 L46.7139175,35.4381443 L46.7139175,37.8544674 Z M45.1030928,33.8273196 L42.6867698,33.8273196 L42.6867698,31.4109966 L45.1030928,31.4109966 L45.1030928,33.8273196 Z M48.3247423,29.8003436 L46.7139175,29.8003436 L45.9084192,29.8003436 L45.9084192,27.3840206 L48.3247423,27.3840206 L48.3247423,29.8003436 Z M46.7139175,25.7731959 L44.2975945,25.7731959 L44.2975945,23.3568729 L46.7139175,23.3568729 L46.7139175,25.7731959 Z" id="Shape" fill="#333333"></path>
                <rect id="Rectangle-path" fill="#34B3DC" x="1.61082474" y="39.4652921" width="46.7139175" height="2.41632302"></rect>
            </g>
        </g>
    </g>
</svg>