<?xml version="1.0" encoding="UTF-8"?>
<svg width="50px" height="50px" viewBox="0 0 50 50" version="1.1" xmlns="http://www.w3.org/2000/svg" xmlns:xlink="http://www.w3.org/1999/xlink">
    <!-- Generator: Sketch 43.1 (39012) - http://www.bohemiancoding.com/sketch -->
    <title>icon-Final judgment-s</title>
    <desc>Created with Sketch.</desc>
    <defs></defs>
    <g id="Page-1" stroke="none" stroke-width="1" fill="none" fill-rule="evenodd">
        <g id="新建项目-项目详情-审核信息" transform="translate(-779.000000, -322.000000)" fill-rule="nonzero">
            <g id="Group-19" transform="translate(346.000000, 322.000000)">
                <g id="Group-8" transform="translate(430.000000, 0.000000)">
                    <g id="icon-Final-judgment-s" transform="translate(3.000000, 0.000000)">
                        <path d="M24.9494792,3.70794271 L24.9494792,3.70794271 C13.1986979,3.70794271 3.6953125,13.2028646 3.6953125,24.953776 L3.6953125,24.953776 C3.6953125,36.7045573 13.1902344,46.2079427 24.9411458,46.2079427 L24.9411458,46.2079427 C36.6919271,46.2079427 46.1953125,36.7130208 46.1953125,24.953776 L46.1953125,24.953776 C46.2036458,13.2028646 36.7003906,3.70794271 24.9494792,3.70794271 Z" id="Shape" stroke="#193651" stroke-width="2" fill="#FFFFFF"></path>
                        <path d="M24.9494792,40.4082031 C16.4140625,40.4082031 9.49492187,33.4890625 9.49492187,24.9536458 C9.49492187,16.4182292 16.4141927,9.49921875 24.9494792,9.49921875 C33.4847656,9.49921875 40.4040365,16.4183594 40.4040365,24.953776 C40.4040365,33.4891927 33.4848958,40.4082031 24.9494792,40.4082031 Z" id="SVGCleanerId_0" fill="#F16051"></path>
                        <path d="M24.9494792,35.2567708 C19.3182292,35.2567708 14.6464844,30.6692708 14.6464844,24.953776 C14.6464844,19.322526 19.2339844,14.6507812 24.9494792,14.6507812 C30.5807292,14.6507812 35.252474,19.2382812 35.252474,24.953776 C35.252474,30.585026 30.5808594,35.2567708 24.9494792,35.2567708 Z" id="Shape" stroke="#193651" stroke-width="2" fill="#FFFFFF"></path>
                        <polygon id="Shape" fill="#2EA2DB" points="27.9292969 21.8981771 20.2777344 20.2820312 21.8938802 27.9334635 23.0976562 25.7617187 27.0454427 29.6253906 29.621224 27.0496094 25.7575521 23.1018229"></polygon>
                        <path d="M24.9494792,3.70794271 L24.9494792,3.70794271 C13.1986979,3.70794271 3.6953125,13.2028646 3.6953125,24.953776 L3.6953125,24.953776 C3.6953125,36.7045573 13.1902344,46.2079427 24.9411458,46.2079427 L24.9411458,46.2079427 C36.6919271,46.2079427 46.1953125,36.7130208 46.1953125,24.953776 L46.1953125,24.953776 C46.2036458,13.2028646 36.7003906,3.70794271 24.9494792,3.70794271 Z" id="Shape" fill="#FFFFFF"></path>
                        <path d="M24.9494792,40.4082031 C16.4140625,40.4082031 9.49492187,33.4890625 9.49492187,24.9536458 C9.49492187,16.4182292 16.4141927,9.49921875 24.9494792,9.49921875 C33.4847656,9.49921875 40.4040365,16.4183594 40.4040365,24.953776 C40.4040365,33.4891927 33.4848958,40.4082031 24.9494792,40.4082031 Z" id="SVGCleanerId_0_1_" fill="#34B3DC"></path>
                        <path d="M24.9494792,35.2567708 C19.3182292,35.2567708 14.6464844,30.6692708 14.6464844,24.953776 C14.6464844,19.322526 19.2339844,14.6507812 24.9494792,14.6507812 C30.5807292,14.6507812 35.252474,19.2382812 35.252474,24.953776 C35.252474,30.585026 30.5808594,35.2567708 24.9494792,35.2567708 Z" id="Shape" fill="#FFFFFF"></path>
                        <g id="Group" transform="translate(11.197917, 10.807292)" fill="#193651">
                            <rect id="Rectangle-path" transform="translate(1.193579, 26.298307) rotate(134.983794) translate(-1.193579, -26.298307) " x="0.389745593" y="25.4944734" width="1.60766694" height="1.60766694"></rect>
                            <rect id="Rectangle-path" transform="translate(26.304396, 1.181341) rotate(134.983794) translate(-26.304396, -1.181341) " x="25.5005628" y="0.377507507" width="1.60766694" height="1.60766694"></rect>
                            <rect id="Rectangle-path" transform="translate(1.197204, 1.184723) rotate(135.000000) translate(-1.197204, -1.184723) " x="0.393370573" y="0.380889805" width="1.60766687" height="1.60766687"></rect>
                            <rect id="Rectangle-path" transform="translate(26.313438, 26.294972) rotate(135.000000) translate(-26.313438, -26.294972) " x="25.5096042" y="25.4911388" width="1.60766687" height="1.60766687"></rect>
                        </g>
                        <polygon id="Shape" fill="#2EA2DB" points="27.9292969 21.8981771 20.2777344 20.2820312 21.8938802 27.9334635 23.0976562 25.7617187 27.0454427 29.6253906 29.621224 27.0496094 25.7575521 23.1018229"></polygon>
                        <path d="M46.9276042,24.1455729 C46.5235677,12.6388021 37.2726563,3.37955729 25.7575521,2.97552083 L25.7575521,0.00416666667 L24.1498698,0.00416666667 L24.1498698,2.98398437 C12.6346354,3.3796875 3.37539063,12.6389323 2.97135417,24.1455729 L0,24.1455729 L0,25.7532552 L2.97981771,25.7532552 C3.38385417,37.260026 12.643099,46.5192708 24.1498698,46.9233073 L24.1498698,49.903125 L25.7575521,49.903125 L25.7575521,46.9233073 C37.2643229,46.5192708 46.5235677,37.260026 46.9276042,25.7532552 L49.9074219,25.7532552 L49.9074219,24.1455729 L46.9276042,24.1455729 L46.9276042,24.1455729 Z M34.36875,25.7617187 C33.9647135,30.3492187 30.3451823,33.96875 25.7576823,34.3727865 L25.7576823,32.5209635 L24.15,32.5209635 L24.15,34.3727865 C19.5625,33.96875 15.9429688,30.3492187 15.5389323,25.7617187 L17.3907552,25.7617187 L17.3907552,24.1540365 L15.5389323,24.1540365 C15.9429688,19.5665365 19.5625,15.9470052 24.15,15.5429687 L24.15,17.3947917 L25.7576823,17.3947917 L25.7576823,15.5429687 C30.3451823,15.9470052 33.9647135,19.5665365 34.36875,24.1540365 L32.5169271,24.1540365 L32.5169271,25.7617187 L34.36875,25.7617187 Z M24.1414063,4.59179687 L24.1414063,13.9268229 C18.6700521,14.3308594 14.3182292,18.674349 13.922526,24.1457031 L4.5875,24.1457031 C4.98320313,13.5227865 13.5184896,4.98736979 24.1414063,4.59179687 Z M4.5875,25.7617187 L13.922526,25.7617187 C14.3265625,31.2330729 18.6700521,35.5848958 24.1414063,35.980599 L24.1414063,45.315625 C13.5184896,44.9115885 4.98320313,36.3846354 4.5875,25.7617187 Z M25.7575521,45.315625 L25.7575521,35.980599 C31.2289063,35.5765625 35.5807292,31.2330729 35.9764323,25.7617187 L45.3114583,25.7617187 C44.9074219,36.3846354 36.3804688,44.9115885 25.7575521,45.315625 Z M35.9764323,24.1455729 C35.5723958,18.6742187 31.2289062,14.3223958 25.7575521,13.9266927 L25.7575521,4.59179687 C36.3804687,4.99583333 44.9157552,13.5227865 45.3197917,24.1540365 L35.9763021,24.1540365 L35.9763021,24.1455729 L35.9764323,24.1455729 Z" id="Shape" fill="#193651"></path>
                    </g>
                </g>
            </g>
        </g>
    </g>
</svg>