<?xml version="1.0" encoding="UTF-8" standalone="no"?>
<svg width="61px" height="66px" viewBox="0 0 61 66" version="1.1" xmlns="http://www.w3.org/2000/svg" xmlns:xlink="http://www.w3.org/1999/xlink">
    <!-- Generator: Sketch 47.1 (45422) - http://www.bohemiancoding.com/sketch -->
    <title>Group 21</title>
    <desc>Created with Sketch.</desc>
    <defs></defs>
    <g id="Page-1" stroke="none" stroke-width="1" fill="none" fill-rule="evenodd">
        <g id="渠道单号-单号库存－导入单号" transform="translate(-690.000000, -446.000000)" fill-rule="nonzero">
            <g id="Group-21" transform="translate(690.000000, 446.000000)">
                <g id="word">
                    <path d="M61,62.425 C61,64.35 59.3363636,66 57.1181818,66 L3.88181816,66 C1.66363636,66 0,64.35 0,62.425 L0,3.57500002 C-4.61751849e-16,1.65 1.66363636,0 3.88181816,0 L47.1363636,0 L47.1363636,6.6 L53.2363637,13.75 L61,13.75 L61,62.425 Z" id="Shape" fill="#3BAFDA"></path>
                    <path d="M47.1796875,0 L48,5.77500001 C48,6.32499998 49.3,13.2 50.08,13.75 L61,22 L61,12.75 L47.1796875,0 Z" id="Shape" fill="#308FB2"></path>
                    <path d="M47,10.4 C47,11.96 48.5,13.0000001 50,13 L61,13 L47,0 L47,10.4 Z" id="Shape" fill="#51BEE7"></path>
                </g>
                <g id="上传-(2)" transform="translate(12.000000, 20.000000)" fill="#FFFFFF">
                    <path d="M13.6684677,6.60808459 C13.6684677,6.60808459 11.4101045,4.31618989 8.34602881,6.18794147 C5.60458836,7.97489621 6.0893751,11.2452739 6.0893751,11.2452739 C6.0893751,11.2452739 0,12.4943052 0,19.0469596 C0.135758633,25.5890093 6.6129798,25.6561036 6.6129798,25.6561036 L16.335858,25.6666667 L16.335858,18.6625139 L11.673658,18.6625139 L18.6683131,11.6588203 L25.6620925,18.6625139 L20.9989752,18.6625139 L20.9989752,25.6666249 L30.4397873,25.6560618 C30.4397873,25.6560618 36.4674957,25.6613643 37.3146112,19.4375011 C37.717384,12.6297881 31.487914,11.288069 31.487914,11.288069 C31.487914,11.288069 32.1966025,1.21085501 23.4486764,0.0620268172 C15.9498465,-0.746027436 13.6684677,6.60808459 13.6684677,6.60808459 Z" id="Shape"></path>
                </g>
            </g>
        </g>
    </g>
</svg>