<?xml version="1.0" encoding="UTF-8"?>
<svg width="52px" height="45px" viewBox="0 0 52 45" version="1.1" xmlns="http://www.w3.org/2000/svg" xmlns:xlink="http://www.w3.org/1999/xlink">
    <!-- Generator: Sketch 43.1 (39012) - http://www.bohemiancoding.com/sketch -->
    <title>icon-solicitation</title>
    <desc>Created with Sketch.</desc>
    <defs></defs>
    <g id="Page-1" stroke="none" stroke-width="1" fill="none" fill-rule="evenodd">
        <g id="Artboard" transform="translate(-644.000000, -408.000000)" fill-rule="nonzero" fill="#BDBDBD">
            <g id="icon-solicitation" transform="translate(644.000000, 408.000000)">
                <ellipse id="Oval" cx="30.9921787" cy="18.4442749" rx="6.70103093" ry="6.70103093"></ellipse>
                <path d="M25.9664055,33.5217732 C24.1185292,33.5217732 22.61589,35.0244124 22.61589,36.8722887 C22.61589,38.7201649 24.1185292,40.2228041 25.9664055,40.2228041 C27.8142818,40.2228041 29.316921,38.7201649 29.316921,36.8722887 C29.316921,35.0244124 27.8142818,33.5217732 25.9664055,33.5217732 Z M25.9664055,38.5475464 C25.0425567,38.5475464 24.2911478,37.7961375 24.2911478,36.8722887 C24.2911478,35.9484399 25.0425567,35.1970309 25.9664055,35.1970309 C26.8902543,35.1970309 27.6416632,35.9484399 27.6416632,36.8722887 C27.6416632,37.7961375 26.890433,38.5475464 25.9664055,38.5475464 Z" id="Shape"></path>
                <path d="M50.7318076,25.6706667 C49.9803986,25.1495945 49.0188454,25.0314777 48.1611134,25.3506254 L48.0647973,25.3867216 L39.00411,3.14591065 L16.1519863,11.3077663 L11.4478625,0.0166185567 L2.51279725,0.0166185567 C1.12738144,0.0166185567 0,1.144 0,2.52941581 C0,3.91483162 1.12738144,5.04239175 2.51279725,5.04239175 L7.82340893,5.04239175 L19.6674364,32.7410584 C18.8860069,33.9288385 18.4278351,35.3469553 18.4278351,36.8722887 C18.4278351,41.0294296 21.8101581,44.4110378 25.9664055,44.4110378 C30.1226529,44.4110378 33.5049759,41.0296082 33.5049759,36.8722887 C33.5049759,36.7893746 33.4949691,36.7080687 33.4924674,36.6260481 L50.0951203,30.5892234 C51.1940893,30.1887698 51.932811,29.1350103 51.932811,27.964921 C51.9329897,27.0492921 51.4839313,26.1924536 50.7318076,25.6706667 Z M28.1216357,8.81158763 L30.7116289,14.6389828 L28.0798213,15.6918488 L25.4464055,9.76724399 L28.1216357,8.81158763 Z M23.8640687,10.3319175 L27.2036838,17.8463643 L32.9481649,15.5487148 L29.7032577,8.24709278 L38.0577457,5.26343643 L46.4960412,25.9755189 L31.3844124,31.6429828 C30.0123986,30.2214708 28.0925086,29.3337182 25.9665842,29.3337182 C25.2119588,29.3337182 24.4848522,29.4484399 23.7970584,29.6553677 L16.7968935,12.8556151 L23.8640687,10.3319175 Z M2.51279725,3.36713402 C2.05123024,3.36713402 1.67525773,2.99187629 1.67525773,2.52941581 C1.67525773,2.06695533 2.05140893,1.69169759 2.51279725,1.69169759 L10.3303093,1.69169759 L22.2572509,30.3168935 C21.7597663,30.5992302 21.300701,30.9383918 20.8818419,31.3220481 L8.92916838,3.36713402 L2.51279725,3.36713402 Z M25.9664055,42.7356014 C22.7331134,42.7356014 20.1030928,40.1046873 20.1030928,36.87211 C20.1030928,33.6395326 22.7332921,31.0086186 25.9664055,31.0086186 C29.1995189,31.0086186 31.8297182,33.6395326 31.8297182,36.87211 C31.8297182,40.1046873 29.1996976,42.7356014 25.9664055,42.7356014 Z M49.5231203,29.0143918 L33.2439038,34.9339931 C33.0637801,34.2588866 32.7932371,33.6214845 32.44389,33.0342955 L48.7491959,26.9195601 C49.0976495,26.7880412 49.471299,26.8350378 49.7777595,27.0469691 C50.0826117,27.2589003 50.257732,27.5939519 50.257732,27.964921 C50.257732,28.4330997 49.9619931,28.8544605 49.5231203,29.0143918 Z" id="Shape"></path>
            </g>
        </g>
    </g>
</svg>