<?xml version="1.0" encoding="utf-8"?>
<!-- Generator: Adobe Illustrator 19.0.0, SVG Export Plug-In . SVG Version: 6.00 Build 0)  -->
<svg version="1.1" id="图层_1" xmlns="http://www.w3.org/2000/svg" xmlns:xlink="http://www.w3.org/1999/xlink" x="0px" y="0px"
	 viewBox="-203 152 11.2 14" style="enable-background:new -203 152 11.2 14;" xml:space="preserve">
<style type="text/css">
	.st0{fill:#6CA26B;}
	.st1{fill:#FFFFFF;}
</style>
<polygon id="XMLID_114_" class="st0" points="-203,152 -191.8,152 -191.8,161.7 -197.4,166 -203,161.7 "/>
<g id="XMLID_113_">
	<path id="XMLID_98_" class="st1" d="M-193.9,155.3l-2.2,1.9l-1.4,1.1l-1.3-1.1l-2.2-1.9v0.1v4v0.1c0,0.2,0.2,0.4,0.4,0.4h6.3
		c0.2,0,0.3-0.1,0.4-0.3l0,0v-0.1v-4C-193.8,155.4-193.8,155.3-193.9,155.3z"/>
	<path id="XMLID_96_" class="st1" d="M-198,157.3l0.6,0.5l0.6-0.5l0.3-0.3l2.3-2h-0.1h-6.3h-0.1l2.3,2L-198,157.3z"/>
</g>
</svg>
