<?xml version="1.0" encoding="utf-8"?>
<!-- Generator: Adobe Illustrator 19.0.0, SVG Export Plug-In . SVG Version: 6.00 Build 0)  -->
<svg version="1.1" id="图层_1" xmlns="http://www.w3.org/2000/svg" xmlns:xlink="http://www.w3.org/1999/xlink" x="0px" y="0px"
	 viewBox="-203 152 11.2 14" style="enable-background:new -203 152 11.2 14;" xml:space="preserve">
<style type="text/css">
	.st0{fill-rule:evenodd;clip-rule:evenodd;fill:#F06261;}
	.st1{fill:#FFFFFF;}
</style>
<polygon id="XMLID_128_" class="st0" points="-203,152 -191.8,152 -191.8,161.7 -197.4,166 -203,161.7 "/>
<path id="XMLID_126_" class="st1" d="M-198.8,157.3l0.6,0.5l0.6-0.5l0.3-0.3l2.3-2c0,0-0.1,0-0.1,0h-6.3c0,0-0.1,0-0.1,0l2.3,2
	L-198.8,157.3z"/>
<path id="XMLID_129_" class="st1" d="M-197.2,159.4c0-1.3,1-2.3,2.3-2.3c0.1,0,0.2,0,0.3,0v-1.7c0,0,0-0.1,0-0.1l-2.2,1.9l-1.4,1.1
	l-1.3-1.1l-2.2-1.9c0,0,0,0.1,0,0.1v4c0,0,0,0.1,0,0.1c0,0.2,0.2,0.4,0.4,0.4h4.1C-197.2,159.7-197.2,159.5-197.2,159.4z"/>
<path id="XMLID_12_" class="st1" d="M-194.9,157.6c-1,0-1.8,0.8-1.8,1.8c0,1,0.8,1.8,1.8,1.8s1.8-0.8,1.8-1.8
	C-193.1,158.4-193.9,157.6-194.9,157.6z M-194.9,160.3c-0.1,0-0.2-0.1-0.2-0.2c0-0.1,0.1-0.2,0.2-0.2s0.2,0.1,0.2,0.2
	C-194.7,160.2-194.8,160.3-194.9,160.3z M-194.7,159.7h-0.3v-1.5h0.3V159.7z"/>
</svg>
