<?xml version="1.0" encoding="utf-8"?>
<!-- Generator: Adobe Illustrator 19.0.0, SVG Export Plug-In . SVG Version: 6.00 Build 0)  -->
<svg version="1.1" id="图层_1" xmlns="http://www.w3.org/2000/svg" xmlns:xlink="http://www.w3.org/1999/xlink" x="0px" y="0px"
	 viewBox="-203 152 11.2 14" style="enable-background:new -203 152 11.2 14;" xml:space="preserve">
<style type="text/css">
	.st0{fill:#6CA26B;}
	.st1{fill:#FFFFFF;}
</style>
<polygon id="XMLID_133_" class="st0" points="-203,152 -191.8,152 -191.8,161.7 -197.4,166 -203,161.7 "/>
<path id="XMLID_134_" class="st1" d="M-197.4,154c-1.8,0-3.3,1.4-3.3,2.9c0,0.9,0.5,1.7,1.3,2.2c0,0.7-0.5,1.2-0.5,1.2
	s1.3-0.2,1.9-0.7c0.2,0,0.5,0.1,0.7,0.1c1.8,0,3.2-1.2,3.2-2.8C-194.1,155.4-195.6,154-197.4,154z M-198.8,157.3
	c-0.2,0-0.4-0.2-0.4-0.4s0.2-0.4,0.4-0.4s0.4,0.2,0.4,0.4S-198.6,157.3-198.8,157.3z M-197.3,157.3c-0.2,0-0.4-0.2-0.4-0.4
	s0.2-0.4,0.4-0.4s0.4,0.2,0.4,0.4S-197.1,157.3-197.3,157.3z M-195.8,157.3c-0.2,0-0.4-0.2-0.4-0.4s0.2-0.4,0.4-0.4s0.4,0.2,0.4,0.4
	S-195.6,157.3-195.8,157.3z"/>
</svg>
