<?xml version="1.0" encoding="utf-8"?>
<!-- Generator: Adobe Illustrator 19.0.0, SVG Export Plug-In . SVG Version: 6.00 Build 0)  -->
<svg version="1.1" id="图层_1" xmlns="http://www.w3.org/2000/svg" xmlns:xlink="http://www.w3.org/1999/xlink" x="0px" y="0px"
	 viewBox="-203 152 11.2 14" style="enable-background:new -203 152 11.2 14;" xml:space="preserve">
<style type="text/css">
	.st0{fill-rule:evenodd;clip-rule:evenodd;fill:#F06261;}
	.st1{fill:#FFFFFF;}
</style>
<polygon id="XMLID_140_" class="st0" points="-203,152 -191.8,152 -191.8,161.7 -197.4,166 -203,161.7 "/>
<g id="XMLID_135_">
	<path id="XMLID_148_" class="st1" d="M-197.4,159.4c0-1.3,1-2.3,2.3-2.3c0,0,0-0.1,0-0.1c0-1.5-1.4-2.9-3.2-2.9
		c-1.8,0-3.3,1.4-3.3,2.9c0,0.9,0.5,1.7,1.3,2.2c0,0.7-0.5,1.2-0.5,1.2s1.3-0.2,1.9-0.7c0.2,0,0.5,0.1,0.7,0.1
		c0.3,0,0.6-0.1,0.9-0.1C-197.4,159.5-197.4,159.5-197.4,159.4z M-196.7,156.5c0.2,0,0.4,0.2,0.4,0.4s-0.2,0.4-0.4,0.4
		s-0.4-0.2-0.4-0.4S-197,156.5-196.7,156.5z M-199.8,157.3c-0.2,0-0.4-0.2-0.4-0.4s0.2-0.4,0.4-0.4s0.4,0.2,0.4,0.4
		S-199.5,157.3-199.8,157.3z M-198.2,157.3c-0.2,0-0.4-0.2-0.4-0.4s0.2-0.4,0.4-0.4s0.4,0.2,0.4,0.4S-198,157.3-198.2,157.3z"/>
	<path id="XMLID_125_" class="st1" d="M-195,157.6c-1,0-1.8,0.8-1.8,1.8c0,1,0.8,1.8,1.8,1.8c1,0,1.8-0.8,1.8-1.8
		C-193.2,158.4-194,157.6-195,157.6z M-195,160.3c-0.1,0-0.2-0.1-0.2-0.2c0-0.1,0.1-0.2,0.2-0.2c0.1,0,0.2,0.1,0.2,0.2
		C-194.9,160.2-194.9,160.3-195,160.3z M-194.9,159.7h-0.3v-1.5h0.3V159.7z"/>
</g>
</svg>
