<?xml version="1.0" encoding="UTF-8"?>
<svg width="56px" height="60px" viewBox="0 0 56 60" version="1.1" xmlns="http://www.w3.org/2000/svg" xmlns:xlink="http://www.w3.org/1999/xlink">
    <!-- Generator: Sketch 47.1 (45422) - http://www.bohemiancoding.com/sketch -->
    <title>contract(1)</title>
    <desc>Created with Sketch.</desc>
    <defs></defs>
    <g id="Page-1" stroke="none" stroke-width="1" fill="none" fill-rule="evenodd" opacity="0.08">
        <g id="仪表盘-核心指标-效果2" transform="translate(-630.000000, -259.000000)" fill="#0A0B09">
            <g id="Group-6" transform="translate(226.000000, 159.000000)">
                <g id="card-1-copy-6" transform="translate(240.000000, 100.000000)">
                    <g id="BG">
                        <g id="contract(1)" transform="translate(196.500000, 29.000000) rotate(-9.000000) translate(-196.500000, -29.000000) translate(168.000000, 0.000000)">
                            <path d="M12.5413861,11.2485778 L34.5002645,11.2485778 C35.2077497,11.2485778 35.781171,10.6751565 35.781171,9.96778354 C35.781171,9.26029828 35.2077497,8.68687704 34.5002645,8.68687704 L12.5413861,8.68687704 C11.8340131,8.68687704 11.2604796,9.26029828 11.2604796,9.96778354 C11.2604796,10.6751565 11.8340131,11.2485778 12.5413861,11.2485778" id="Fill-1"></path>
                            <path d="M7.16175844,11.2485778 L7.48198506,11.2485778 C8.18935804,11.2485778 8.76277928,10.6751565 8.76277928,9.96778354 C8.76277928,9.26029828 8.18935804,8.68687704 7.48198506,8.68687704 L7.16175844,8.68687704 C6.45427318,8.68687704 5.88085194,9.26029828 5.88085194,9.96778354 C5.88085194,10.6751565 6.45427318,11.2485778 7.16175844,11.2485778" id="Fill-2"></path>
                            <path d="M7.16175844,16.3720915 L34.5002645,16.3720915 C35.2077497,16.3720915 35.781171,15.7986702 35.781171,15.091185 C35.781171,14.383812 35.2077497,13.8103908 34.5002645,13.8103908 L7.16175844,13.8103908 C6.45427318,13.8103908 5.88085194,14.383812 5.88085194,15.091185 C5.88085194,15.7986702 6.45427318,16.3720915 7.16175844,16.3720915" id="Fill-3"></path>
                            <path d="M7.16175844,21.4956052 L34.5002645,21.4956052 C35.2077497,21.4956052 35.781171,20.922184 35.781171,20.2146987 C35.781171,19.5073257 35.2077497,18.9337922 34.5002645,18.9337922 L7.16175844,18.9337922 C6.45427318,18.9337922 5.88085194,19.5073257 5.88085194,20.2146987 C5.88085194,20.922184 6.45427318,21.4956052 7.16175844,21.4956052" id="Fill-4"></path>
                            <path d="M20.1626001,24.0573059 L19.6503723,24.0573059 C18.9429993,24.0573059 18.3694658,24.6308394 18.3694658,25.3382124 C18.3694658,26.0455854 18.9429993,26.6191189 19.6503723,26.6191189 L20.1626001,26.6191189 C20.8699731,26.6191189 21.4435066,26.0455854 21.4435066,25.3382124 C21.4435066,24.6308394 20.8698608,24.0573059 20.1626001,24.0573059" id="Fill-5"></path>
                            <g id="Group-9">
                                <path d="M7.16175844,26.6191189 L15.1991997,26.6191189 C15.906685,26.6191189 16.4801062,26.0455854 16.4801062,25.3382124 C16.4801062,24.6308394 15.906685,24.0573059 15.1991997,24.0573059 L7.16175844,24.0573059 C6.45427318,24.0573059 5.88085194,24.6308394 5.88085194,25.3382124 C5.88085194,26.0455854 6.45427318,26.6191189 7.16175844,26.6191189" id="Fill-6"></path>
                                <path d="M53.5188291,7.26022925 L52.5581493,8.92423997 L48.1211242,6.36242697 L49.0816918,4.69852853 C49.7880542,3.4752224 51.3578608,3.05472846 52.581167,3.76086634 C53.173676,4.10298785 53.5976507,4.65541246 53.7747185,5.31641321 C53.9518986,5.97730168 53.8609506,6.66760789 53.5188291,7.26022925 Z M49.6762219,13.9159353 L45.2390845,11.3541223 L46.8402177,8.58099566 L51.2772428,11.1426964 L49.6762219,13.9159353 Z M32.0642067,44.4206652 L27.626957,41.8588522 L43.9580658,13.5725787 L48.3952031,16.1343917 L32.0642067,44.4206652 Z M30.0977098,46.2434419 L26.7945025,48.424284 L27.0317532,44.4733252 L30.0977098,46.2434419 Z M39.1003222,54.9263891 L12.4245011,54.9263891 L12.4245011,46.3444952 C12.4245011,45.6371222 11.8509676,45.0635887 11.1435946,45.0635887 L2.56170072,45.0635887 L2.56170072,2.56170072 L39.1003222,2.56170072 L39.1003222,16.8633227 L34.9468077,24.0571936 L24.7415489,24.0571936 C24.034176,24.0571936 23.4607547,24.6306149 23.4607547,25.3381001 C23.4607547,26.0454731 24.034176,26.6190066 24.7415489,26.6190066 L33.4677245,26.6190066 L31.9887535,29.1807074 L7.16175844,29.1807074 C6.45427318,29.1807074 5.88085194,29.7541286 5.88085194,30.4616139 C5.88085194,31.1689868 6.45427318,31.7424081 7.16175844,31.7424081 L30.5096703,31.7424081 L29.0306994,34.3042211 L7.16175844,34.3042211 C6.45427318,34.3042211 5.88085194,34.8776423 5.88085194,35.5850153 C5.88085194,36.2925006 6.45427318,36.8659218 7.16175844,36.8659218 L27.5517284,36.8659218 L24.7680473,41.6872862 C24.6666572,41.8630066 24.613099,42.05265 24.6005235,42.2422933 C24.6002989,42.2454372 24.5990638,42.2476828 24.5988392,42.250939 L24.0841412,50.8278925 C24.0550603,51.3122746 24.3020794,51.7713933 24.7222365,52.0139212 C24.8862797,52.1086867 25.0660423,52.1616836 25.2479382,52.1780766 C25.2787033,52.1827925 34.6577953,52.1854872 34.6577953,52.1854872 C35.3652806,52.1854872 35.9387018,51.612066 35.9387018,50.904693 C35.9387018,50.1972077 35.3652806,49.6237865 34.6577953,49.6237865 L29.6273629,49.6237865 L33.2388949,47.2391536 C33.2418142,47.2372448 33.2432739,47.2346623 33.2460809,47.2327535 C33.4070925,47.1248511 33.543739,46.9816923 33.6424344,46.8107999 L39.1005467,37.357153 L39.1005467,54.9263891 L39.1003222,54.9263891 Z M9.86268813,53.1149529 L4.37313696,47.6254017 L9.86268813,47.6254017 L9.86268813,53.1149529 Z M56.2491766,4.65327911 C55.8949287,3.33138989 55.0473162,2.22654067 53.8620735,1.54229766 C51.4153489,0.129797328 48.2756234,0.971009767 46.8632354,3.41762203 L41.6621352,12.4264099 L41.6621352,1.2809065 C41.6621352,0.57342124 41.0887139,0 40.3812287,0 L1.2809065,0 C0.57342124,0 0,0.57342124 0,1.2809065 L0,46.3444952 C0,46.6841465 0.134962273,47.0100995 0.375132242,47.2501572 L10.2378204,57.1129576 C10.4779903,57.3531275 10.8039433,57.4880898 11.1435946,57.4880898 L40.3811164,57.4880898 C41.0886017,57.4880898 41.6620229,56.9146686 41.6620229,56.2071833 L41.6620229,32.9202402 L55.7372855,8.54113575 C56.4216408,7.35589302 56.6034245,5.97516833 56.2491766,4.65327911 L56.2491766,4.65327911 Z" id="Fill-8"></path>
                            </g>
                        </g>
                    </g>
                </g>
            </g>
        </g>
    </g>
</svg>