<?xml version="1.0" encoding="UTF-8"?>
<svg width="394px" height="483px" viewBox="0 0 394 483" version="1.1" xmlns="http://www.w3.org/2000/svg" xmlns:xlink="http://www.w3.org/1999/xlink">
    <!-- Generator: Sketch 41.2 (35397) - http://www.bohemiancoding.com/sketch -->
    <title>pdf-file</title>
    <desc>Created with Sketch.</desc>
    <defs></defs>
    <g id="Page-1" stroke="none" stroke-width="1" fill="none" fill-rule="evenodd">
        <g id="pdf-file" fill="#555555">
            <g id="Group">
                <path d="M98.024,310.194 C98.024,302.187 92.468,297.412 82.665,297.412 C78.662,297.412 75.951,297.807 74.533,298.185 L74.533,323.875 C76.212,324.253 78.276,324.379 81.121,324.379 C91.57,324.379 98.024,319.1 98.024,310.194 Z" id="Shape"></path>
                <path d="M158.709,297.681 C154.319,297.681 151.482,298.06 149.804,298.453 L149.804,355.349 C151.483,355.743 154.194,355.743 156.645,355.743 C174.454,355.869 186.069,346.066 186.069,325.294 C186.195,307.231 175.611,297.681 158.709,297.681 Z" id="Shape"></path>
                <path d="M271.458,0 L77.811,0 C49.521,0 26.496,23.041 26.496,51.315 L26.496,241.069 L21.484,241.069 C10.066,241.069 0.806,250.32 0.806,261.748 L0.806,387.152 C0.806,398.579 10.065,407.829 21.484,407.829 L26.496,407.829 L26.496,430.824 C26.496,459.129 49.521,482.139 77.811,482.139 L342.034,482.139 C370.306,482.139 393.334,459.128 393.334,430.824 L393.334,121.449 L271.458,0 Z M55.053,284.379 C61.113,283.355 69.631,282.583 81.632,282.583 C93.76,282.583 102.404,284.898 108.212,289.548 C113.76,293.93 117.504,301.163 117.504,309.675 C117.504,318.185 114.667,325.42 109.505,330.321 C102.791,336.641 92.862,339.478 81.247,339.478 C78.662,339.478 76.345,339.35 74.533,339.099 L74.533,370.195 L55.053,370.195 L55.053,284.379 Z M342.034,450.713 L77.811,450.713 C66.857,450.713 57.937,441.793 57.937,430.824 L57.937,407.829 L304.247,407.829 C315.667,407.829 324.926,398.579 324.926,387.152 L324.926,261.748 C324.926,250.32 315.667,241.069 304.247,241.069 L57.937,241.069 L57.937,51.315 C57.937,40.377 66.858,31.457 77.811,31.457 L259.701,31.267 L259.701,98.5 C259.701,118.138 275.635,134.087 295.288,134.087 L361.15,133.898 L361.891,430.823 C361.891,441.793 352.987,450.713 342.034,450.713 Z M130.065,369.801 L130.065,284.379 C137.29,283.229 146.707,282.583 156.645,282.583 C173.161,282.583 183.871,285.546 192.263,291.865 C201.294,298.579 206.967,309.281 206.967,324.646 C206.967,341.289 200.907,352.779 192.514,359.87 C183.357,367.482 169.418,371.092 152.389,371.092 C142.191,371.092 134.966,370.446 130.065,369.801 Z M270.892,319.226 L270.892,335.222 L239.662,335.222 L239.662,370.195 L219.922,370.195 L219.922,283.229 L273.082,283.229 L273.082,299.351 L239.662,299.351 L239.662,319.226 L270.892,319.226 Z" id="Shape"></path>
            </g>
        </g>
    </g>
</svg>