<?xml version="1.0" encoding="utf-8"?>
<!-- Generator: Adobe Illustrator 19.0.0, SVG Export Plug-In . SVG Version: 6.00 Build 0)  -->
<svg version="1.1" id="图层_1" xmlns="http://www.w3.org/2000/svg" xmlns:xlink="http://www.w3.org/1999/xlink" x="0px" y="0px"
	 viewBox="0 0 44 46.1" style="enable-background:new 0 0 44 46.1;" xml:space="preserve">
<style type="text/css">
	.st0{fill:#51B95A;}
	.st1{fill:#EB4B51;}
	.st2{fill:none;}
</style>
<path id="XMLID_187_" class="st0" d="M20.5,21.4"/>
<path id="XMLID_183_" class="st1" d="M41.5,13.1H31.1V3c-0.5-0.2-0.7-0.3-1-0.3H11.7c-1.2,0-1.6,0.5-1.6,1.6c0.1,1.8,0,3.7,0,5.6
	H7.4c0-2.3-0.1-4.7,0-7C7.5,1.1,8.9,0,10.7-0.1C17.3-0.1,24-0.2,30.6,0c1.7,0.1,3.8,1.2,5.2,2.4c2,1.6,3.8,3.6,5.6,5.5
	c1.9,2,2.6,4.6,2.6,7.3c0.1,8.9,0,17.9,0,26.8c0,2.8-1.2,3.9-3.9,3.9H11.4c-3.2,0-4.2-1.4-4-5.4h2.5c0,0.4,0.2,0.7,0.1,1.2
	c-0.1,1.3,0.6,1.6,1.7,1.6h27.9c0.8,0,1.7,0.1,1.7-1.2C41.5,32.5,41.5,22.9,41.5,13.1L41.5,13.1z M39.7,10.3l-5.9-5.9v5.9H39.7z
	 M39.7,10.3"/>
<rect id="XMLID_182_" x="0" y="-0.2" class="st2" width="44" height="46.1"/>
<path id="XMLID_157_" class="st1" d="M27.5,21.3v-2.9h10.3v2.9H27.5z M37.9,24.6v2.8H27.4v-2.8H37.9z M27.3,33.5v-2.8h10.6v2.8H27.3
	z M27.3,33.5"/>
<g id="XMLID_188_">
	<path id="XMLID_189_" class="st1" d="M5.1,22.3H3.6v2.2h1.5c0.4,0,0.7-0.1,0.9-0.3c0.2-0.2,0.3-0.5,0.3-0.9c0-0.4-0.1-0.7-0.3-0.8
		C5.7,22.4,5.4,22.3,5.1,22.3z"/>
	<path id="XMLID_202_" class="st1" d="M12,22.3h-1.5v5H12c0.7,0,1.3-0.4,1.6-1.1c0.2-0.4,0.2-0.9,0.2-1.4c0-0.8-0.1-1.4-0.4-1.8
		C13.2,22.5,12.7,22.3,12,22.3z"/>
	<path id="XMLID_206_" class="st1" d="M0,13.1v24.1h24.2V13.1H0z M7.1,25.3L7.1,25.3c-0.5,0.4-1.1,0.6-1.9,0.6H3.6v2.7H2V21h3.3
		c0.8,0,1.4,0.2,1.8,0.6c0.5,0.4,0.7,1,0.7,1.8C7.8,24.3,7.6,24.9,7.1,25.3z M14.8,27.2c-0.5,0.9-1.4,1.4-2.5,1.4H9V21h3.3
		c0.5,0,0.9,0.1,1.2,0.2c0.5,0.2,1,0.5,1.3,1c0.3,0.4,0.4,0.8,0.5,1.2c0.1,0.4,0.1,0.9,0.1,1.3C15.4,25.6,15.2,26.5,14.8,27.2z
		 M22,22.3h-3.8v1.7h3.3v1.3h-3.3v3.2h-1.6V21H22V22.3z"/>
</g>
</svg>
