<?xml version="1.0" encoding="UTF-8"?>
<svg width="16px" height="16px" viewBox="0 0 16 16" version="1.1" xmlns="http://www.w3.org/2000/svg" xmlns:xlink="http://www.w3.org/1999/xlink">
    <!-- Generator: Sketch 43.1 (39012) - http://www.bohemiancoding.com/sketch -->
    <title> question mark</title>
    <desc>Created with Sketch.</desc>
    <defs></defs>
    <g id="Page-1" stroke="none" stroke-width="1" fill="none" fill-rule="evenodd">
        <g id="Artboard" transform="translate(-179.000000, -600.000000)" fill-rule="nonzero" fill="#34B3DC">
            <g id="-question-mark" transform="translate(179.000000, 600.000000)">
                <path d="M8.00248425,15.9839811 C3.59872257,15.9839811 0.0159082857,12.4011669 0.0159082857,7.99782546 C0.0159082857,3.5936435 3.59872257,0.0108292143 8.00248425,0.0108292143 C12.4066845,0.0108292143 15.9894988,3.59366177 15.9894988,7.99782546 C15.9894805,12.4011669 12.4066662,15.9839811 8.00248425,15.9839811 Z M8.00248425,1.18470763 C4.24603684,1.18470763 1.18934813,4.24095777 1.18934813,7.99784375 C1.18934813,11.754748 4.24603684,14.8109981 8.00248425,14.8109981 C11.7593702,14.8109981 14.8160772,11.754748 14.8160772,7.99784375 C14.8160772,4.24095777 11.7593519,1.18470763 8.00248425,1.18470763 Z" id="Shape"></path>
                <path d="M6.47302521,6.4478455 L5.39274279,6.4478455 C5.39274279,5.3841918 5.72166264,4.63281095 6.37899068,4.19372123 C6.87933259,3.81758311 7.45883454,3.63039118 8.11660114,3.63039118 C9.7129588,3.72398714 10.5422023,4.50685293 10.6051904,5.9781297 C10.66774,6.60441136 10.3073353,7.27794786 9.52534659,7.99696664 C8.71101414,8.56115555 8.35102963,9.2810332 8.44506416,10.1574949 L7.41205482,10.1574949 C7.31802029,9.15595229 7.69371986,8.29524213 8.53913523,7.57448738 C8.56974305,7.54386129 8.61696132,7.49662473 8.67996775,7.43365486 C9.3372958,6.8703248 9.61896082,6.36998288 9.52536486,5.93089316 C9.43133032,5.02378704 8.94542434,4.55408948 8.06940114,4.52260455 C7.00485207,4.52260454 6.47302521,5.1646378 6.47302521,6.4478455 Z M8.53913525,11.1433225 L8.53913525,12.3644192 L7.36525686,12.3644192 L7.36525686,11.1433225 L8.53913525,11.1433225 Z" id="Shape"></path>
            </g>
        </g>
    </g>
</svg>