<?xml version="1.0" encoding="UTF-8"?>
<svg width="48px" height="38px" viewBox="0 0 48 38" version="1.1" xmlns="http://www.w3.org/2000/svg" xmlns:xlink="http://www.w3.org/1999/xlink">
    <!-- Generator: Sketch 47.1 (45422) - http://www.bohemiancoding.com/sketch -->
    <title>Badge</title>
    <desc>Created with Sketch.</desc>
    <defs></defs>
    <g id="Page-1" stroke="none" stroke-width="1" fill="none" fill-rule="evenodd">
        <g id="仪表盘1" transform="translate(-286.000000, -894.000000)">
            <g id="card-1" transform="translate(255.000000, 824.000000)">
                <g id="Badge" transform="translate(31.000000, 64.000000)">
                    <text id="NO.1" font-family="PingFangSC-Semibold, PingFang SC" font-size="20" font-weight="500" line-spacing="25" fill="#F7A42C">
                        <tspan x="2" y="21">NO.1</tspan>
                    </text>
                    <path d="M29.5241891,43.9979339 C29.356919,43.9979339 29.1870951,43.9585941 29.0351475,43.87928 L23.9972532,41.2466884 L18.9599974,43.87928 C18.6056657,44.0645576 18.176637,44.0353701 17.8503965,43.799966 C17.5260713,43.5639274 17.3639087,43.1673572 17.4309444,42.7758631 L18.3937051,37.2016722 L14.3185715,33.253102 C14.031914,32.9758201 13.9272106,32.55958 14.0517055,32.1801416 C14.1742851,31.8007032 14.5056331,31.5259594 14.9021015,31.4688533 L20.5362945,30.656043 L23.0549225,25.5824823 C23.2317691,25.2252519 23.598231,25 23.9998069,25 C24.4013829,25 24.7678448,25.2252519 24.9453299,25.5824823 L27.4639578,30.656043 L33.0975124,31.4688533 C33.4939808,31.5259594 33.8234135,31.8007032 33.9479084,32.1801416 C34.0730418,32.55958 33.9683384,32.9758201 33.6810424,33.253102 L29.6065472,37.2016722 L30.5686695,42.7758631 C30.6363437,43.1698953 30.474181,43.5664655 30.1498558,43.799966 C29.9576867,43.9313101 29.7412571,43.9979339 29.5241891,43.9979339 L29.5241891,43.9979339 Z" id="Path" fill="#F8E71C"></path>
                    <g id="Star" transform="translate(0.000000, 25.000000)" fill="#F7A42C">
                        <path d="M29.5241891,18.9979339 C29.356919,18.9979339 29.1870951,18.9585941 29.0351475,18.87928 L23.9972532,16.2466884 L18.9599974,18.87928 C18.6056657,19.0645576 18.176637,19.0353701 17.8503965,18.799966 C17.5260713,18.5639274 17.3639087,18.1673572 17.4309444,17.7758631 L18.3937051,12.2016722 L14.3185715,8.25310195 C14.031914,7.97582006 13.9272106,7.55957997 14.0517055,7.18014159 C14.1742851,6.80070322 14.5056331,6.52595938 14.9021015,6.46885327 L20.5362945,5.65604296 L23.0549225,0.582482324 C23.2317691,0.225251879 23.598231,0 23.9998069,0 C24.4013829,0 24.7678448,0.225251879 24.9453299,0.582482324 L27.4639578,5.65604296 L33.0975124,6.46885327 C33.4939808,6.52595938 33.8234135,6.80070322 33.9479084,7.18014159 C34.0730418,7.55957997 33.9683384,7.97582006 33.6810424,8.25310195 L29.6065472,12.2016722 L30.5686695,17.7758631 C30.6363437,18.1698953 30.474181,18.5664655 30.1498558,18.799966 C29.9576867,18.9313101 29.7412571,18.9979339 29.5241891,18.9979339 L29.5241891,18.9979339 Z M23.9953379,14.015743 C24.1645233,14.015743 24.3317934,14.0557173 24.483741,14.1350313 L28.1221848,16.0360303 L27.4269285,12.010684 C27.3694694,11.6712199 27.4811956,11.3241417 27.7282701,11.0836615 L30.6714576,8.23089402 L26.6033468,7.6433356 C26.2617838,7.59384364 25.9649113,7.38064749 25.8104099,7.07100547 L23.9902304,3.40796576 L22.1694125,7.07100547 C22.0174648,7.38064749 21.7205923,7.59384364 21.3764756,7.6433356 L17.3090032,8.23089402 L20.2515523,11.0836615 C20.5011806,11.3241417 20.6135452,11.6712199 20.556086,12.010684 L19.8601914,16.0360303 L23.4986351,14.1350313 C23.658244,14.0557173 23.8255141,14.015743 23.9953379,14.015743 L23.9953379,14.015743 Z" id="Fill-1"></path>
                        <path d="M13.9292212,6 L1.07142857,6 C0.480161137,6 0,5.55232029 0,5.00030331 C0,4.44828632 0.480161137,4 1.07142857,4 L13.9292212,4 C14.5204886,4 15,4.44828632 15,5.00030331 C15,5.55474674 14.5230876,6 13.9292212,6 L13.9292212,6 Z" id="Fill-2"></path>
                        <path d="M10.941337,10 L5.05802103,10 C4.47379825,10 4,9.55218447 4,9 C4,8.44781553 4.47379825,8 5.05802103,8 L10.941337,8 C11.5255597,8 12,8.44781553 12,9 C12,9.55218447 11.5255597,10 10.941337,10 L10.941337,10 Z" id="Fill-3"></path>
                        <path d="M13.0282809,13 L9.97171375,13 C9.43488463,13 9,12.5523203 9,12.0003033 C9,11.4482863 9.43488463,11 9.97171375,11 L13.0282809,11 C13.5645208,11 13.9999947,11.4482863 13.9999947,12.0003033 C14.0017625,12.5523203 13.5645208,13 13.0282809,13 L13.0282809,13 Z" id="Fill-4"></path>
                        <path d="M46.9292212,6 L34.0714286,6 C33.4795114,6 33,5.55232029 33,5.00030331 C33,4.44828632 33.4795114,4 34.0714286,4 L46.9292212,4 C47.5204886,4 48,4.44828632 48,5.00030331 C48,5.55474674 47.5204886,6 46.9292212,6 L46.9292212,6 Z" id="Fill-5"></path>
                        <path d="M41.941328,10 L36.0580197,10 C35.4737976,10 35,9.55218447 35,9 C35,8.44781553 35.4737976,8 36.0580197,8 L41.941328,8 C42.526192,8 42.9999897,8.44781553 42.9999897,9 C43.0025577,9.55218447 42.526192,10 41.941328,10 L41.941328,10 Z" id="Fill-6"></path>
                        <path d="M37.0287523,13 L33.9712381,13 C33.4349355,13 33,12.5523203 33,12.0003033 C33,11.4482863 33.4349355,11 33.9712381,11 L37.0287523,11 C37.5674123,11 37.9999905,11.4482863 37.9999905,12.0003033 C38.0023478,12.5523203 37.5674123,13 37.0287523,13 L37.0287523,13 Z" id="Fill-7"></path>
                    </g>
                </g>
            </g>
        </g>
    </g>
</svg>