<?xml version="1.0" encoding="UTF-8"?>
<svg width="71px" height="54px" viewBox="0 0 71 54" version="1.1" xmlns="http://www.w3.org/2000/svg" xmlns:xlink="http://www.w3.org/1999/xlink">
    <!-- Generator: Sketch 47.1 (45422) - http://www.bohemiancoding.com/sketch -->
    <title>Group 3</title>
    <desc>Created with Sketch.</desc>
    <defs>
        <polygon id="path-1" points="71.8600702 26.6983333 71.8600702 53.3333333 0.00842105263 53.3333333 0.00842105263 0.0633333333 71.8600702 0.0633333333 71.8600702 26.6983333"></polygon>
    </defs>
    <g id="Page-1" stroke="none" stroke-width="1" fill="none" fill-rule="evenodd" opacity="0.08">
        <g id="仪表盘-核心指标-效果2" transform="translate(-1095.000000, -259.000000)">
            <g id="Group-6" transform="translate(226.000000, 159.000000)">
                <g id="card-1-copy-8" transform="translate(720.000000, 100.000000)">
                    <g id="BG">
                        <g id="handshake" transform="translate(149.000000, 0.000000)">
                            <g id="Group-3">
                                <mask id="mask-2" fill="white">
                                    <use xlink:href="#path-1"></use>
                                </mask>
                                <g id="Clip-2"></g>
                                <path d="M63.7434386,20.9358596 L51.429614,8.62203509 L56.7751579,3.27663158 L69.0889825,15.5904561 L63.7434386,20.9358596 Z M57.282386,24.5695439 C56.4860351,25.3660351 55.9630877,26.3552281 55.7702456,27.4300351 C55.197614,30.618807 53.6835088,33.5162105 51.3922807,35.8087018 L50.5101754,36.6906667 L43.2498246,29.4303158 C43.4075789,29.4419649 43.5658947,29.4496842 43.7254737,29.4496842 C44.4606316,29.4496842 45.2129123,29.3208421 45.9618246,29.0144561 C46.5484912,28.7745965 46.8294737,28.1042807 46.589614,27.5177544 C46.349614,26.9312281 45.68,26.6501053 45.0927719,26.8901053 C42.1389474,28.0986667 38.597614,24.7678596 38.2035088,24.3841404 C38.1969123,24.3776842 38.1903158,24.3713684 38.1835789,24.3650526 L38.1428772,24.3243509 C38.1427368,24.3242105 38.1425965,24.3242105 38.1423158,24.3240702 L38.1069474,24.2887018 C38.1066667,24.2885614 38.106386,24.2882807 38.1061053,24.2881404 L37.1399298,23.3214035 L38.2353684,22.2256842 C38.6837895,21.7774035 38.6837895,21.050807 38.2355088,20.6025263 C37.7873684,20.1545263 37.0606316,20.1542456 36.6126316,20.6025263 L34.7080702,22.5070877 C34.7072281,22.5077895 34.7065263,22.5084912 34.7056842,22.509193 C34.7049825,22.5100351 34.7044211,22.5107368 34.7035789,22.5115789 L30.3246316,26.8905263 C29.4247018,27.7903158 27.9608421,27.7900351 27.061193,26.8905263 C26.6254035,26.4547368 26.3854035,25.8752281 26.3854035,25.258807 C26.3854035,24.642386 26.6254035,24.0628772 27.0613333,23.6270877 L34.6195088,16.0686316 C35.0401404,15.6482807 35.5073684,15.2784561 36.0098246,14.9687018 C37.2032281,14.2310175 38.581614,13.8411228 39.9959298,13.8411228 C41.0757895,13.8411228 42.162807,14.0755088 43.1402105,14.5191579 C45.3636491,15.528 48.0063158,15.0579649 49.7156491,13.3489123 L51.3132632,11.7517193 L60.706807,21.1451228 L57.282386,24.5695439 Z M50.0533333,41.6906667 C49.7583158,41.9859649 49.3660351,42.1486316 48.9489123,42.1486316 C48.5317895,42.1486316 48.1395088,41.9859649 47.8439298,41.6901053 L36.7098947,30.5585965 C36.2613333,30.1103158 35.5348772,30.1104561 35.0867368,30.5588772 C34.6387368,31.0070175 34.6388772,31.7337544 35.0870175,32.1818947 L47.0801404,44.1737544 C47.3752982,44.4687719 47.5376842,44.8610526 47.5376842,45.2785965 C47.5376842,45.6967018 47.3751579,46.0895439 47.0805614,46.3841404 C46.4704561,46.9936842 45.4784561,46.9938246 44.869193,46.3845614 L42.8458947,44.3612632 C42.834807,44.349614 42.8237193,44.3378246 42.8120702,44.3264561 C42.8087018,44.3230877 42.8049123,44.3201404 42.8014035,44.3167719 L33.5007719,35.0161404 C33.0524912,34.568 32.3258947,34.568 31.877614,35.0161404 C31.4294737,35.4644211 31.4294737,36.1911579 31.877614,36.6391579 L41.2082807,45.9695439 C41.4934737,46.2618947 41.6505263,46.6487018 41.6505263,47.0590877 C41.6505263,47.4766316 41.4878596,47.8689123 41.1928421,48.1639298 C40.5838596,48.773193 39.5925614,48.773193 38.9832982,48.1639298 L28.8661053,38.0467368 C28.4178246,37.5984561 27.6912281,37.5984561 27.2429474,38.0467368 C26.794807,38.4948772 26.794807,39.221614 27.2429474,39.669614 L34.7424561,47.1692632 C34.7445614,47.1715088 34.7462456,47.1737544 34.7484912,47.1757193 C35.0433684,47.4700351 35.2054737,47.8617544 35.2054737,48.2787368 C35.2054737,48.696 35.0429474,49.0884211 34.746807,49.3847018 C34.4522105,49.68 34.0599298,49.8426667 33.6422456,49.8426667 C33.5413333,49.8426667 33.4426667,49.8322807 33.3461053,49.8140351 C33.5317895,48.5630877 33.1445614,47.242807 32.1837193,46.2819649 C31.4035088,45.5017544 30.3661754,45.0721404 29.2628772,45.0721404 C29.2321404,45.0721404 29.2015439,45.0736842 29.170807,45.074386 C29.194386,43.986807 28.7932632,42.8916491 27.9650526,42.0634386 C27.1848421,41.2833684 26.1476491,40.853614 25.0442105,40.853614 C24.9751579,40.853614 24.906386,40.8552982 24.8380351,40.8586667 C24.8930526,39.7338947 24.4923509,38.5908772 23.6352281,37.733614 C22.5918596,36.690386 21.125193,36.3239298 19.7834386,36.6322807 L18.9604211,35.8092632 C16.6951579,33.5430175 15.1880702,30.6815439 14.6015439,27.5343158 C14.3866667,26.3814737 13.8293333,25.3284211 12.9898947,24.4887018 L10.9667368,22.4656842 L22.4767719,10.9555088 L25.3452632,13.824 C26.4478596,14.9264561 27.9490526,15.5166316 29.4865965,15.5166316 C30.1752982,15.5166316 30.8715789,15.3981754 31.5421754,15.154386 C31.8675088,15.0360702 32.2039298,14.9511579 32.5448421,14.8972632 L25.4385965,22.0036491 C24.5691228,22.8729825 24.090386,24.0289123 24.090386,25.2585263 C24.090386,26.4878596 24.5691228,27.6437895 25.4384561,28.5132632 C26.3358596,29.4105263 27.5142456,29.8592281 28.693193,29.8590877 C29.8718596,29.8590877 31.0506667,29.4102456 31.9482105,28.5132632 L35.5173333,24.944 L36.4833684,25.9107368 C36.4837895,25.9110175 36.4839298,25.9111579 36.4842105,25.9114386 L36.5243509,25.9515789 L36.562807,25.9901754 C36.5629474,25.9903158 36.5633684,25.9905965 36.5636491,25.9907368 L36.5643509,25.9914386 C36.5754386,26.0025263 36.5862456,26.0127719 36.597193,26.0231579 L50.0540351,39.4801404 C50.349193,39.7751579 50.5115789,40.1674386 50.5115789,40.5849825 C50.5112982,41.002807 50.3489123,41.3952281 50.0533333,41.6906667 Z M30.5602807,50.5007719 C30.213614,50.8474386 29.7528421,51.0384561 29.2627368,51.0384561 C28.7724912,51.0384561 28.3115789,50.8474386 27.9650526,50.5007719 C27.2494035,49.7852632 27.2494035,48.6209123 27.9650526,47.9054035 C28.3229474,47.5476491 28.7927018,47.3687018 29.2627368,47.3687018 C29.7324912,47.3687018 30.2026667,47.5476491 30.5602807,47.9054035 C31.2759298,48.6209123 31.2759298,49.7852632 30.5602807,50.5007719 Z M25.0439298,46.8197895 C24.5538246,46.8197895 24.0929123,46.6287719 23.7465263,46.2822456 C23.0307368,45.5667368 23.0307368,44.4022456 23.7465263,43.6867368 C24.1042807,43.3289825 24.5740351,43.1500351 25.0442105,43.1500351 C25.5139649,43.1500351 25.984,43.3289825 26.341614,43.6867368 C27.0574035,44.4022456 27.0574035,45.5667368 26.341614,46.2822456 C25.9952281,46.6290526 25.5344561,46.8197895 25.0439298,46.8197895 Z M19.4165614,41.9527018 C19.0700351,41.6058947 18.8790175,41.1451228 18.8790175,40.6548772 C18.8790175,40.1647719 19.0700351,39.7038596 19.4168421,39.357193 C19.7745965,38.9994386 20.2443509,38.8204912 20.7142456,38.8204912 C21.1842807,38.8204912 21.6543158,38.9994386 22.0119298,39.357193 C22.7274386,40.0727018 22.7274386,41.237193 22.0120702,41.9527018 C21.2967018,42.6679298 20.1324912,42.6682105 19.4165614,41.9527018 Z M2.77080702,16.7246316 L16.6610526,2.83424561 L22.0065965,8.17964912 L8.11607018,22.0700351 L2.77080702,16.7246316 Z M71.5235088,14.778807 L57.586807,0.841824561 C57.1385263,0.393684211 56.4119298,0.393684211 55.9636491,0.841824561 L48.9950877,7.81038596 C48.7799298,8.02554386 48.6590877,8.31747368 48.6590877,8.62189474 C48.6590877,8.92617544 48.7799298,9.21824561 48.9950877,9.43326316 L49.690386,10.1285614 L48.0929123,11.725614 C47.0558596,12.7622456 45.4467368,13.045193 44.0889825,12.4289123 C42.816,11.8510877 41.4007018,11.5458246 39.9960702,11.5458246 C38.3282807,11.5458246 36.698386,11.9644912 35.250386,12.7574737 C34.6463158,12.6087018 34.0266667,12.5324912 33.4007018,12.5324912 C32.4954386,12.5324912 31.6063158,12.6888421 30.7581754,12.997193 C29.4035088,13.4892632 27.9515789,13.1842807 26.9682807,12.2011228 L24.0996491,9.33249123 L24.4412632,8.99087719 C24.6564211,8.7757193 24.7772632,8.48378947 24.7772632,8.17950877 C24.7772632,7.87508772 24.6564211,7.58315789 24.4412632,7.368 L17.4727018,0.399438596 C17.0244211,-0.0487017544 16.2978246,-0.0487017544 15.8495439,0.399438596 L0.336140351,15.9129825 C-0.112,16.3612632 -0.112,17.088 0.336140351,17.536 L7.30442105,24.5045614 C7.51985965,24.7198596 7.81164912,24.8407018 8.11607018,24.8407018 C8.42063158,24.8407018 8.7122807,24.7198596 8.9277193,24.5045614 L9.3434386,24.0888421 L11.3664561,26.1118596 C11.8769123,26.6224561 12.2152982,27.2597895 12.3448421,27.954807 C13.0165614,31.5594386 14.7428772,34.8364912 17.3371228,37.4321404 L17.7181754,37.813193 C16.986386,38.5838596 16.5838596,39.5879298 16.5838596,40.6545965 C16.5838596,41.7578947 17.0134737,42.7952281 17.7936842,43.5752982 C18.5990175,44.3807719 19.6565614,44.7831579 20.714386,44.7831579 C20.7832982,44.7831579 20.8520702,44.7813333 20.9208421,44.7778246 C20.8649825,45.9032982 21.2658246,47.0472982 22.1233684,47.9051228 C22.9035789,48.6853333 23.9407719,49.1149474 25.0442105,49.1149474 C25.0749474,49.1149474 25.1055439,49.1134035 25.1362807,49.1125614 C25.1127018,50.2001404 25.5139649,51.2952982 26.3418947,52.1235088 C27.1222456,52.9038596 28.1594386,53.3333333 29.2628772,53.3333333 C30.3661754,53.3333333 31.4035088,52.9035789 32.1837193,52.1235088 C32.2494035,52.0578246 32.3112982,51.9898947 32.3717895,51.9211228 C32.7781053,52.0625965 33.2078596,52.1381053 33.6422456,52.1381053 C34.6742456,52.1381053 35.6437895,51.7358596 36.370807,51.0065965 C36.7577544,50.6197895 37.0513684,50.1647719 37.2425263,49.669193 L37.3601404,49.7866667 C38.1122807,50.538807 39.1002105,50.9149474 40.0881404,50.9149474 C41.0760702,50.9149474 42.064,50.538807 42.8161404,49.7866667 C43.2158596,49.3869474 43.5162105,48.9149474 43.7065263,48.4002807 C44.3799298,48.8899649 45.1768421,49.1350175 45.9744561,49.1350175 C46.962386,49.1350175 47.9508772,48.7591579 48.7035789,48.0072982 C49.4321404,47.2787368 49.8334035,46.3094737 49.8334035,45.2781754 C49.8334035,44.9665965 49.7960702,44.6610526 49.7249123,44.3657544 C50.4599298,44.2164211 51.1352982,43.8555789 51.677193,43.3129825 C52.4057544,42.5844211 52.8070175,41.6155789 52.8070175,40.5849825 C52.8070175,39.7729123 52.5569123,39 52.0950175,38.352 L53.0157193,37.4311579 C55.6401404,34.805614 57.3738947,31.4874386 58.0297544,27.8352281 C58.1396491,27.2238596 58.4425263,26.6557193 58.9059649,26.1922807 L62.3302456,22.768 L62.9322105,23.3699649 C63.1564912,23.5941053 63.4501053,23.7062456 63.7438596,23.7062456 C64.037614,23.7062456 64.3313684,23.5942456 64.5555088,23.3699649 L71.5240702,16.4015439 C71.7392281,16.186386 71.8600702,15.8943158 71.8600702,15.5900351 C71.8600702,15.285614 71.7386667,14.9941053 71.5235088,14.778807 L71.5235088,14.778807 Z" id="Fill-1" fill="#0A0B09" mask="url(#mask-2)"></path>
                            </g>
                        </g>
                    </g>
                </g>
            </g>
        </g>
    </g>
</svg>