<?xml version="1.0" encoding="UTF-8"?>
<svg width="394px" height="483px" viewBox="0 0 394 483" version="1.1" xmlns="http://www.w3.org/2000/svg" xmlns:xlink="http://www.w3.org/1999/xlink">
    <!-- Generator: Sketch 41.2 (35397) - http://www.bohemiancoding.com/sketch -->
    <title>pdf-file</title>
    <desc>Created with Sketch.</desc>
    <defs></defs>
    <g id="Page-1" stroke="none" stroke-width="1" fill="none" fill-rule="evenodd">
        <g id="pdf-file" fill="#555555">
            <g id="Page-1">
                <g id="pdf-file">
                    <g id="Group">
                        <path d="M271.458,0 L77.811,0 C49.521,0 26.496,23.041 26.496,51.315 L26.496,241.069 L21.484,241.069 C10.066,241.069 0.806,250.32 0.806,261.748 L0.806,387.152 C0.806,398.579 10.065,407.829 21.484,407.829 L26.496,407.829 L26.496,430.824 C26.496,459.129 49.521,482.139 77.811,482.139 L342.034,482.139 C370.306,482.139 393.334,459.128 393.334,430.824 L393.334,121.449 L271.458,0 Z M342.034,450.713 L77.811,450.713 C66.857,450.713 57.937,441.793 57.937,430.824 L57.937,407.829 L304.247,407.829 C315.667,407.829 324.926,398.579 324.926,387.152 L324.926,261.748 C324.926,250.32 315.667,241.069 304.247,241.069 L57.937,241.069 L57.937,51.315 C57.937,40.377 66.858,31.457 77.811,31.457 L259.701,31.267 L259.701,98.5 C259.701,118.138 275.635,134.087 295.288,134.087 L361.15,133.898 L361.891,430.823 C361.891,441.793 352.987,450.713 342.034,450.713 Z M240.373015,285 L303.852539,285 L303.852539,302.853616 L266.161572,302.853616 L266.161572,317.363222 L298.354759,317.363222 L298.354759,334.139953 L266.161572,334.139953 L266.161572,368.090163 L240.373015,368.090163 L240.373015,285 Z M162.950667,285 L226.430191,285 L226.430191,302.853616 L188.739224,302.853616 L188.739224,317.363222 L220.932411,317.363222 L220.932411,334.139953 L188.739224,334.139953 L188.739224,368.090163 L162.950667,368.090163 L162.950667,285 Z M118.685034,285 L144.416913,285 L144.416913,368.090163 L118.685034,368.090163 L118.685034,285 Z M28,285 L106.045808,285 L106.045808,305.517489 L79.8605041,305.517489 L79.8605041,368.090163 L54.1853037,368.090163 L54.1853037,305.517489 L28,305.517489 L28,285 Z" id="Shape"></path>
                    </g>
                </g>
            </g>
        </g>
    </g>
</svg>