<?xml version="1.0" encoding="utf-8"?>
<!-- Generator: Adobe Illustrator 19.0.0, SVG Export Plug-In . SVG Version: 6.00 Build 0)  -->
<svg version="1.1" id="图层_1" xmlns="http://www.w3.org/2000/svg" xmlns:xlink="http://www.w3.org/1999/xlink" x="0px" y="0px"
	 viewBox="0 0 44 46.1" style="enable-background:new 0 0 44 46.1;" xml:space="preserve">
<style type="text/css">
	.st0{fill:#25C28F;}
	.st1{fill:none;}
</style>
<path id="XMLID_66_" class="st0" d="M41.5,13.2H31.1V3.1c-0.5-0.2-0.7-0.3-1-0.3H11.7c-1.2,0-1.6,0.5-1.6,1.6c0.1,1.8,0,3.7,0,5.6
	H7.4c0-2.3-0.1-4.7,0-7c0.1-1.7,1.5-2.8,3.3-2.9c6.6,0,13.2-0.2,19.8,0.1c1.7,0.1,3.8,1.2,5.2,2.4c2,1.6,3.8,3.6,5.6,5.5
	c1.9,2,2.6,4.6,2.6,7.3c0.1,8.9,0,17.9,0,26.8c0,2.8-1.2,3.9-3.9,3.9H11.4c-3.2,0-4.2-1.4-4-5.4h2.5c0,0.4,0.2,0.7,0.1,1.2
	c-0.1,1.3,0.6,1.6,1.7,1.6h27.9c0.8,0,1.7,0.1,1.7-1.2C41.5,32.7,41.5,23,41.5,13.2L41.5,13.2z M39.7,10.5l-5.9-5.9v5.9H39.7z
	 M39.7,10.5"/>
<rect id="XMLID_65_" x="0" y="0" class="st1" width="44" height="46.1"/>
<g id="XMLID_59_">
	<path id="XMLID_158_" class="st0" d="M26.5,19.9c0.3,0,0.6-0.1,0.8-0.3c0.2-0.2,0.3-0.5,0.3-0.8V6.9c0-0.6-0.5-1.2-1.2-1.2H13.5
		c-0.7,0-1.2,0.5-1.2,1.2v11.8c0,0.6,0.5,1.2,1.2,1.2H26.5z M13.5,6.9h12.9v11.8H13.5V6.9z M13.5,6.9"/>
	<path id="XMLID_61_" class="st0" d="M15.3,9.9c0,0.7,0.5,1.2,1.2,1.2c0.7,0,1.2-0.5,1.2-1.2c0-0.7-0.5-1.2-1.2-1.2
		C15.8,8.7,15.3,9.2,15.3,9.9"/>
	<polygon id="XMLID_60_" class="st0" points="18.9,15.7 17.1,13 14.1,17.5 25.9,17.5 22.4,10.4 	"/>
</g>
<path id="XMLID_53_" class="st0" d="M36.4,23.9c-0.3-0.3-0.6-0.4-1-0.4H3.9c-0.8,0-1.4,0.6-1.4,1.4v9.3c0,0.8,0.6,1.4,1.4,1.4h31.5
	c0.8,0,1.4-0.6,1.4-1.4v-9.3C36.8,24.6,36.7,24.2,36.4,23.9z M15.3,27H13v6.5h-1.7V27H9.1v-1.4h6.2V27z M18.7,26.9L18.7,26.9H18v5.3
	h0.7v1.3h-3v-1.3h0.7v-5.3h-0.7v-1.3h3V26.9z M24.3,27h-2.8v2h2.6v1.4h-2.6v3.1h-1.7v-7.9h4.5L24.3,27L24.3,27L24.3,27z M29.9,29
	v1.4h-2.6v3.1h-1.7v-7.9h4.5V27h-2.8v2H29.9z"/>
</svg>
