<?xml version="1.0" encoding="UTF-8" standalone="no"?>
<svg width="783px" height="594px" viewBox="0 0 783 594" version="1.1" xmlns="http://www.w3.org/2000/svg" xmlns:xlink="http://www.w3.org/1999/xlink">
    <!-- Generator: Sketch 41.2 (35397) - http://www.bohemiancoding.com/sketch -->
    <title>无搜索结果</title>
    <desc>Created with Sketch.</desc>
    <defs>
        <path d="M43.4455268,112.481409 C28.7896693,108.843512 16.4201487,99.6867274 8.61407331,86.6960604 C-7.49641118,59.8797614 1.09753909,24.885442 27.7733914,8.68711712 C54.4480902,-7.50772877 89.2576262,1.13184172 105.369264,27.9493005 C121.479749,54.7655995 112.884645,89.7587592 86.2099462,105.955924 C77.2791592,111.37856 67.2651884,114.160617 57.0931812,114.160617 C52.5470392,114.160617 47.9720584,113.605133 43.4455268,112.481409 Z" id="path-1"></path>
        <mask id="mask-2" maskContentUnits="userSpaceOnUse" maskUnits="objectBoundingBox" x="0" y="0" width="113.006298" height="113.641492" fill="white">
            <use xlink:href="#path-1"></use>
        </mask>
        <path d="M57.0608818,98.6812901 C43.1109972,98.6824498 29.4910279,91.5643714 21.7680082,78.7093864 C10.0375545,59.183957 16.2955652,33.7036023 35.7178928,21.9108785 C55.1425276,10.1193144 80.4871828,16.4105452 92.216483,35.9348149 C97.8988721,45.3931151 99.5772879,56.5097491 96.9425788,67.2378922 C94.3078698,77.9648757 87.6749551,87.0196095 78.2654448,92.7333227 C71.630223,96.7620298 64.2994104,98.6801304 57.0608818,98.6812901 L57.0608818,98.6812901 Z" id="path-3"></path>
        <mask id="mask-4" maskContentUnits="userSpaceOnUse" maskUnits="objectBoundingBox" x="0" y="0" width="82.3070182" height="82.7174511" fill="white">
            <use xlink:href="#path-3"></use>
        </mask>
        <path d="M35.5797671,91.662499 C23.4408771,88.6841859 13.1956731,81.1876097 6.73019743,70.5522694 C-6.61350485,48.5980105 0.504537679,19.9484811 22.5991328,6.68706049 C44.6927724,-6.57151183 73.5241887,0.501625572 86.8688464,22.4568339 C100.212549,44.4110929 93.0935508,73.0596729 70.9999111,86.320144 C63.6028795,90.7596058 55.3086879,93.037251 46.8836008,93.037251 C43.1182041,93.037251 39.3289213,92.5824815 35.5797671,91.662499 Z" id="path-5"></path>
        <mask id="mask-6" maskContentUnits="userSpaceOnUse" maskUnits="objectBoundingBox" x="0" y="0" width="93.5988235" height="93.037251" fill="white">
            <use xlink:href="#path-5"></use>
        </mask>
        <path d="M46.7688142,80.4097434 C35.3376278,80.4107025 24.1767895,74.5238442 17.8481868,63.8923968 C8.23570568,47.7442976 13.3638117,26.6713014 29.2793732,16.9183751 C45.1968252,7.16640779 65.9654182,12.3694391 75.576954,28.5165792 C80.2333688,36.3388693 81.608741,45.5326496 79.4497375,54.4051367 C77.290734,63.2766648 71.8554143,70.7651936 64.1448224,75.490601 C58.7076121,78.8224592 52.7004022,80.4087843 46.7688142,80.4097434 L46.7688142,80.4097434 Z" id="path-7"></path>
        <mask id="mask-8" maskContentUnits="userSpaceOnUse" maskUnits="objectBoundingBox" x="0" y="0" width="67.4462111" height="68.4097434" fill="white">
            <use xlink:href="#path-7"></use>
        </mask>
        <path d="M27.8960042,71.8671779 C18.378614,69.5320577 10.3459517,63.6544329 5.27675223,55.3158877 C-5.18526044,38.1028436 0.39557834,15.6404315 17.7186517,5.24293109 C35.040976,-5.15233618 57.6459949,0.393295127 68.1087567,17.6070836 C78.5707694,34.8201276 72.9891815,57.2817954 55.6668572,67.6785514 C49.8672795,71.1592725 43.3642914,72.9450402 36.7586758,72.9450402 C33.8064495,72.9450402 30.8354956,72.5884822 27.8960042,71.8671779 Z" id="path-9"></path>
        <mask id="mask-10" maskContentUnits="userSpaceOnUse" maskUnits="objectBoundingBox" x="0" y="0" width="73.3853362" height="72.9450402" fill="white">
            <use xlink:href="#path-9"></use>
        </mask>
        <path d="M36.4761424,62.636059 C27.513621,62.6368109 18.7630637,58.0212713 13.8011783,49.6857783 C6.26459685,37.0250028 10.2852434,20.5029051 22.7636997,12.8562088 C35.2436382,5.21026444 51.5270713,9.28965549 59.0629117,21.949679 C62.7137328,28.0826769 63.7920813,35.2909796 62.0993336,42.2473753 C60.4065858,49.203019 56.145071,55.0743343 50.0996492,58.7792485 C45.8366522,61.3915627 41.126752,62.635307 36.4761424,62.636059 L36.4761424,62.636059 Z" id="path-11"></path>
        <mask id="mask-12" maskContentUnits="userSpaceOnUse" maskUnits="objectBoundingBox" x="0" y="0" width="52.8806099" height="53.636059" fill="white">
            <use xlink:href="#path-11"></use>
        </mask>
    </defs>
    <g id="Page-1" stroke="none" stroke-width="1" fill="none" fill-rule="evenodd">
        <g id="无搜索结果">
            <g id="Imported-Layers" transform="translate(249.000000, 139.000000)">
                <path d="M78.1335524,163.135807 C93.7997099,173.978616 97.7075574,195.468379 86.8647871,211.134593 C76.0208579,226.799648 54.5311731,230.70751 38.8661745,219.8647 C23.2000171,209.020732 19.2921695,187.530969 30.1360988,171.865914 C40.9788691,156.200859 62.4685538,152.291839 78.1335524,163.135807" id="Fill-5" fill="#FFFFFF"></path>
                <path d="M58.9207674,230 C51.2630042,230 43.7943359,227.684655 37.3651094,223.235992 C20.131952,211.313761 15.8152519,187.601473 27.7444716,170.377252 C33.525207,162.034126 42.208491,156.438805 52.199198,154.622006 C62.1852646,152.809846 72.2861802,154.987221 80.6353579,160.76341 L80.6341978,160.76341 L80.6353579,160.76341 C97.8696755,172.684482 102.184055,196.39793 90.2548357,213.62215 C84.4764205,221.965277 75.7919764,227.561757 65.8024295,229.377396 C63.5077688,229.793625 61.2049874,230 58.9207674,230 L58.9207674,230 Z M59.0448972,160.976742 C49.1899209,160.976742 39.4903969,165.642215 33.4683625,174.336643 C23.7235949,188.406105 27.2491126,207.776396 41.3268215,217.515455 C48.1469988,222.23426 56.3964086,224.016276 64.5576515,222.533389 C72.7177342,221.049342 79.810533,216.478941 84.5321049,209.663918 C89.2525167,202.847737 91.0344171,194.602001 89.5506602,186.446699 C88.0669033,178.290237 83.492663,171.201594 76.6736459,166.483948 L76.6724858,166.483948 C71.2954622,162.762236 65.1388572,160.976742 59.0448972,160.976742 L59.0448972,160.976742 Z" id="Fill-6" fill="#CCCCCC"></path>
                <path d="M163.583808,156.392666 L163.583808,156.392666 C158.294607,159.584166 151.354916,157.872865 148.160345,152.588749 L120.608615,107.015703 C117.414044,101.731587 119.128147,94.798568 124.416192,91.6070682 C129.704236,88.4155684 136.645084,90.1280241 139.839655,95.4109847 L167.391385,140.985186 C170.585956,146.268147 168.871853,153.202322 163.583808,156.392666" id="Fill-19" fill="#CADCF2"></path>
                <path d="M133.397233,102.360783 C108.345507,117.491137 75.7700819,109.44896 60.6397286,84.3972333 C45.5082231,59.3455068 53.5515521,26.7700819 78.6032786,11.6397286 C103.655005,-3.49177695 136.229278,4.55155206 151.360783,29.6032786 C166.491137,54.6550051 158.44896,87.2292778 133.397233,102.360783 Z" id="Fill-21" fill="#CADCF2"></path>
                <path d="M137.594479,37.3572517 C148.300341,55.3190603 142.610593,78.6742957 124.884926,89.5227815 C107.159259,100.371267 84.1110722,94.604557 73.4052101,76.6427483 C62.699348,58.6809397 68.3902442,35.3257043 86.115911,24.4772185 C103.84043,13.6287326 126.888617,19.395443 137.594479,37.3572517" id="Fill-23" fill="#FFFFFF"></path>
                <g id="Group-2" transform="translate(49.000000, 0.000000)" stroke="#266CD3">
                    <path d="M109.177134,161.880038 C104.206486,161.880038 99.3523456,159.343831 96.5999744,154.76312 L69.121251,109.025581 C64.9407844,102.067538 67.1705973,92.988451 74.0918995,88.7846331 C81.0120482,84.5808153 90.0466547,86.8236246 94.2259677,93.7816679 L121.705845,139.520366 C125.885158,146.47725 123.655345,155.558656 116.734043,159.761314 C114.369264,161.195831 111.757626,161.880038 109.177134,161.880038 L109.177134,161.880038 Z" id="Fill-20" stroke-width="3" fill="#CADCF2"></path>
                    <use id="Fill-22" mask="url(#mask-2)" stroke-width="6" fill="#CADCF2" xlink:href="#path-1"></use>
                    <use id="Fill-24" mask="url(#mask-4)" stroke-width="6" fill="#FFFFFF" xlink:href="#path-3"></use>
                </g>
                <g id="Group-2-Copy" transform="translate(73.638805, 205.494342) rotate(-24.000000) translate(-73.638805, -205.494342) translate(22.638805, 138.994342)" stroke="#71A0E5">
                    <path d="M89.7982612,132.714902 C85.702848,132.714902 81.7034285,130.638858 79.4356968,126.889259 L56.7954466,89.4502204 C53.3510796,83.7546263 55.1882654,76.3228254 60.8908598,72.8817373 C66.5925038,69.4406492 74.0362903,71.276529 77.4797069,76.9721231 L100.120907,114.412111 C103.564324,120.106755 101.727138,127.540455 96.0245438,130.980594 C94.0761574,132.154835 91.9243785,132.714902 89.7982612,132.714902 L89.7982612,132.714902 Z" id="Fill-20" stroke-width="3" fill="#E5EDF6"></path>
                    <use id="Fill-22" mask="url(#mask-6)" stroke-width="6" fill="#E5EDF6" xlink:href="#path-5"></use>
                    <use id="Fill-24" mask="url(#mask-8)" stroke-width="6" fill="#FFFFFF" xlink:href="#path-7"></use>
                </g>
                <g id="Group-2-Copy-2" transform="translate(224.928838, 197.388127) rotate(54.000000) translate(-224.928838, -197.388127) translate(184.928838, 144.888127)" stroke="#9FC1F2">
                    <path d="M70.4055386,104.053954 C67.1945659,104.053954 64.0588561,102.42625 62.2808609,99.4864098 L44.5299715,70.1326603 C41.8294458,65.6670798 43.2698752,59.8402414 47.7409443,57.1422865 C52.2112682,54.4443316 58.0475037,55.8837371 60.7472842,60.3493176 L78.4989189,89.7038113 C81.1986994,94.1686476 79.75827,99.9969745 75.2872009,102.694185 C73.7595856,103.614839 72.0725022,104.053954 70.4055386,104.053954 L70.4055386,104.053954 Z" id="Fill-20" stroke-width="3" fill="#E5EDF6"></path>
                    <use id="Fill-22" mask="url(#mask-10)" stroke-width="6" fill="#E5EDF6" xlink:href="#path-9"></use>
                    <use id="Fill-24" mask="url(#mask-12)" stroke-width="6" fill="#FFFFFF" xlink:href="#path-11"></use>
                </g>
                <path d="M127,63.499435 C127,69.2989291 122.298929,74 116.499435,74 C110.701071,74 106,69.2989291 106,63.499435 C106,57.7010709 110.701071,53 116.499435,53 C122.298929,53 127,57.7010709 127,63.499435" id="Fill-25" fill="#266CD3"></path>
                <path d="M198,49.9994408 C198,53.8665229 194.865655,57 191,57 C187.134345,57 184,53.8665229 184,49.9994408 C184,46.1334771 187.134345,43 191,43 C194.865655,43 198,46.1334771 198,49.9994408" id="Fill-26" fill="#266CD3"></path>
                <path d="M119.505197,49 C118.666726,49 117.825926,48.6961649 117.157478,48.0790367 C111.260232,42.641925 104.963548,46.0976061 104.265987,46.5090249 C102.604184,47.4867356 100.468412,46.9346305 99.4901958,45.2582173 C98.5143087,43.581804 99.0383531,41.4265845 100.681523,40.4205001 C104.541983,38.0607534 113.935188,35.523671 121.855245,42.8275363 C123.282975,44.1445492 123.390113,46.3872544 122.092812,47.8378602 C121.403402,48.6086793 120.455464,49 119.505197,49" id="Fill-27" fill="#266CD3"></path>
                <path d="M187.571181,114.830741 L183.723357,106.906109 C182.714187,104.386159 182.761691,101.622895 183.861234,99.1257909 C184.95962,96.629829 186.972167,94.7073101 189.528114,93.7123523 C192.08522,92.7173946 194.886797,92.7665142 197.417254,93.848288 C199.950029,94.9312042 201.90001,96.9154082 202.90918,99.4353587 L206.755846,107.35999 C207.461454,109.1203 206.585526,111.110215 204.800071,111.805886 C203.014616,112.506126 200.996275,111.636823 200.290667,109.876513 L196.444002,101.951882 C196.117267,101.135126 195.480018,100.490859 194.651594,100.135599 C193.823171,99.7837652 192.909009,99.7654882 192.080585,100.086479 C191.25332,100.408612 190.598692,101.036887 190.239516,101.854785 C189.87918,102.671542 189.860642,103.571687 190.188536,104.388444 L194.03636,112.311933 C194.740809,114.072242 193.86604,116.0633 192.080585,116.758971 C191.66116,116.92118 191.228989,117 190.804929,117 C189.419203,117 188.111105,116.177532 187.571181,114.830741 Z" id="Fill-29" fill="#266CD3"></path>
                <path d="M177.87961,120 C171.923027,120 167.790124,119.065273 167.671643,119.037815 C165.800337,118.593905 164.646888,116.740469 165.097581,114.898474 C165.548274,113.057622 167.428872,111.922678 169.293209,112.362012 C170.482667,112.638883 198.547608,118.850183 210.357395,93.9809567 C211.172824,92.2636678 213.24973,91.5200051 214.989777,92.3243049 C216.733309,93.1274607 217.486013,95.1719612 216.671745,96.888106 C207.318701,116.582584 189.270066,120 177.87961,120" id="Fill-30" fill="#266CD3"></path>
            </g>
            <g id="Group" transform="translate(311.298519, 327.009264) rotate(-66.000000) translate(-311.298519, -327.009264) translate(295.798519, 315.009264)" fill="#96B9E3">
                <path d="M3.78188987,0.351659326 C2.26947678,0.351659326 0.865897383,1.34653553 0.388029888,2.90150913 C-0.201173227,4.81837214 0.842129105,6.86055375 2.71732118,7.46285027 C3.0725944,7.57666002 3.4316205,7.63036799 3.7843918,7.63036799 C5.29805585,7.63036799 6.70163524,6.63549179 7.17950274,5.08179695 C7.76870586,3.16365517 6.72540352,1.12147356 4.85021144,0.520455802 C4.49493823,0.406646057 4.13591212,0.351659326 3.78188987,0.351659326" id="Fill-16"></path>
                <path d="M27.3199914,7.90913793 C25.8063273,7.90913793 24.4027479,8.90401413 23.9248804,10.457709 C23.3356773,12.3758507 24.3789797,14.4180324 26.2541717,15.0203289 C26.609445,15.1341386 26.9684711,15.1878466 27.3212424,15.1878466 C28.8349064,15.1878466 30.2397368,14.1929704 30.7176043,12.6379968 C31.3055564,10.7211338 30.263505,8.67895216 28.387062,8.07665564 C28.0330398,7.9628459 27.6727627,7.90913793 27.3199914,7.90913793" id="Fill-17"></path>
                <path d="M8.83055118,12.1485686 C7.60523312,12.1485686 6.47107027,12.9518859 6.0834207,14.2083567 C5.59022298,15.8149915 5.75622144,17.6756667 6.54111586,19.3136887 C7.38166294,21.0674512 8.79312957,22.3376539 10.5145239,22.8908541 C11.1410961,23.0909478 11.7839803,23.1909947 12.4326217,23.1909947 C13.5687036,23.1909947 14.7143808,22.8830073 15.7794576,22.2797837 C17.3396511,21.3950556 18.5160332,19.9669358 19.0101905,18.3593202 C19.4861167,16.8095749 18.642691,15.1588018 17.1266358,14.6713186 L9.69316743,12.2839261 C9.40626837,12.1927069 9.11553119,12.1485686 8.83055118,12.1485686" id="Fill-18" transform="translate(12.473772, 17.669782) rotate(176.000000) translate(-12.473772, -17.669782) "></path>
            </g>
        </g>
    </g>
</svg>