<?xml version="1.0" encoding="UTF-8"?>
<svg width="67px" height="60px" viewBox="0 0 67 60" version="1.1" xmlns="http://www.w3.org/2000/svg" xmlns:xlink="http://www.w3.org/1999/xlink">
    <!-- Generator: Sketch 47.1 (45422) - http://www.bohemiancoding.com/sketch -->
    <title>cargo-box-on-a-trolley</title>
    <desc>Created with Sketch.</desc>
    <defs></defs>
    <g id="Page-1" stroke="none" stroke-width="1" fill="none" fill-rule="evenodd" opacity="0.08">
        <g id="仪表盘-核心指标-效果2" transform="translate(-859.000000, -259.000000)" fill="#000000">
            <g id="Group-6" transform="translate(226.000000, 159.000000)">
                <g id="card-1-copy-7" transform="translate(480.000000, 100.000000)">
                    <g id="BG">
                        <g id="cargo-box-on-a-trolley" transform="translate(186.500000, 28.000000) rotate(8.000000) translate(-186.500000, -28.000000) translate(153.000000, -4.000000)">
                            <g id="Group-4" opacity="0.900000036" transform="translate(-0.000000, -0.000000)">
                                <path d="M43.1380061,23.5011884 L34.0570503,21.8327575 C32.9015788,21.6209211 31.7863737,22.3807311 31.5745372,23.5432055 L29.9061064,32.6241613 C29.6942699,33.7866357 30.3017678,34.1840479 31.2734143,33.5135243 L33.8644717,31.7225434 L37.4972042,36.9869417 C38.1659771,37.9585882 39.4930186,38.205439 40.4576623,37.5349153 L43.9730969,35.1206801 C44.9447434,34.4501565 45.1898434,33.1231149 44.5193198,32.1532191 L40.888338,26.8870701 L43.4863983,25.1013414 C44.4510419,24.4325685 44.3004805,23.7200277 43.1380061,23.5011884 Z" id="Fill-1"></path>
                                <path d="M66.8006625,19.4675423 C66.833926,18.9335744 66.5678175,18.4276179 66.1091303,18.1615093 C65.6521938,17.8866472 65.0779595,17.9006529 64.6262751,18.1877701 L58.5320382,22.1408833 L43.966094,0.995754242 C43.4741433,0.270958464 42.4814882,0.0853827333 41.7496895,0.584336349 L21.6654935,14.4272354 L18.6700211,10.07671 C18.5737318,9.94015432 18.4581846,9.82460717 18.326881,9.72831787 C18.314626,9.71431216 18.2936175,9.6950543 18.2726089,9.68104858 C18.1220475,9.57775643 17.9522281,9.49547285 17.7666524,9.44820356 C17.7526467,9.4412007 17.738641,9.43419785 17.726386,9.42719499 C17.7193831,9.42719499 17.7123803,9.42719499 17.6983746,9.42719499 C17.5075467,9.38692856 17.3149681,9.3799257 17.1241402,9.40793713 C17.1101345,9.41318927 17.0961288,9.41318927 17.0821231,9.41318927 C16.8912952,9.44820356 16.714473,9.51648143 16.5569087,9.61277072 C16.5359002,9.61977358 16.5218945,9.62677644 16.5078887,9.63903144 C16.4886309,9.65303715 16.4746252,9.66004001 16.4536166,9.66704287 L7.70704724,15.6982541 C6.98225146,16.1972077 6.79667573,17.1898628 7.29738006,17.9146586 C7.79633368,18.6394544 8.79424091,18.8232794 9.51903669,18.3243258 L14.8534636,14.6460747 L11.8247276,27.433293 L1.61456099,34.4711651 C0.888014496,34.9701187 0.70418948,35.9610231 1.2031431,36.6875695 C1.70209671,37.4123653 2.6947518,37.5961903 3.41954758,37.0972367 L12.8296377,30.6143412 L25.5695867,49.1193928 C26.0282739,48.6414477 26.5342303,48.210772 27.094459,47.8203627 C27.4305961,47.5875177 27.7719854,47.3896869 28.1273805,47.2041112 L14.94275,28.0775559 L18.081781,14.8369026 L19.2705161,16.5666085 L17.4042545,25.3201807 C17.1924181,26.3128358 17.3972517,27.3457573 17.971486,28.1790974 L30.4803407,46.328754 C31.0615779,46.1921982 31.6498179,46.1099147 32.2450608,46.0836539 C32.9138338,46.0556425 33.5913602,46.0836539 34.254881,46.1851954 L21.9456078,28.3226559 C21.7477771,28.0425416 21.6777485,27.6941495 21.7407742,27.3580123 C21.8020492,27.0236258 21.9928771,26.7295058 22.2729914,26.5386779 L39.3704686,14.754619 C39.9517058,14.3589576 40.7517823,14.5025162 41.1544466,15.0907562 L52.9315027,32.1794799 C53.3359177,32.7677199 53.1853563,33.5677964 52.6041191,33.9652086 L34.7398289,46.2744818 C35.3963468,46.4040347 36.0458619,46.610619 36.6691162,46.8767276 C37.2153391,47.1165755 37.749307,47.3966898 38.2482607,47.7240734 L56.5432266,35.1206801 C57.5271281,34.4431536 58.1696403,33.3769685 58.3131989,32.1934856 L59.0117339,26.3320936 C59.0660061,25.8751572 59.318109,25.4637393 59.6945126,25.2046335 L62.9508414,23.0092376 C63.04538,22.9409598 63.1766836,22.9409598 63.278225,23.0022348 C63.3815172,23.0635098 63.4427922,23.1808076 63.4287865,23.2963548 L62.5954464,31.5107069 C62.5324207,32.111202 62.2120399,32.6521728 61.7130863,32.9935621 L39.2339129,48.4768806 C39.8694222,49.0231035 40.4506594,49.6463578 40.949613,50.3711536 C41.0739138,50.5549786 41.1824581,50.7475572 41.2927531,50.9313822 L64.3111465,35.2642387 C65.2547816,34.6217265 65.8570274,33.5747993 65.9323081,32.4263306 L66.8006625,19.4675423 Z M38.9117814,9.80359859 C39.0010679,9.73532073 39.116615,9.74232359 39.2129043,9.80359859 C39.3021908,9.8648736 39.3424572,9.98217147 39.3161965,10.0907158 L39.1236179,10.8085087 C39.0693457,11.0080901 38.9467957,11.1849123 38.7682229,11.3074623 L21.4939235,23.2280769 C21.3976342,23.2893519 21.2750842,23.2893519 21.1857977,23.2280769 C21.0912591,23.1668019 21.0422391,23.0495041 21.0632477,22.9409598 L21.2278149,22.1881525 C21.2610784,22.0043275 21.3783763,21.8327575 21.5341899,21.7242132 L38.9117814,9.80359859 Z M40.0409922,6.67157046 C39.9849694,6.87640405 39.8624194,7.04797406 39.6855972,7.17052407 L22.2729914,19.1734223 C22.1854557,19.2346973 22.0611549,19.2346973 21.9718685,19.1804251 C21.8773299,19.1173994 21.8283099,19.0088551 21.8493185,18.8915573 L21.9386049,18.3803486 C21.9718685,18.1877701 22.0821635,18.0162 22.2467307,17.9076557 L39.7801358,5.76119895 C39.8764251,5.69292109 40.005978,5.69992394 40.1022673,5.76820181 C40.1985565,5.83647967 40.238823,5.95377754 40.2108115,6.06932469 L40.0409922,6.67157046 Z M55.5855858,28.4189452 C55.5505715,28.6920567 55.3597436,28.910896 55.0988872,28.9791739 C54.8397814,29.0404489 54.56667,28.9389074 54.4091057,28.7200681 L42.6933246,11.7048745 C42.5847803,11.5403073 42.537511,11.3424766 42.5707746,11.1516487 L42.6670639,10.6246837 C42.6863218,10.5213915 42.7616025,10.4461108 42.8648946,10.4198501 C42.9681868,10.3988415 43.0697282,10.4391079 43.1310032,10.5283944 L46.74973,15.7805377 C46.8390164,15.9030877 46.982575,15.9661134 47.1331364,15.9451049 C47.276695,15.9240963 47.399245,15.8225548 47.4395115,15.6789963 L47.7616429,14.6180633 C47.8299208,14.3852183 47.7896544,14.1401183 47.6513479,13.933534 L43.4321261,7.80603342 C43.3095761,7.62921126 43.255304,7.41737481 43.2815647,7.19853551 L43.3638483,6.58928688 C43.3848568,6.46673687 43.4741433,6.37044758 43.5896904,6.34418686 C43.7069883,6.31617543 43.8365412,6.35644186 43.904819,6.45973401 L55.7624079,23.7270305 C55.9549865,24.000142 56.0355194,24.3292763 55.9952529,24.6566599 L55.5855858,28.4189452 Z" id="Fill-3"></path>
                            </g>
                            <path d="M39.1988986,51.5738944 C38.6929421,50.8420958 38.0854442,50.2345979 37.4149206,49.7356443 C37.0665284,49.4747878 36.7041305,49.2419428 36.3277269,49.0511149 C35.7394869,48.749992 35.1162325,48.5311527 34.4807232,48.3875942 C34.2338724,48.3263191 33.9887724,48.2860527 33.7419217,48.2510384 C33.0994095,48.1687548 32.4498944,48.161752 31.8003794,48.2440356 C30.9582857,48.3473277 30.1319485,48.5854249 29.344127,48.9688313 C28.988732,49.1404014 28.633337,49.3382321 28.2989505,49.5640743 C27.7299683,49.9614864 27.2380175,50.41142 26.8073418,50.9173765 C24.543668,53.550451 24.2285394,57.4703007 26.2943825,60.4657731 C28.7506348,64.028477 33.6263745,64.923092 37.1890784,62.4685904 C40.5679573,60.1436416 41.544856,55.6373027 39.5472908,52.1428766 C39.4387465,51.950298 39.3231993,51.7594702 39.1988986,51.5738944 Z M34.6242818,58.7553251 C33.1204181,59.7952494 31.054575,59.411843 30.0076478,57.9009764 C29.4001499,57.0116135 29.2898549,55.9314227 29.6049835,54.9737819 C29.8238228,54.3102611 30.2404928,53.7150182 30.8637472,53.2843424 C31.2121393,53.0444946 31.5885429,52.8869303 31.9772015,52.7993945 C32.3395994,52.7101081 32.7090002,52.6961024 33.0713981,52.7311167 C34.0080303,52.8256553 34.9043961,53.2983482 35.4786304,54.1316882 C35.6081833,54.3242668 35.7114754,54.5220976 35.8007619,54.7199283 C36.4030076,56.1432591 35.9513233,57.8397014 34.6242818,58.7553251 Z" id="Fill-5"></path>
                        </g>
                    </g>
                </g>
            </g>
        </g>
    </g>
</svg>