<?xml version="1.0" encoding="utf-8"?>
<!-- Generator: Adobe Illustrator 19.0.0, SVG Export Plug-In . SVG Version: 6.00 Build 0)  -->
<svg version="1.1" id="图层_1" xmlns="http://www.w3.org/2000/svg" xmlns:xlink="http://www.w3.org/1999/xlink" x="0px" y="0px"
	 viewBox="0 0 44 46.1" style="enable-background:new 0 0 44 46.1;" xml:space="preserve">
<style type="text/css">
	.st0{clip-path:url(#XMLID_54_);fill:#36A1E5;}
	.st1{fill:#36A1E5;}
</style>
<g id="XMLID_136_">
	<g id="XMLID_164_">
		<defs>
			<rect id="XMLID_146_" x="0" y="0" width="44" height="46.1"/>
		</defs>
		<clipPath id="XMLID_54_">
			<use xlink:href="#XMLID_146_"  style="overflow:visible;"/>
		</clipPath>
		<path id="XMLID_170_" class="st0" d="M24.2,13.2v24.1H0V13.2H24.2z M20.5,21.6c-1.7-0.6-2.8-0.3-3.3,1.5c-0.5,1.7-1.2,3.2-2,5.1
			c-0.6-2-1.2-3.7-1.6-5.4c-0.3-1-0.7-1.4-1.8-1.5c-1.2,0-1.5,0.6-1.7,1.6c-0.5,1.7-1,3.4-1.6,5.4c-0.6-1.9-1.4-3.5-1.7-5
			c-0.5-1.9-1.5-2.3-3.4-1.7c1.1,2.7,2.3,5.3,3.4,8.1c0.4,1,1.2,1.2,1.9,1c0.6-0.2,1.2-0.6,1.4-1.2c0.6-1.6,1.1-3.1,1.8-5.1
			c0.6,2.1,1.1,3.8,1.7,5.4c0.2,0.4,0.6,0.9,1,0.9c0.6,0,1.7-0.2,2-0.6C18,27.3,19.2,24.4,20.5,21.6L20.5,21.6z M20.5,21.6"/>
		<path id="XMLID_166_" class="st0" d="M41.5,13.2H31.1V3.1c-0.5-0.2-0.7-0.3-1-0.3H11.7c-1.2,0-1.6,0.5-1.6,1.6
			c0.1,1.8,0,3.7,0,5.6H7.4c0-2.3-0.1-4.7,0-7c0.1-1.7,1.5-2.8,3.3-2.9c6.6,0,13.2-0.2,19.8,0.1c1.7,0.1,3.8,1.2,5.2,2.4
			c2,1.6,3.8,3.6,5.6,5.5c1.9,2,2.6,4.6,2.6,7.3c0.1,8.9,0,17.9,0,26.8c0,2.8-1.2,3.9-3.9,3.9H11.4c-3.2,0-4.2-1.4-4-5.4h2.5
			c0,0.4,0.2,0.7,0.1,1.2c-0.1,1.3,0.6,1.6,1.7,1.6h27.9c0.8,0,1.7,0.1,1.7-1.2C41.5,32.7,41.5,23,41.5,13.2L41.5,13.2z M39.7,10.5
			l-5.9-5.9v5.9H39.7z M39.7,10.5"/>
	</g>
	<path id="XMLID_159_" class="st1" d="M27.5,21.5v-2.9h10.3v2.9H27.5z M37.9,24.8v2.8H27.4v-2.8H37.9z M27.3,33.7v-2.8h10.6v2.8
		H27.3z M27.3,33.7"/>
</g>
</svg>
